{"glyphs":{"0":{"ha":864,"x_min":0,"x_max":0,"o":"m 433 988 b 810 485 669 988 810 803 b 428 -17 810 167 658 -17 b 54 492 190 -17 54 172 b 433 988 54 798 202 988 m 651 456 b 428 957 651 808 574 957 b 212 519 289 957 212 814 b 435 15 212 164 290 15 b 651 456 567 15 651 146 "},"1":{"ha":563,"x_min":0,"x_max":0,"o":"m 84 892 b 60 911 67 892 60 899 b 85 930 60 922 69 930 l 190 931 b 325 987 256 931 292 943 b 351 1002 334 998 341 1002 b 371 979 364 1002 371 994 l 371 90 b 408 47 371 65 383 51 l 503 33 b 522 16 516 31 522 25 b 501 0 522 6 515 0 l 78 0 b 56 17 63 0 56 6 b 76 34 56 26 63 31 l 178 47 b 217 90 202 51 217 64 l 217 854 b 185 891 217 882 208 891 l 84 892 "},"2":{"ha":785,"x_min":0,"x_max":0,"o":"m 58 67 b 135 197 58 123 85 169 l 295 318 b 545 724 474 451 545 567 b 383 960 545 887 476 960 b 227 806 278 960 227 895 l 227 735 b 151 652 227 683 196 652 b 78 737 106 652 78 683 b 403 989 78 867 192 989 b 704 732 599 989 704 880 b 372 323 704 593 620 488 l 218 220 b 247 222 228 222 238 222 b 590 126 363 222 481 126 b 715 223 657 126 690 152 b 733 235 719 233 726 236 b 745 213 742 234 747 227 b 556 -15 722 42 657 -15 b 347 124 472 -15 417 20 b 256 186 304 171 280 186 b 201 88 222 186 204 160 b 122 -15 196 10 167 -15 b 58 67 85 -15 58 17 "},"3":{"ha":718,"x_min":0,"x_max":0,"o":"m 676 274 b 346 -17 676 98 544 -17 b 48 191 153 -17 48 74 b 126 288 48 250 82 288 b 194 211 168 288 194 258 l 194 144 b 350 13 194 65 248 12 b 531 246 457 13 531 90 b 317 494 531 414 455 494 l 274 494 b 251 513 258 494 251 501 b 269 542 251 521 255 528 l 553 852 l 182 852 b 141 823 160 852 147 844 l 117 731 b 96 714 115 720 108 714 b 78 736 85 714 76 722 l 103 941 b 140 972 105 960 117 972 l 663 972 b 689 956 680 972 689 967 b 665 917 689 947 684 938 l 308 531 b 344 531 320 531 333 531 b 676 274 551 531 676 444 "},"4":{"ha":792,"x_min":0,"x_max":0,"o":"m 436 531 b 449 563 436 544 440 553 l 553 661 b 574 673 563 671 568 673 b 587 658 583 673 587 668 l 587 281 l 715 281 b 737 265 728 281 737 276 b 714 247 737 253 729 247 l 587 247 l 588 80 b 620 45 588 59 599 49 l 692 33 b 712 17 705 31 712 26 b 690 0 712 6 705 0 l 331 0 b 308 16 315 0 308 6 b 328 33 308 26 316 31 l 405 46 b 436 79 426 49 436 59 l 436 247 l 44 247 b 20 266 29 247 20 255 b 36 294 20 274 24 282 l 360 682 b 397 760 385 709 397 730 b 348 901 397 810 348 843 b 451 997 348 955 385 997 b 551 896 512 997 551 956 b 451 717 551 844 531 801 l 73 281 l 436 281 l 436 531 "},"5":{"ha":751,"x_min":0,"x_max":0,"o":"m 73 197 b 151 285 73 248 106 285 b 219 207 194 285 219 254 l 219 130 b 372 10 219 60 272 10 b 547 276 472 10 547 100 b 368 546 547 454 478 546 b 169 417 287 546 216 496 b 140 401 158 406 150 401 b 118 422 126 401 118 408 l 118 959 b 149 990 118 978 128 990 b 197 973 161 990 172 986 b 456 913 268 936 356 913 b 659 997 556 913 632 942 b 684 1008 669 1008 677 1010 b 692 988 690 1006 694 1001 b 426 783 668 845 580 783 b 157 849 328 783 231 808 l 157 455 b 405 583 216 536 297 583 b 697 293 581 583 697 465 b 363 -17 697 103 562 -17 b 73 197 183 -17 73 78 "},"6":{"ha":793,"x_min":0,"x_max":0,"o":"m 451 989 b 721 792 624 989 721 898 b 638 699 721 733 690 699 b 558 786 589 699 558 730 l 558 844 b 438 958 558 915 518 958 b 208 454 314 958 210 824 b 459 589 254 536 349 589 b 745 301 630 589 746 484 b 415 -17 744 111 613 -17 b 54 451 197 -17 55 149 b 451 989 54 810 219 989 m 403 543 b 209 388 315 543 234 482 b 418 13 220 109 306 13 b 597 283 526 13 597 101 b 403 543 597 453 519 543 "},"7":{"ha":672,"x_min":0,"x_max":0,"o":"m 392 74 b 298 -16 392 23 358 -16 b 194 126 235 -16 194 32 b 337 489 194 233 234 340 l 562 844 l 138 844 b 101 817 117 844 107 837 l 76 726 b 53 709 73 715 65 709 b 36 731 42 709 35 717 l 60 944 b 94 972 62 961 73 972 l 647 972 b 674 951 664 972 674 964 b 654 910 674 941 669 931 l 442 557 b 322 272 355 428 322 345 b 392 74 322 188 392 149 "},"8":{"ha":767,"x_min":0,"x_max":0,"o":"m 379 -17 b 66 213 177 -17 66 76 b 266 439 66 306 126 394 b 62 709 121 506 62 594 b 399 989 62 867 192 989 b 722 733 603 989 722 883 b 516 474 722 616 647 517 b 718 237 658 410 718 328 b 379 -17 718 84 586 -17 m 437 504 b 474 491 449 500 462 495 b 583 725 538 540 583 623 b 387 961 583 871 507 961 b 201 769 277 961 201 882 b 437 504 201 648 257 564 m 208 228 b 394 10 208 84 281 10 b 571 188 503 10 571 76 b 353 405 571 281 513 353 b 300 424 335 411 317 417 b 208 228 238 379 208 301 "},"9":{"ha":799,"x_min":0,"x_max":0,"o":"m 349 -17 b 75 180 173 -17 75 74 b 157 273 75 239 105 273 b 238 183 208 273 238 242 l 238 128 b 363 14 238 59 279 14 b 591 524 487 14 591 151 b 339 390 546 442 452 390 b 53 674 167 390 53 494 b 385 989 53 859 186 989 b 744 524 603 989 744 824 b 349 -17 745 163 580 -17 m 201 692 b 393 436 201 525 278 436 b 590 588 483 436 565 496 b 383 958 578 864 494 958 b 201 692 274 958 201 872 "}," ":{"ha":274,"x_min":0,"x_max":0,"o":""}," ":{"ha":274,"x_min":0,"x_max":0,"o":""},"A":{"ha":919,"x_min":0,"x_max":0,"o":"m 260 15 b 239 0 260 6 253 0 l 31 0 b 10 15 17 0 10 6 b 26 31 10 22 15 27 l 56 41 b 115 123 81 51 98 68 l 357 885 b 329 938 367 916 361 930 b 305 957 312 944 305 949 b 327 972 305 967 312 972 l 583 972 b 604 958 597 972 604 967 b 581 939 604 949 598 943 b 559 903 554 934 551 927 l 830 84 b 884 34 840 53 854 39 b 904 15 899 29 904 24 b 883 0 904 6 897 0 l 614 0 b 592 15 599 0 592 6 b 610 31 592 24 598 28 l 654 38 b 669 83 676 42 678 55 l 583 344 l 230 344 l 161 126 b 206 39 144 76 161 53 l 243 31 b 260 15 255 28 260 24 m 571 381 l 403 894 l 242 381 "},"B":{"ha":902,"x_min":0,"x_max":0,"o":"m 862 235 b 519 0 862 96 743 0 l 86 0 b 65 15 72 0 65 6 b 83 33 65 24 70 30 l 137 42 b 167 73 157 46 167 56 l 167 902 b 137 931 167 917 158 926 l 83 940 b 65 957 70 942 65 948 b 86 972 65 966 72 972 l 417 972 b 806 698 667 972 806 860 b 583 466 806 585 729 494 b 862 235 753 447 862 356 m 319 939 l 319 475 l 459 475 b 662 692 590 475 662 558 b 403 939 662 839 565 939 m 319 444 l 319 79 b 380 33 319 48 340 33 l 487 33 b 708 238 630 33 708 117 b 458 444 708 361 621 444 "},"C":{"ha":925,"x_min":0,"x_max":0,"o":"m 883 255 b 515 -23 874 113 733 -23 b 53 477 231 -23 53 183 b 509 993 53 778 244 993 b 730 931 651 993 711 931 b 790 988 753 931 769 988 b 808 969 799 988 804 983 l 882 723 b 868 697 886 710 880 699 b 841 713 856 695 847 701 b 531 954 767 886 664 954 b 213 523 347 954 213 790 b 573 53 213 222 364 53 b 854 256 715 53 813 131 b 873 269 860 267 865 270 b 883 255 880 269 883 263 "},"D":{"ha":1032,"x_min":0,"x_max":0,"o":"m 65 15 b 82 33 65 24 70 30 l 138 42 b 167 70 158 46 167 55 l 167 901 b 138 931 167 917 158 926 l 82 940 b 65 957 70 943 65 948 b 86 972 65 967 72 972 l 410 972 b 979 451 751 972 979 763 b 481 0 979 181 788 0 l 86 0 b 65 15 72 0 65 6 m 475 35 b 819 462 681 35 819 178 b 400 937 819 756 660 937 l 320 937 l 320 78 b 372 35 320 49 338 35 l 475 35 "},"E":{"ha":851,"x_min":0,"x_max":0,"o":"m 65 957 b 86 972 65 966 72 972 l 632 972 b 708 997 669 972 688 997 b 732 971 720 997 726 991 l 788 761 b 777 738 791 749 787 741 b 750 751 766 735 756 739 b 542 936 670 906 626 936 l 320 936 l 320 508 l 503 508 b 596 603 566 508 588 530 b 612 622 598 616 603 622 b 631 606 622 624 628 617 l 690 396 b 680 373 693 383 690 376 b 656 383 671 370 663 373 b 524 473 613 456 587 473 l 320 473 l 320 83 b 378 36 320 51 339 36 l 556 36 b 776 268 642 36 687 71 b 799 282 781 279 789 283 b 811 257 810 280 815 272 l 749 5 b 723 -23 744 -15 737 -23 b 642 0 703 -23 685 0 l 86 0 b 65 15 72 0 65 6 b 83 33 65 24 70 30 l 138 42 b 167 70 157 45 167 55 l 167 902 b 138 931 167 917 157 927 l 83 940 b 65 957 70 942 65 948 "},"F":{"ha":780,"x_min":0,"x_max":0,"o":"m 594 972 b 669 997 633 972 653 997 b 694 971 683 997 689 990 l 750 759 b 737 737 753 747 747 739 b 713 751 727 735 719 738 b 509 936 640 901 592 936 l 320 936 l 320 489 l 488 489 b 584 585 553 489 578 510 b 600 602 586 597 591 601 b 619 586 610 603 617 598 l 673 376 b 663 353 676 363 672 356 b 639 364 654 351 646 354 b 510 453 596 435 572 453 l 320 453 l 320 70 b 354 42 320 54 331 44 l 432 33 b 451 15 445 31 451 26 b 430 0 451 6 444 0 l 86 0 b 65 15 72 0 65 6 b 83 33 65 24 70 30 l 138 42 b 167 70 157 45 167 55 l 167 902 b 138 931 167 917 157 927 l 83 940 b 65 957 70 942 65 948 b 86 972 65 966 72 972 l 594 972 "},"G":{"ha":1005,"x_min":0,"x_max":0,"o":"m 881 8 b 860 -21 881 -13 874 -21 b 761 49 831 -21 791 49 b 524 -20 733 49 671 -20 b 54 478 238 -20 54 188 b 530 991 54 780 254 991 b 753 928 672 991 733 928 b 825 985 781 928 801 985 b 843 966 833 985 839 981 l 906 711 b 894 688 910 699 904 690 b 869 701 883 685 874 690 b 538 954 793 882 680 954 b 210 510 349 954 210 790 b 563 31 210 208 363 31 b 740 134 653 31 740 68 l 740 347 b 705 377 740 365 731 373 l 635 387 b 615 403 622 389 615 394 b 636 418 615 412 622 418 l 949 418 b 971 403 964 418 971 412 b 953 387 971 395 966 391 l 913 378 b 881 347 890 373 881 365 l 881 8 "},"H":{"ha":1088,"x_min":0,"x_max":0,"o":"m 321 70 b 351 42 321 55 331 45 l 406 33 b 423 15 418 30 423 24 b 402 0 423 6 417 0 l 87 0 b 66 15 73 0 66 6 b 83 33 66 24 71 30 l 138 42 b 168 70 158 45 168 55 l 168 902 b 138 931 168 917 158 927 l 83 940 b 66 957 71 942 66 948 b 87 972 66 966 73 972 l 402 972 b 423 957 417 972 423 966 b 406 940 423 948 418 942 l 351 931 b 321 902 331 927 321 917 l 321 478 l 767 478 l 767 902 b 737 931 767 917 756 927 l 683 940 b 665 957 670 942 665 948 b 686 972 665 966 672 972 l 1001 972 b 1022 957 1015 972 1022 966 b 1004 940 1022 948 1017 942 l 950 931 b 920 902 930 927 920 917 l 920 70 b 950 42 920 55 930 45 l 1004 33 b 1022 15 1017 30 1022 24 b 1001 0 1022 6 1015 0 l 686 0 b 665 15 672 0 665 6 b 683 33 665 24 670 30 l 737 42 b 767 70 756 45 767 55 l 767 442 l 321 442 l 321 70 "},"I":{"ha":486,"x_min":0,"x_max":0,"o":"m 320 70 b 350 42 320 55 330 45 l 404 33 b 422 15 417 30 422 24 b 401 0 422 6 415 0 l 86 0 b 65 15 72 0 65 6 b 82 33 65 24 69 30 l 137 42 b 167 70 156 45 167 55 l 167 902 b 137 931 167 917 156 927 l 82 940 b 65 957 69 942 65 948 b 86 972 65 966 72 972 l 401 972 b 422 957 415 972 422 966 b 404 940 422 948 417 942 l 350 931 b 320 902 330 927 320 917 l 320 70 "},"J":{"ha":583,"x_min":0,"x_max":0,"o":"m 481 151 b 250 -18 481 49 390 -18 b 47 128 120 -18 47 42 b 123 211 47 178 75 211 b 187 133 160 211 187 181 l 187 89 b 261 13 187 42 207 13 b 360 112 318 13 360 48 b 265 406 360 200 265 258 l 265 899 b 238 930 265 917 256 927 l 177 939 b 158 956 163 942 158 947 b 179 972 158 966 165 972 l 497 972 b 519 957 512 972 519 967 b 499 940 519 948 513 943 l 446 931 b 417 901 427 926 417 917 l 417 412 b 481 151 417 294 481 246 "},"K":{"ha":997,"x_min":0,"x_max":0,"o":"m 320 70 b 349 42 320 55 330 46 l 401 33 b 419 15 415 28 419 24 b 398 0 419 6 413 0 l 86 0 b 65 15 72 0 65 6 b 83 33 65 24 70 30 l 138 42 b 167 70 157 45 167 55 l 167 902 b 138 931 167 917 157 927 l 83 940 b 65 957 70 942 65 948 b 86 972 65 966 72 972 l 401 972 b 422 957 415 972 422 966 b 405 940 422 948 417 942 l 350 931 b 320 902 331 927 320 917 l 320 401 l 717 833 b 710 932 761 878 756 919 l 665 940 b 649 957 653 944 649 949 b 669 972 649 967 656 972 l 927 972 b 949 957 942 972 949 966 b 925 939 949 949 943 944 b 764 824 883 929 851 911 l 574 620 l 895 87 b 972 35 915 54 935 40 b 997 15 992 31 997 24 b 974 0 997 6 989 0 l 666 0 b 644 16 651 0 644 6 b 661 33 644 25 650 31 l 715 40 b 722 83 734 44 738 56 l 467 506 l 320 349 l 320 70 "},"L":{"ha":804,"x_min":0,"x_max":0,"o":"m 350 931 b 320 902 330 927 320 917 l 320 75 b 372 36 320 47 337 36 l 531 36 b 694 167 605 36 647 63 l 742 274 b 765 289 747 287 755 291 b 778 264 777 287 781 278 l 717 4 b 692 -24 711 -17 704 -24 b 609 0 672 -24 654 0 l 86 0 b 65 15 72 0 65 6 b 82 33 65 24 69 30 l 137 42 b 167 70 156 45 167 55 l 167 902 b 137 931 167 917 156 927 l 82 940 b 65 957 69 942 65 948 b 86 972 65 966 72 972 l 401 972 b 422 957 415 972 422 966 b 404 940 422 948 417 942 "},"M":{"ha":1179,"x_min":0,"x_max":0,"o":"m 307 16 b 285 0 307 6 299 0 l 41 0 b 19 15 26 0 19 6 b 38 33 19 25 27 29 l 83 44 b 139 110 117 54 136 74 l 197 863 b 163 929 201 903 191 924 l 117 938 b 94 956 101 941 94 946 b 119 972 94 966 102 972 l 295 972 b 339 940 317 972 328 965 l 602 299 l 851 937 b 896 972 862 964 873 972 l 1073 972 b 1095 957 1088 972 1095 966 b 1077 940 1095 949 1090 943 l 1024 930 b 993 883 999 924 991 912 l 1052 80 b 1085 42 1054 55 1061 47 l 1135 33 b 1153 16 1148 29 1153 24 b 1131 0 1153 7 1145 0 l 819 0 b 797 15 803 0 797 6 b 815 33 797 24 801 29 l 865 42 b 899 80 892 48 901 57 l 844 803 l 576 104 b 548 76 567 81 559 76 b 517 106 535 76 527 81 l 233 800 l 180 109 b 233 44 177 74 197 56 l 291 31 b 307 16 301 28 307 24 "},"N":{"ha":1010,"x_min":0,"x_max":0,"o":"m 344 15 b 323 0 344 6 338 0 l 72 0 b 51 15 58 0 51 6 b 68 33 51 24 56 28 l 116 46 b 169 111 153 58 169 73 l 169 797 b 147 852 169 818 167 827 l 85 938 b 73 960 76 949 73 954 b 90 972 73 968 80 972 l 226 972 b 263 948 242 972 250 966 l 807 183 l 807 861 b 752 926 807 899 791 915 l 690 940 b 672 957 676 944 672 949 b 694 972 672 966 679 972 l 944 972 b 966 957 959 972 966 966 b 949 940 966 949 962 944 l 901 926 b 847 861 863 915 847 900 l 847 150 b 860 106 847 131 851 118 l 906 43 b 919 14 917 27 919 20 b 900 0 919 6 913 0 l 756 0 b 737 16 743 0 737 6 b 719 53 737 26 735 33 l 210 770 l 210 111 b 264 46 210 74 226 58 l 327 33 b 344 15 340 28 344 24 "},"O":{"ha":1061,"x_min":0,"x_max":0,"o":"m 530 991 b 1007 483 813 991 1007 778 b 529 -20 1007 185 813 -20 b 54 490 248 -20 54 192 b 530 991 54 785 249 991 m 849 386 b 492 950 849 701 691 950 b 213 588 326 950 213 817 b 569 20 213 269 370 20 b 849 386 737 20 849 151 "},"P":{"ha":880,"x_min":0,"x_max":0,"o":"m 847 619 b 499 319 847 436 706 319 b 320 349 432 319 372 328 l 320 70 b 349 42 320 55 329 45 l 419 33 b 437 15 431 31 437 25 b 415 0 437 6 430 0 l 87 0 b 65 15 72 0 65 6 b 83 33 65 24 70 29 l 139 42 b 167 70 158 46 167 56 l 167 901 b 140 931 167 917 158 926 l 82 940 b 65 957 70 942 65 949 b 86 972 65 967 72 972 l 397 972 b 847 619 672 972 847 827 m 320 383 b 459 358 365 365 413 358 b 694 623 598 358 694 458 b 394 937 694 817 575 937 l 320 937 "},"Q":{"ha":1066,"x_min":0,"x_max":0,"o":"m 531 991 b 1009 483 814 991 1009 778 b 716 13 1009 256 896 83 b 923 -86 774 -61 842 -86 b 1027 -53 986 -86 1003 -71 b 1042 -59 1035 -48 1041 -51 b 1036 -81 1043 -64 1042 -72 l 991 -156 b 931 -186 979 -177 963 -186 b 667 -3 829 -186 740 -134 b 530 -20 624 -14 578 -20 b 53 490 246 -20 53 191 b 531 991 53 785 248 991 m 569 250 b 581 276 566 263 569 274 b 603 258 592 279 599 272 b 693 47 631 167 660 98 b 851 386 790 97 851 214 b 492 951 851 702 692 951 b 213 588 326 951 213 818 b 571 19 213 269 370 19 b 650 30 599 19 625 22 b 569 250 621 89 594 161 "},"R":{"ha":940,"x_min":0,"x_max":0,"o":"m 853 640 b 654 385 853 516 777 422 l 845 82 b 919 33 865 51 886 40 b 944 15 940 28 944 24 b 922 0 944 6 937 0 l 648 0 b 627 15 634 0 627 6 b 642 29 627 22 632 26 l 672 34 b 681 78 694 40 697 53 l 510 360 b 499 360 506 360 503 360 b 320 392 428 360 367 371 l 320 73 b 348 42 320 56 329 46 l 411 33 b 428 15 424 29 428 24 b 408 0 428 6 422 0 l 86 0 b 65 15 72 0 65 6 b 82 33 65 24 69 30 l 137 42 b 167 73 157 46 167 56 l 167 902 b 137 931 167 917 156 927 l 82 940 b 65 957 69 942 65 948 b 86 972 65 966 72 972 l 400 972 b 853 640 689 972 853 836 m 320 426 b 469 399 362 407 415 399 b 695 638 608 399 695 482 b 397 938 695 812 576 938 l 320 938 "},"S":{"ha":796,"x_min":0,"x_max":0,"o":"m 438 -19 b 225 49 309 -19 245 49 b 163 -19 203 49 186 -19 b 142 1 153 -19 145 -13 l 89 247 b 100 270 86 258 90 267 b 126 257 110 274 119 269 b 428 18 210 78 317 18 b 598 179 533 18 598 80 b 356 409 599 271 549 340 b 69 719 146 483 69 577 b 371 989 69 881 194 989 b 578 928 499 989 553 928 b 640 990 601 928 615 990 b 661 967 649 990 656 984 l 731 715 b 720 688 734 703 731 692 b 694 701 710 685 701 690 b 381 952 602 891 498 952 b 202 776 275 952 202 884 b 438 539 202 681 252 609 b 727 238 656 458 727 368 b 438 -19 727 96 622 -19 "},"T":{"ha":888,"x_min":0,"x_max":0,"o":"m 708 972 b 781 997 745 972 763 997 b 807 970 794 997 802 990 l 853 739 b 840 713 856 724 851 715 b 815 728 830 711 821 715 b 631 935 745 906 705 935 l 521 935 l 521 70 b 551 42 521 55 531 45 l 605 33 b 622 15 617 30 622 24 b 601 0 622 6 616 0 l 287 0 b 265 15 272 0 265 6 b 283 33 265 24 270 30 l 338 42 b 367 70 357 45 367 55 l 367 935 l 256 935 b 72 728 182 935 142 901 b 47 713 67 715 58 711 b 35 739 37 715 32 724 l 81 970 b 107 997 86 990 93 997 b 176 972 125 997 140 972 "},"U":{"ha":976,"x_min":0,"x_max":0,"o":"m 772 865 b 715 928 770 899 755 919 l 663 939 b 642 957 647 943 642 948 b 663 972 642 966 650 972 l 913 972 b 933 957 926 972 933 966 b 912 939 933 948 928 942 l 866 928 b 814 863 828 919 812 895 l 839 414 b 846 271 842 365 845 319 b 509 -21 849 105 741 -21 b 135 263 258 -21 133 95 b 144 440 135 302 140 381 l 169 899 b 133 931 171 918 159 927 l 83 939 b 62 957 68 942 62 947 b 83 972 62 966 69 972 l 409 972 b 430 957 422 972 430 966 b 409 940 430 948 424 942 l 357 931 b 322 899 333 927 324 919 l 297 443 b 292 274 293 374 292 317 b 540 22 290 105 382 22 b 803 269 703 22 806 117 b 797 411 802 329 799 373 "},"V":{"ha":903,"x_min":0,"x_max":0,"o":"m 637 957 b 658 972 637 966 644 972 l 878 972 b 900 957 893 972 900 967 b 883 941 900 950 895 946 l 852 931 b 790 849 824 922 806 899 l 543 101 b 534 51 537 81 534 67 l 534 19 b 516 0 534 7 528 0 l 389 0 b 370 20 376 0 370 7 l 370 51 b 360 96 370 64 366 76 l 89 897 b 60 931 81 919 74 926 l 26 940 b 9 957 15 944 9 949 b 31 972 9 966 16 972 l 332 972 b 353 957 347 972 353 966 b 335 941 353 949 347 944 l 271 932 b 255 888 249 927 245 916 l 510 126 l 748 850 b 703 933 762 894 753 920 l 654 941 b 637 957 643 944 637 949 "},"W":{"ha":1341,"x_min":0,"x_max":0,"o":"m 1091 957 b 1112 972 1091 966 1098 972 l 1321 972 b 1342 957 1335 972 1342 966 b 1325 941 1342 949 1338 946 l 1297 931 b 1235 851 1269 921 1248 899 l 1024 88 b 1017 49 1019 73 1017 63 l 1017 19 b 999 0 1017 7 1010 0 l 870 0 b 852 19 858 0 852 7 l 852 49 b 846 88 852 62 851 69 l 682 678 l 503 88 b 496 49 499 76 496 65 l 496 19 b 478 0 496 7 490 0 l 353 0 b 335 19 342 0 335 7 l 335 49 b 327 86 335 63 332 69 l 92 901 b 65 933 86 921 79 928 l 26 942 b 11 958 15 945 11 951 b 32 972 11 967 18 972 l 323 972 b 343 957 337 972 343 966 b 328 942 343 950 338 944 l 268 933 b 253 894 249 930 246 919 l 472 124 l 663 749 l 619 901 b 594 933 613 924 608 929 l 557 942 b 541 957 545 946 541 950 b 562 972 541 966 548 972 l 849 972 b 869 957 863 972 869 966 b 852 942 869 949 864 944 l 794 933 b 781 894 776 929 773 919 l 991 122 l 1195 855 b 1148 934 1206 898 1197 922 l 1107 942 b 1091 957 1095 944 1091 949 "},"X":{"ha":942,"x_min":0,"x_max":0,"o":"m 821 94 b 913 33 851 49 870 41 b 933 15 926 29 933 24 b 911 0 933 6 926 0 l 578 0 b 556 15 563 0 556 6 b 585 35 556 24 562 30 b 641 97 654 44 664 62 l 425 432 l 214 126 b 241 39 180 76 190 50 l 285 32 b 302 16 296 28 302 24 b 281 0 302 6 295 0 l 42 0 b 20 16 27 0 20 6 b 42 34 20 24 24 28 b 173 138 106 51 131 76 l 402 468 l 134 883 b 50 940 108 924 88 932 b 28 957 32 944 28 949 b 50 972 28 967 35 972 l 381 972 b 402 957 396 972 402 967 b 385 941 402 949 397 943 l 331 934 b 308 888 297 929 292 914 l 515 567 l 705 845 b 677 933 738 895 726 922 l 633 940 b 617 956 622 942 617 947 b 638 972 617 966 623 972 l 876 972 b 897 957 890 972 897 966 b 872 937 897 949 890 942 b 748 835 813 921 787 892 l 538 532 l 821 94 "},"Y":{"ha":890,"x_min":0,"x_max":0,"o":"m 633 16 b 612 0 633 6 626 0 l 297 0 b 276 15 283 0 276 6 b 293 33 276 24 281 30 l 348 42 b 378 71 368 46 378 55 l 378 342 l 104 899 b 65 934 93 922 83 930 l 36 940 b 18 957 22 944 18 949 b 40 972 18 967 25 972 l 342 972 b 365 957 357 972 365 967 b 344 939 365 947 359 942 l 294 932 b 269 897 264 926 259 918 l 507 397 l 722 847 b 678 933 742 890 729 920 l 639 940 b 623 956 629 942 623 948 b 644 972 623 967 630 972 l 859 972 b 881 957 874 972 881 967 b 863 940 881 949 877 944 l 851 935 b 765 844 814 926 792 901 l 531 353 l 531 71 b 560 42 531 55 541 46 l 615 33 b 633 16 627 29 633 24 "},"Z":{"ha":833,"x_min":0,"x_max":0,"o":"m 216 35 l 527 35 b 733 220 628 35 667 64 l 751 263 b 774 277 756 275 763 279 b 787 253 785 274 790 265 l 740 7 b 715 -20 736 -11 729 -20 b 651 0 698 -20 684 0 l 63 0 b 41 17 47 0 41 6 b 51 43 41 25 44 33 l 603 937 l 311 937 b 138 795 231 937 185 904 l 119 746 b 92 729 113 731 102 727 b 78 756 81 731 75 740 l 120 968 b 147 995 124 987 133 995 b 209 972 164 995 178 972 l 755 972 b 776 955 769 972 776 965 b 766 929 776 949 773 940 "},"a":{"ha":683,"x_min":0,"x_max":0,"o":"m 55 139 b 315 315 55 242 147 315 b 435 295 364 315 403 307 l 435 492 b 328 617 435 573 398 617 b 223 541 257 617 223 581 l 223 490 b 148 422 223 448 193 422 b 87 483 110 422 87 444 b 349 644 87 561 181 644 b 571 463 499 644 571 575 l 571 90 b 603 43 571 57 583 43 b 640 70 624 43 634 55 b 650 78 642 74 645 78 b 659 65 656 78 659 73 b 549 -14 659 33 624 -14 b 443 67 485 -14 447 15 b 242 -15 393 15 319 -15 b 55 139 131 -15 55 47 m 194 160 b 307 40 194 83 240 40 b 435 92 353 40 400 58 l 435 269 b 333 289 404 281 372 289 b 194 160 244 289 194 240 "},"b":{"ha":753,"x_min":0,"x_max":0,"o":"m 228 546 b 437 644 291 612 358 644 b 707 330 592 644 707 517 b 402 -15 707 119 576 -15 b 217 63 325 -15 263 13 l 146 1 b 110 -11 127 -8 120 -11 b 93 8 100 -11 93 -5 l 93 920 b 77 940 93 933 88 940 l 26 942 b 13 954 17 943 13 947 b 30 971 13 962 17 966 l 168 1014 b 206 1024 188 1021 197 1024 b 228 1001 221 1024 228 1015 m 387 591 b 228 506 332 591 278 564 l 228 98 b 376 27 267 53 317 27 b 565 315 482 27 565 119 b 387 591 565 498 490 591 "},"c":{"ha":639,"x_min":0,"x_max":0,"o":"m 603 476 b 532 404 603 435 574 404 b 463 476 489 404 463 431 l 463 506 b 347 610 463 569 419 610 b 172 360 243 610 172 512 b 398 77 172 176 267 77 b 578 197 485 77 551 120 b 595 209 585 206 589 209 b 606 192 603 209 606 201 b 344 -15 588 69 485 -15 b 44 303 170 -15 44 105 b 363 644 44 495 172 644 b 603 476 513 644 603 568 "},"d":{"ha":767,"x_min":0,"x_max":0,"o":"m 47 299 b 351 644 47 513 184 644 b 525 578 422 644 481 620 l 525 920 b 510 940 525 933 521 940 l 459 942 b 445 954 449 943 445 947 b 462 971 445 962 449 966 l 601 1014 b 639 1024 619 1021 629 1024 b 661 1001 653 1024 661 1015 l 661 68 b 684 37 661 49 669 40 l 721 30 b 738 15 732 27 738 22 b 717 0 738 6 731 0 l 574 0 b 528 49 545 0 528 17 l 528 86 b 317 -15 465 18 397 -15 b 47 299 162 -15 47 112 m 188 314 b 367 40 188 133 263 40 b 525 123 422 40 476 67 l 525 531 b 376 602 487 576 435 602 b 188 314 271 602 188 510 "},"e":{"ha":658,"x_min":0,"x_max":0,"o":"m 615 388 b 569 347 615 361 599 347 l 170 347 b 400 72 174 167 266 72 b 585 203 492 72 565 123 b 602 215 592 213 596 215 b 613 198 610 215 614 208 b 347 -15 603 78 494 -15 b 44 302 167 -15 44 110 b 355 644 44 500 165 644 b 615 388 514 644 615 538 m 338 610 b 170 376 240 610 175 523 l 454 376 b 478 397 469 376 478 383 b 338 610 478 535 421 610 "},"f":{"ha":440,"x_min":0,"x_max":0,"o":"m 279 69 b 305 39 279 51 288 41 l 381 30 b 399 15 393 29 399 23 b 380 0 399 6 392 0 l 75 0 b 57 14 65 0 57 6 b 75 30 57 22 63 27 l 118 38 b 144 67 136 42 144 51 l 144 551 b 122 578 144 565 140 573 l 63 591 b 41 610 45 597 41 601 b 58 622 41 617 47 622 l 146 622 l 146 625 b 81 828 146 686 81 735 b 272 1003 81 933 155 1003 b 444 869 383 1003 444 941 b 381 797 444 822 418 797 b 315 868 342 797 315 824 l 315 910 b 251 975 315 952 293 975 b 162 872 195 974 162 937 b 274 624 162 765 274 703 l 274 622 l 405 622 b 424 609 417 622 424 618 b 384 587 424 597 411 587 l 279 587 l 279 69 "},"g":{"ha":719,"x_min":0,"x_max":0,"o":"m 451 27 b 688 -146 633 -7 688 -57 b 353 -341 688 -260 567 -341 b 32 -182 125 -341 32 -273 b 219 -30 32 -114 83 -58 b 138 60 157 -5 138 22 b 244 164 138 103 165 141 b 60 388 131 196 60 283 b 355 644 60 538 178 644 b 488 618 404 644 449 635 b 634 728 526 688 574 728 b 722 649 686 728 722 697 b 667 587 722 611 701 587 b 571 653 618 587 613 653 b 510 608 549 653 532 640 b 635 404 589 565 635 490 b 344 151 635 254 512 151 b 276 156 319 151 297 153 b 247 116 257 145 247 131 b 451 27 247 88 266 67 m 326 611 b 200 403 242 608 191 529 b 367 185 209 269 275 182 b 494 392 453 188 503 265 b 326 611 485 528 420 614 m 133 -152 b 369 -308 133 -244 202 -308 b 572 -191 508 -308 572 -265 b 375 -72 572 -137 532 -103 b 251 -41 324 -61 283 -51 b 133 -152 174 -60 133 -102 "},"h":{"ha":781,"x_min":0,"x_max":0,"o":"m 259 525 b 485 644 356 611 420 644 b 654 454 585 644 639 576 l 701 72 b 728 35 704 51 711 40 l 762 29 b 777 15 772 26 777 22 b 758 0 777 6 771 0 l 506 0 b 486 15 492 0 486 6 b 501 30 486 22 491 26 l 540 37 b 564 72 557 40 567 52 l 519 437 b 409 571 507 527 475 571 b 270 502 367 571 324 549 l 259 492 l 259 68 b 281 37 259 49 266 40 l 318 30 b 333 15 328 27 333 22 b 313 0 333 6 326 0 l 65 0 b 46 15 52 0 46 6 b 63 30 46 22 51 26 l 100 37 b 123 67 115 40 123 49 l 123 920 b 107 940 123 933 119 940 l 57 942 b 42 954 47 943 42 947 b 60 971 42 962 47 966 l 199 1014 b 237 1024 217 1021 227 1024 b 259 1001 251 1024 259 1015 "},"i":{"ha":367,"x_min":0,"x_max":0,"o":"m 183 761 b 93 846 129 761 93 797 b 183 931 93 894 130 931 b 274 846 237 931 274 894 b 183 761 274 797 237 761 m 260 68 b 283 37 260 49 268 40 l 320 30 b 337 15 332 27 337 22 b 317 0 337 6 331 0 l 67 0 b 48 15 54 0 48 6 b 63 29 48 22 52 26 l 102 37 b 125 67 117 40 125 49 l 125 537 b 109 557 125 550 120 556 l 59 558 b 44 571 49 559 44 564 b 62 588 44 578 49 583 l 201 631 b 238 640 220 638 230 640 b 260 617 253 640 260 631 "},"j":{"ha":367,"x_min":0,"x_max":0,"o":"m 180 761 b 90 846 126 761 90 797 b 180 931 90 894 127 931 b 271 846 234 931 271 894 b 180 761 271 797 233 761 m 260 90 b 320 -171 260 -14 320 -82 b 151 -319 320 -259 255 -319 b -23 -191 39 -319 -23 -260 b 43 -117 -23 -142 3 -117 b 108 -190 81 -117 108 -146 l 108 -228 b 166 -292 108 -269 128 -292 b 239 -210 213 -291 239 -262 b 125 67 239 -112 125 -37 l 125 536 b 109 557 125 550 120 556 l 59 558 b 44 571 49 559 44 564 b 62 588 44 578 49 583 l 199 631 b 238 640 219 638 229 640 b 260 616 253 640 260 631 l 260 90 "},"k":{"ha":753,"x_min":0,"x_max":0,"o":"m 63 0 b 46 15 50 0 46 6 b 63 30 46 22 51 26 l 100 37 b 123 67 115 40 123 49 l 123 920 b 107 940 123 933 119 940 l 57 942 b 42 954 47 943 42 947 b 60 971 42 962 47 966 l 199 1014 b 237 1024 217 1021 227 1024 b 259 1001 251 1024 259 1015 l 259 301 l 510 528 b 499 596 545 560 539 588 l 470 601 b 455 615 459 603 455 608 b 475 630 455 624 463 630 l 699 630 b 719 616 712 630 719 624 b 695 598 719 607 714 601 b 554 522 644 588 605 567 l 440 420 l 662 78 b 731 31 683 47 697 38 b 748 13 743 26 748 21 b 729 0 748 5 741 0 l 468 0 b 450 14 457 0 450 5 b 465 28 450 21 454 26 l 494 33 b 505 82 521 38 525 51 l 344 335 l 259 259 l 259 68 b 281 37 259 49 266 40 l 318 30 b 333 15 328 27 333 22 b 313 0 333 6 326 0 l 63 0 "},"l":{"ha":372,"x_min":0,"x_max":0,"o":"m 262 68 b 285 37 262 49 269 40 l 322 30 b 338 15 333 27 338 22 b 318 0 338 6 331 0 l 68 0 b 49 15 55 0 49 6 b 66 30 49 22 54 26 l 103 37 b 126 67 119 40 126 49 l 126 920 b 110 940 126 933 122 940 l 60 942 b 46 954 50 943 46 947 b 63 971 46 962 50 966 l 201 1014 b 240 1024 222 1021 231 1024 b 262 1001 254 1024 262 1015 "},"m":{"ha":1193,"x_min":0,"x_max":0,"o":"m 259 526 b 497 644 358 615 428 644 b 667 521 581 644 644 601 b 894 644 759 610 824 644 b 1066 451 993 644 1051 575 l 1114 71 b 1141 35 1117 49 1124 39 l 1172 29 b 1187 15 1182 26 1187 22 b 1168 0 1187 6 1181 0 l 919 0 b 899 15 906 0 899 6 b 914 30 899 22 904 26 l 951 36 b 976 74 969 40 978 53 l 931 433 b 818 571 919 525 885 571 b 683 503 776 571 734 549 l 673 493 b 676 451 675 480 676 466 l 676 70 b 702 35 676 49 685 40 l 733 29 b 747 15 742 26 747 22 b 727 0 747 6 740 0 l 483 0 b 464 15 470 0 464 6 b 478 30 464 22 469 27 l 515 36 b 541 74 534 40 541 53 l 541 433 b 419 571 541 525 492 571 b 269 502 372 571 324 550 l 259 492 l 259 68 b 282 37 259 49 267 40 l 319 30 b 333 15 328 27 333 22 b 313 0 333 6 326 0 l 65 0 b 46 15 52 0 46 6 b 61 29 46 22 51 26 l 100 37 b 123 67 115 40 123 49 l 123 536 b 107 557 123 549 119 556 l 56 558 b 42 571 47 559 42 564 b 60 588 42 578 47 583 l 199 631 b 237 640 217 638 227 640 b 259 617 251 640 259 631 "},"n":{"ha":782,"x_min":0,"x_max":0,"o":"m 259 525 b 485 644 356 611 420 644 b 654 454 585 644 639 576 l 701 72 b 728 35 704 51 711 40 l 762 29 b 777 15 772 26 777 22 b 758 0 777 6 771 0 l 506 0 b 486 15 492 0 486 6 b 501 30 486 22 491 26 l 540 37 b 564 72 557 40 567 52 l 519 437 b 409 571 507 527 475 571 b 270 502 367 571 324 549 l 259 492 l 259 68 b 281 37 259 49 266 40 l 318 30 b 333 15 328 27 333 22 b 313 0 333 6 326 0 l 65 0 b 46 15 52 0 46 6 b 61 29 46 22 51 26 l 100 37 b 123 67 115 40 123 49 l 123 537 b 107 557 123 550 119 556 l 57 558 b 42 571 47 559 42 564 b 60 588 42 578 47 583 l 199 631 b 237 640 217 638 227 640 b 259 617 251 640 259 631 "},"o":{"ha":747,"x_min":0,"x_max":0,"o":"m 376 644 b 702 313 567 644 702 508 b 370 -15 702 122 565 -15 b 45 314 179 -15 45 120 b 376 644 45 506 180 644 m 417 22 b 557 337 526 35 583 148 b 331 607 531 527 444 620 b 190 292 218 594 165 478 b 417 22 216 105 305 8 "},"p":{"ha":776,"x_min":0,"x_max":0,"o":"m 246 540 b 462 644 307 608 378 644 b 730 330 615 644 730 517 b 427 -15 730 116 595 -15 b 249 56 353 -15 294 9 l 249 -256 b 272 -287 249 -275 256 -285 l 321 -294 b 338 -310 333 -298 338 -302 b 318 -324 338 -319 331 -324 l 58 -324 b 40 -310 46 -324 40 -319 b 57 -294 40 -303 44 -298 l 90 -287 b 113 -257 106 -285 113 -275 l 113 540 b 97 560 113 553 108 559 l 47 561 b 33 574 37 563 33 567 b 50 590 33 581 37 585 l 185 633 b 223 642 204 640 214 642 b 246 619 238 642 246 634 m 408 591 b 249 504 354 591 299 563 l 249 106 b 397 28 288 55 340 28 b 588 313 506 28 588 115 b 408 591 588 501 512 591 "},"q":{"ha":753,"x_min":0,"x_max":0,"o":"m 451 -325 b 431 -310 438 -325 431 -319 b 448 -294 431 -302 437 -297 l 499 -287 b 525 -254 517 -284 525 -274 l 525 80 b 316 -15 469 19 399 -15 b 47 296 160 -15 47 111 b 353 644 47 505 181 644 b 538 566 432 644 494 617 l 608 631 b 642 643 625 640 634 643 b 661 624 654 643 661 637 l 661 -255 b 685 -288 661 -274 669 -285 l 722 -295 b 738 -310 733 -298 738 -303 b 719 -325 738 -319 731 -325 l 451 -325 m 188 318 b 372 40 188 132 262 40 b 525 120 427 40 481 67 l 525 530 b 379 603 489 577 441 603 b 188 318 268 603 188 511 "},"r":{"ha":570,"x_min":0,"x_max":0,"o":"m 258 472 b 434 644 288 585 360 644 b 553 523 510 644 553 599 b 484 433 553 464 524 433 b 422 499 444 433 422 456 l 422 520 b 376 567 421 552 408 567 b 259 348 319 567 259 494 l 259 69 b 286 40 259 52 267 42 l 351 31 b 370 15 364 28 370 24 b 350 0 370 6 363 0 l 65 0 b 46 15 53 0 46 6 b 63 30 46 22 51 27 l 101 37 b 123 67 116 40 123 49 l 123 537 b 108 558 123 550 119 557 l 56 559 b 42 572 47 560 42 565 b 60 588 42 579 47 583 l 198 628 b 237 638 220 637 229 638 b 255 615 248 638 253 631 "},"s":{"ha":590,"x_min":0,"x_max":0,"o":"m 315 18 b 428 118 384 18 428 59 b 275 247 428 176 394 213 b 47 460 100 294 47 363 b 272 645 47 574 131 645 b 414 613 358 645 394 613 b 474 645 434 613 456 645 b 492 628 481 645 488 642 l 538 462 b 531 430 543 445 542 434 b 506 441 520 426 512 430 b 278 613 441 569 368 613 b 150 508 195 613 150 572 b 317 374 150 451 183 410 b 531 165 473 334 531 268 b 322 -15 531 58 446 -15 b 182 25 240 -15 203 25 b 126 -13 163 25 143 -13 b 110 5 119 -13 113 -8 l 78 156 b 85 191 74 178 76 187 b 111 176 96 195 103 190 b 315 18 170 62 242 18 "},"t":{"ha":452,"x_min":0,"x_max":0,"o":"m 42 600 b 22 616 26 603 22 609 b 40 630 22 625 28 630 l 92 630 b 126 649 109 630 119 634 l 202 761 b 230 781 211 774 220 781 b 247 762 240 781 247 774 l 247 630 l 403 630 b 422 617 415 630 422 626 b 381 594 422 604 408 594 l 247 594 l 247 157 b 323 56 247 90 275 56 b 412 117 376 56 389 95 b 424 103 419 119 425 115 b 271 -12 414 36 357 -12 b 113 138 173 -12 113 37 l 113 562 b 91 590 113 577 107 585 "},"u":{"ha":773,"x_min":0,"x_max":0,"o":"m 111 535 b 94 556 111 549 106 555 l 44 557 b 30 570 34 558 30 563 b 47 587 30 578 34 582 l 186 630 b 224 639 206 637 215 639 b 247 616 239 639 247 630 l 247 197 b 368 60 247 104 295 60 b 518 128 414 60 463 81 l 525 135 l 525 535 b 509 556 525 549 520 555 l 458 557 b 444 570 449 558 444 563 b 462 587 444 578 449 582 l 601 630 b 638 639 619 636 629 639 b 660 616 653 639 660 630 l 660 68 b 683 37 660 49 668 40 l 720 30 b 737 15 732 27 737 22 b 717 0 737 6 731 0 l 575 0 b 527 54 546 0 527 19 l 527 103 b 290 -13 429 17 358 -13 b 111 179 184 -13 111 56 "},"v":{"ha":687,"x_min":0,"x_max":0,"o":"m 321 -6 b 288 19 305 -6 294 2 l 81 551 b 44 594 69 580 60 591 l 17 599 b 0 615 4 603 0 608 b 19 630 0 624 8 630 l 297 630 b 316 616 309 630 316 624 b 299 600 316 608 312 603 l 267 594 b 231 529 220 586 215 572 l 394 100 l 553 523 b 517 594 570 569 563 587 l 483 600 b 466 616 471 603 466 608 b 485 630 466 624 474 630 l 673 630 b 692 615 685 630 692 624 b 674 600 692 608 688 603 l 649 595 b 599 531 628 591 616 574 l 401 17 b 369 -6 395 0 383 -6 "},"w":{"ha":1030,"x_min":0,"x_max":0,"o":"m 291 -4 b 258 20 275 -4 265 2 l 77 559 b 42 595 68 585 59 592 l 15 601 b 0 615 3 603 0 608 b 18 630 0 624 7 630 l 285 630 b 305 615 297 630 305 624 b 288 601 305 608 300 603 l 254 595 b 230 534 221 590 216 576 l 366 114 l 499 519 l 485 560 b 453 595 477 585 469 592 l 427 600 b 411 616 415 603 411 608 b 431 630 411 625 419 630 l 688 630 b 707 615 700 630 707 625 b 691 601 707 608 703 602 l 652 594 b 633 540 626 589 622 575 l 771 113 l 899 514 b 870 595 916 568 909 589 l 838 601 b 820 616 825 603 820 608 b 839 630 820 624 827 630 l 1013 630 b 1032 615 1024 630 1032 624 b 1015 600 1032 608 1028 603 l 994 595 b 942 522 972 589 958 569 l 777 19 b 745 -4 771 1 758 -4 l 697 -4 b 665 21 683 -4 670 3 l 519 460 l 371 17 b 340 -4 365 1 353 -4 "},"x":{"ha":676,"x_min":0,"x_max":0,"o":"m 385 364 l 499 524 b 478 594 524 560 517 587 l 447 601 b 431 615 435 603 431 608 b 451 630 431 625 438 630 l 631 630 b 650 615 642 630 650 624 b 631 598 650 608 645 603 b 537 517 589 588 573 569 l 406 336 l 583 87 b 651 31 610 49 627 36 b 666 15 662 27 666 23 b 646 0 666 6 658 0 l 381 0 b 360 15 368 0 360 6 b 375 30 360 22 364 28 l 413 37 b 429 82 443 42 448 55 l 290 280 l 165 103 b 188 38 142 69 149 47 l 215 31 b 232 15 227 28 232 23 b 212 1 232 6 224 1 l 33 1 b 13 16 21 1 13 6 b 32 33 13 24 17 28 b 129 113 71 42 92 62 l 270 308 l 101 551 b 38 597 79 583 62 592 b 20 615 24 601 20 606 b 40 630 20 624 28 630 l 299 630 b 319 615 312 630 319 625 b 306 600 319 608 316 603 l 269 594 b 255 551 243 588 239 574 "},"y":{"ha":699,"x_min":0,"x_max":0,"o":"m 337 -42 l 92 533 b 15 600 74 577 55 593 b -1 615 3 603 -1 608 b 18 630 -1 624 6 630 l 298 630 b 317 615 310 630 317 624 b 300 600 317 607 313 602 l 259 594 b 236 532 224 589 219 572 l 403 120 l 558 516 b 531 593 578 567 570 585 l 495 599 b 478 615 483 602 478 607 b 497 630 478 624 485 630 l 683 630 b 702 615 694 630 702 624 b 685 599 702 608 697 603 b 601 524 640 590 620 573 l 330 -157 b 157 -337 276 -293 240 -337 b 28 -224 78 -337 28 -287 b 87 -154 28 -181 51 -154 b 147 -214 119 -154 137 -178 l 152 -237 b 194 -286 157 -267 172 -286 b 290 -158 226 -286 252 -253 "},"z":{"ha":607,"x_min":0,"x_max":0,"o":"m 189 31 l 373 31 b 515 138 437 31 467 49 l 545 195 b 567 208 552 206 559 209 b 578 186 577 206 581 199 l 538 4 b 519 -17 534 -12 528 -17 b 463 0 506 -17 494 0 l 61 0 b 37 15 43 0 37 5 b 49 44 37 22 40 31 l 415 599 l 231 599 b 111 503 177 599 147 577 l 85 453 b 63 440 80 442 73 438 b 51 463 53 441 49 449 l 85 622 b 105 644 89 639 95 644 b 159 630 117 644 130 630 l 542 630 b 566 615 560 630 566 625 b 553 585 566 608 563 599 "},"&":{"ha":1275,"x_min":0,"x_max":0,"o":"m 888 -22 b 633 76 788 -22 708 8 b 358 -19 566 19 483 -19 b 105 194 197 -19 105 63 b 415 460 105 335 210 438 b 399 597 404 506 399 552 b 647 867 399 752 493 867 b 835 690 758 867 835 794 b 560 453 835 558 731 474 b 665 257 585 388 620 322 b 758 138 699 209 729 169 b 872 326 842 208 872 274 b 844 438 872 377 844 398 b 913 507 844 476 872 507 b 987 410 956 507 987 472 b 774 121 987 303 917 204 b 949 37 833 61 885 37 b 1176 336 1081 37 1176 133 b 996 812 1176 508 1119 678 b 539 1022 876 944 721 1022 b 217 789 324 1022 217 920 b 269 631 217 712 269 697 b 200 565 269 592 240 565 b 108 705 144 565 108 619 b 542 1051 108 914 272 1051 b 1022 833 730 1051 894 972 b 1210 339 1146 699 1210 526 b 888 -22 1210 107 1088 -22 m 523 653 b 553 474 523 593 533 533 b 717 699 653 496 717 568 b 638 839 717 782 688 839 b 523 653 573 839 523 767 m 253 232 b 438 38 253 112 325 38 b 613 96 512 38 565 60 b 540 188 588 122 565 152 b 421 438 483 274 443 357 b 253 232 309 414 253 326 "},"?":{"ha":672,"x_min":0,"x_max":0,"o":"m 273 441 b 310 511 269 474 278 495 l 342 527 b 472 785 438 578 472 655 b 340 973 472 911 420 973 b 208 849 251 973 208 922 l 208 794 b 128 699 208 735 178 699 b 54 787 83 699 54 732 b 344 1005 54 903 178 1005 b 629 767 526 1005 629 917 b 405 496 629 643 561 549 l 364 483 b 326 431 338 474 329 460 l 322 297 b 301 277 318 283 312 277 b 280 297 288 277 282 283 l 273 441 m 297 -12 b 207 83 247 -12 207 31 b 297 177 207 135 247 177 b 389 83 349 177 389 135 b 297 -12 389 31 349 -12 "},"¿":{"ha":654,"x_min":0,"x_max":0,"o":"m 385 810 b 475 715 435 810 475 766 b 385 620 475 663 435 620 b 294 715 333 620 294 663 b 385 810 294 766 333 810 m 410 356 b 372 287 413 324 404 303 l 340 271 b 211 13 244 220 211 143 b 343 -176 211 -113 263 -176 b 474 -51 431 -176 474 -124 l 474 3 b 554 98 474 63 504 98 b 628 11 599 98 628 65 b 339 -207 628 -106 504 -207 b 53 31 156 -207 53 -119 b 277 302 53 155 121 249 l 319 315 b 356 366 344 323 353 337 l 361 500 b 382 521 364 515 371 521 b 403 500 394 521 401 514 l 410 356 "},"!":{"ha":367,"x_min":0,"x_max":0,"o":"m 185 1016 b 269 940 244 1016 269 985 b 263 879 269 922 267 901 l 202 310 b 183 287 199 294 194 287 b 163 310 172 287 167 294 l 104 880 b 97 941 99 903 97 922 b 185 1016 97 985 125 1016 m 181 -10 b 91 85 131 -10 91 33 b 181 179 91 138 131 179 b 272 85 233 179 272 138 b 181 -10 272 33 233 -10 "},"¡":{"ha":361,"x_min":0,"x_max":0,"o":"m 184 806 b 274 710 235 806 274 762 b 184 616 274 658 234 616 b 93 710 132 616 93 658 b 184 806 93 762 133 806 m 181 -221 b 95 -145 122 -221 95 -190 b 103 -84 95 -127 98 -106 l 163 485 b 183 509 166 501 172 509 b 202 485 194 509 199 501 l 261 -85 b 268 -146 267 -108 268 -126 b 181 -221 268 -190 240 -221 "},".":{"ha":293,"x_min":0,"x_max":0,"o":"m 146 -12 b 56 83 96 -12 56 31 b 146 177 56 135 96 177 b 238 83 198 177 238 135 b 146 -12 238 31 198 -12 "},",":{"ha":302,"x_min":0,"x_max":0,"o":"m 155 -1 b 65 85 94 -1 65 35 b 156 176 65 138 103 176 b 254 38 211 176 254 133 b 86 -222 254 -116 177 -197 b 60 -213 71 -225 63 -221 b 83 -191 59 -204 64 -197 b 204 -26 167 -160 204 -92 b 178 -1 204 -10 198 -1 l 155 -1 "},":":{"ha":290,"x_min":0,"x_max":0,"o":"m 144 402 b 54 497 94 402 54 445 b 144 591 54 549 94 591 b 235 497 197 591 235 549 b 144 402 235 445 196 402 m 144 -12 b 54 83 94 -12 54 31 b 144 177 54 135 94 177 b 235 83 197 177 235 135 b 144 -12 235 31 196 -12 "},";":{"ha":303,"x_min":0,"x_max":0,"o":"m 151 400 b 61 495 101 400 61 444 b 151 590 61 547 101 590 b 243 495 203 590 243 547 b 151 400 243 444 203 400 m 149 0 b 60 85 90 0 60 35 b 151 177 60 138 99 177 b 249 38 206 177 249 133 b 81 -222 249 -115 172 -196 b 56 -212 65 -224 57 -220 b 77 -190 54 -203 59 -197 b 199 -26 161 -159 199 -92 b 173 0 199 -10 193 0 l 149 0 "},"…":{"ha":997,"x_min":0,"x_max":0,"o":"m 190 -12 b 100 83 140 -12 100 31 b 190 177 100 135 140 177 b 282 83 242 177 282 135 b 190 -12 282 31 242 -12 m 500 -12 b 410 83 449 -12 410 31 b 500 177 410 135 450 177 b 592 83 552 177 592 135 b 500 -12 592 31 552 -12 m 810 -12 b 719 83 759 -12 719 31 b 810 177 719 135 760 177 b 901 83 861 177 901 135 b 810 -12 901 31 861 -12 "},"“":{"ha":492,"x_min":0,"x_max":0,"o":"m 357 866 b 447 787 416 866 447 834 b 358 701 447 737 408 701 b 260 830 302 701 260 743 b 421 1065 260 962 337 1044 b 444 1056 435 1067 443 1064 b 425 1034 446 1047 442 1040 b 312 890 349 1008 312 940 b 338 866 312 875 318 866 l 357 866 m 121 866 b 210 786 181 866 210 834 b 122 701 210 737 172 701 b 24 830 66 701 24 743 b 185 1064 24 962 101 1044 b 208 1056 199 1067 207 1063 b 189 1033 210 1047 206 1040 b 76 890 113 1007 76 940 b 102 866 76 875 82 866 l 121 866 "},"”":{"ha":506,"x_min":0,"x_max":0,"o":"m 370 885 b 281 964 310 885 281 917 b 369 1049 281 1014 319 1049 b 466 921 425 1049 466 1008 b 306 686 466 789 390 707 b 283 695 292 683 284 687 b 302 717 281 703 285 710 b 415 860 378 743 415 810 b 389 885 415 876 409 885 l 370 885 m 134 884 b 44 964 74 884 44 916 b 133 1049 44 1013 83 1049 b 230 921 189 1049 230 1007 b 70 686 230 788 154 706 b 47 695 56 683 48 687 b 66 717 44 703 49 710 b 179 860 142 743 179 810 b 153 884 179 875 173 884 l 134 884 "},"‘":{"ha":256,"x_min":0,"x_max":0,"o":"m 121 866 b 210 786 181 866 210 834 b 122 701 210 737 172 701 b 24 830 66 701 24 743 b 185 1064 24 962 101 1044 b 208 1055 199 1067 207 1063 b 189 1033 210 1047 206 1040 b 76 890 113 1007 76 940 b 102 866 76 875 82 866 l 121 866 "},"’":{"ha":247,"x_min":0,"x_max":0,"o":"m 107 883 b 17 963 48 883 17 915 b 106 1048 17 1013 56 1048 b 203 919 162 1048 203 1006 b 43 685 203 788 127 706 b 19 694 29 682 22 685 b 39 715 18 702 22 709 b 152 859 115 742 152 809 b 126 883 152 874 146 883 l 107 883 "},"ʼ":{"ha":269,"x_min":0,"x_max":0,"o":"m 134 885 b 44 964 75 885 44 917 b 133 1049 44 1014 83 1049 b 231 921 189 1049 231 1008 b 70 686 231 789 154 707 b 47 695 56 683 49 687 b 66 717 45 703 49 710 b 179 860 142 743 179 810 b 153 885 179 876 173 885 l 134 885 "},"‚":{"ha":290,"x_min":0,"x_max":0,"o":"m 143 1 b 53 80 84 1 53 33 b 142 165 53 130 92 165 b 240 37 198 165 240 124 b 80 -197 240 -95 163 -177 b 56 -189 65 -201 58 -197 b 75 -167 54 -181 58 -174 b 189 -24 151 -140 189 -74 b 162 1 189 -8 182 1 l 143 1 "},"„":{"ha":545,"x_min":0,"x_max":0,"o":"m 379 0 b 290 80 320 0 290 32 b 378 165 290 129 328 165 b 476 36 434 165 476 123 b 315 -198 476 -96 399 -178 b 292 -190 301 -201 294 -198 b 311 -168 290 -181 294 -174 b 424 -24 387 -141 424 -74 b 398 0 424 -9 418 0 l 379 0 m 143 -1 b 53 79 84 -1 53 31 b 142 165 53 129 92 165 b 240 36 198 165 240 123 b 79 -199 240 -96 163 -178 b 56 -190 65 -201 58 -198 b 75 -168 54 -182 58 -174 b 188 -24 151 -142 188 -74 b 162 -1 188 -9 182 -1 l 143 -1 "},"«":{"ha":703,"x_min":0,"x_max":0,"o":"m 71 328 b 102 369 71 340 78 351 b 342 559 195 434 291 512 b 365 565 352 567 360 569 b 364 543 370 560 369 553 b 197 328 328 489 265 413 b 364 111 260 252 328 165 b 365 90 369 101 371 94 b 342 95 360 86 351 88 b 102 286 292 144 190 224 b 71 328 78 304 71 315 m 340 328 b 370 369 340 340 347 351 b 611 559 463 434 560 512 b 634 565 620 567 628 569 b 632 543 639 560 638 553 b 465 328 597 489 534 413 b 632 111 528 252 597 165 b 634 90 638 101 639 94 b 611 95 628 86 620 88 b 371 286 560 144 458 224 b 340 328 347 304 340 315 "},"»":{"ha":703,"x_min":0,"x_max":0,"o":"m 635 333 b 604 292 635 321 628 310 b 363 101 511 227 415 149 b 341 97 354 94 347 92 b 342 117 336 100 337 108 b 509 333 378 172 441 249 b 342 549 446 408 378 496 b 341 571 337 559 335 567 b 363 565 347 575 355 573 b 604 374 415 517 517 437 b 635 333 628 357 635 346 m 367 333 b 335 292 367 321 360 310 b 95 101 243 227 147 149 b 72 97 85 94 78 92 b 74 117 67 100 68 108 b 241 333 109 172 172 249 b 74 549 177 408 110 496 b 72 571 68 559 67 567 b 95 565 78 575 86 573 b 335 374 146 517 249 437 b 367 333 360 357 367 346 "},"‹":{"ha":435,"x_min":0,"x_max":0,"o":"m 68 327 b 99 369 68 340 75 351 b 340 559 192 434 288 511 b 363 564 349 566 357 569 b 361 543 368 560 367 553 b 194 328 326 488 263 413 b 361 111 258 252 325 165 b 363 90 367 101 368 94 b 340 95 357 85 349 88 b 99 286 289 143 187 224 b 68 327 75 303 68 315 "},"›":{"ha":435,"x_min":0,"x_max":0,"o":"m 369 333 b 338 292 369 321 363 309 b 98 101 245 226 149 149 b 75 96 88 94 81 92 b 77 117 70 100 71 108 b 243 333 112 172 175 248 b 77 549 180 408 113 495 b 75 570 71 559 70 567 b 98 565 81 575 89 572 b 338 374 149 517 251 436 b 369 333 363 357 369 345 "},"(":{"ha":453,"x_min":0,"x_max":0,"o":"m 94 424 b 402 1008 94 695 230 922 b 441 1013 423 1018 435 1020 b 423 979 446 1006 442 999 b 217 424 296 860 217 658 b 423 -130 217 191 296 -11 b 441 -164 442 -150 446 -157 b 402 -160 435 -171 423 -169 b 94 424 230 -73 94 154 "},")":{"ha":452,"x_min":0,"x_max":0,"o":"m 357 424 b 49 -160 357 153 222 -74 b 11 -165 28 -170 16 -172 b 28 -131 6 -158 10 -151 b 235 424 156 -12 235 190 b 28 978 235 657 156 859 b 11 1012 10 998 6 1006 b 49 1008 16 1019 28 1017 b 357 424 222 922 357 694 "},"[":{"ha":429,"x_min":0,"x_max":0,"o":"m 232 -111 b 256 -133 232 -127 239 -133 l 399 -133 b 420 -151 413 -133 420 -139 b 399 -167 420 -161 413 -167 l 145 -167 b 115 -135 124 -167 115 -158 l 115 985 b 145 1017 115 1008 124 1017 l 399 1017 b 420 1000 413 1017 420 1010 b 399 983 420 989 413 983 l 256 983 b 232 961 239 983 232 976 "},"]":{"ha":432,"x_min":0,"x_max":0,"o":"m 200 961 b 176 983 200 976 193 983 l 33 983 b 12 1001 19 983 12 989 b 33 1017 12 1010 19 1017 l 287 1017 b 317 985 308 1017 317 1007 l 317 -135 b 287 -167 317 -158 308 -167 l 33 -167 b 12 -151 19 -167 12 -160 b 33 -133 12 -139 19 -133 l 176 -133 b 200 -111 193 -133 200 -127 "},"{":{"ha":502,"x_min":0,"x_max":0,"o":"m 216 425 b 235 410 216 415 223 410 b 387 307 333 410 387 367 b 258 15 387 211 258 128 b 406 -133 258 -74 312 -133 l 442 -133 b 463 -151 456 -133 463 -139 b 440 -167 463 -161 456 -167 l 379 -167 b 134 19 219 -167 134 -90 b 283 328 134 161 283 244 b 207 394 283 367 255 394 b 131 374 176 394 163 374 b 79 425 98 374 79 397 b 131 476 79 452 98 476 b 207 456 163 476 176 456 b 283 521 255 456 283 483 b 134 831 283 605 134 688 b 379 1017 134 940 219 1017 l 440 1017 b 463 1001 456 1017 463 1010 b 442 983 463 989 456 983 l 406 983 b 258 835 311 983 258 924 b 387 542 258 722 387 639 b 235 440 387 482 333 440 b 216 425 223 440 216 435 "},"}":{"ha":502,"x_min":0,"x_max":0,"o":"m 285 425 b 267 440 285 435 279 440 b 115 543 169 440 115 483 b 244 835 115 639 244 722 b 97 983 244 924 190 983 l 60 983 b 39 1001 47 983 39 989 b 62 1017 39 1010 47 1017 l 123 1017 b 368 831 283 1017 368 940 b 219 521 368 688 219 606 b 295 456 219 483 247 456 b 370 476 326 456 338 476 b 423 425 403 476 423 452 b 370 374 423 398 403 374 b 295 394 338 374 326 394 b 219 329 247 394 219 367 b 368 19 219 244 368 162 b 123 -167 368 -90 283 -167 l 62 -167 b 39 -151 47 -167 39 -161 b 60 -133 39 -139 47 -133 l 97 -133 b 244 15 190 -133 244 -74 b 115 307 244 128 115 211 b 267 410 115 367 169 410 b 285 425 279 410 285 415 "},"⟨":{"ha":507,"x_min":0,"x_max":0,"o":"m 482 -162 b 472 -192 490 -179 485 -191 b 444 -170 462 -191 454 -185 l 88 388 b 71 427 76 406 71 415 b 88 465 71 440 76 448 l 444 1023 b 471 1045 455 1039 462 1045 b 479 1014 484 1045 488 1033 l 215 426 "},"⟩":{"ha":507,"x_min":0,"x_max":0,"o":"m 26 1015 b 35 1045 17 1033 22 1044 b 63 1023 45 1044 53 1038 l 419 465 b 436 426 431 447 436 438 b 419 388 436 414 431 405 l 63 -170 b 36 -192 53 -185 45 -192 b 28 -161 23 -192 19 -180 l 292 427 "},"/":{"ha":581,"x_min":0,"x_max":0,"o":"m 313 417 b 97 -172 265 301 150 -42 b 53 -188 88 -190 72 -197 b 35 -144 33 -179 27 -162 b 276 433 85 -22 228 315 b 493 1024 325 552 442 901 b 538 1041 501 1042 518 1050 b 555 997 557 1033 563 1015 b 313 417 501 867 360 532 "},"\\":{"ha":573,"x_min":0,"x_max":0,"o":"m 260 417 b 18 997 213 532 72 867 b 35 1041 10 1015 16 1033 b 80 1024 55 1050 72 1042 b 297 433 131 901 248 552 b 538 -144 345 315 488 -22 b 520 -188 546 -162 540 -179 b 476 -172 501 -197 485 -190 b 260 417 423 -42 308 301 "},"|":{"ha":340,"x_min":0,"x_max":0,"o":"m 150 428 b 135 1004 150 558 135 853 b 170 1045 135 1029 147 1045 b 206 1004 193 1045 206 1029 b 191 428 206 872 191 566 b 206 -147 191 294 206 -7 b 170 -188 206 -172 193 -188 b 135 -147 147 -188 135 -172 b 150 428 135 -4 150 295 "},"¦":{"ha":399,"x_min":0,"x_max":0,"o":"m 213 503 b 194 476 213 484 208 476 b 174 503 181 476 174 485 b 158 1003 174 652 158 874 b 194 1044 158 1028 170 1044 b 229 1003 217 1044 229 1028 b 213 503 229 881 213 655 m 174 353 b 194 381 174 373 180 381 b 213 353 207 381 213 372 b 229 -147 213 205 229 -17 b 193 -187 229 -172 217 -187 b 158 -147 170 -187 158 -172 b 174 353 158 -24 174 202 "},"-":{"ha":465,"x_min":0,"x_max":0,"o":"m 396 422 b 410 399 411 422 416 414 l 399 349 b 373 331 393 335 387 331 l 69 331 b 54 354 53 331 49 340 l 67 403 b 92 422 72 418 78 422 l 396 422 "},"­":{"ha":465,"x_min":0,"x_max":0,"o":"m 396 422 b 410 399 411 422 416 414 l 399 349 b 373 331 393 335 387 331 l 69 331 b 54 354 53 331 49 340 l 67 403 b 92 422 72 418 78 422 l 396 422 "},"–":{"ha":676,"x_min":0,"x_max":0,"o":"m 33 353 b 56 378 33 369 40 378 l 620 378 b 643 353 636 378 643 369 b 620 328 643 337 636 328 l 56 328 b 33 353 40 328 33 337 "},"—":{"ha":1063,"x_min":0,"x_max":0,"o":"m 33 353 b 56 378 33 369 40 378 l 1007 378 b 1030 353 1023 378 1030 369 b 1007 328 1030 337 1023 328 l 56 328 b 33 353 40 328 33 337 "},"_":{"ha":572,"x_min":0,"x_max":0,"o":"m -1 -183 b 22 -156 -1 -165 6 -156 l 549 -156 b 572 -183 565 -156 572 -165 b 549 -208 572 -200 565 -208 l 22 -208 b -1 -183 6 -208 -1 -200 "},"·":{"ha":348,"x_min":0,"x_max":0,"o":"m 174 256 b 83 351 123 256 83 300 b 174 446 83 403 124 446 b 265 351 225 446 265 403 b 174 256 265 300 225 256 "},"•":{"ha":449,"x_min":0,"x_max":0,"o":"m 224 210 b 88 352 148 210 88 274 b 224 494 88 431 149 494 b 361 352 302 494 361 430 b 224 210 361 274 301 210 "},"∙":{"ha":348,"x_min":0,"x_max":0,"o":"m 174 256 b 83 351 123 256 83 300 b 174 446 83 403 124 446 b 265 351 225 446 265 403 b 174 256 265 300 225 256 "},"@":{"ha":1137,"x_min":0,"x_max":0,"o":"m 858 139 b 1044 438 956 139 1044 244 b 582 918 1044 738 841 918 b 83 384 275 918 83 692 b 590 -145 83 67 292 -145 b 1045 66 772 -145 933 -73 b 1072 74 1056 78 1065 79 b 1067 46 1078 68 1077 58 b 589 -176 965 -92 789 -176 b 46 384 278 -176 46 38 b 583 949 46 707 253 949 b 1081 438 862 949 1081 762 b 819 95 1081 227 978 94 b 684 174 743 95 696 122 b 497 94 638 124 569 94 b 321 238 391 94 321 151 b 566 400 321 332 406 400 b 676 383 612 400 646 394 l 676 560 b 577 678 676 636 642 678 b 480 599 511 678 480 640 l 480 558 b 409 494 480 518 449 494 b 351 551 376 494 351 513 b 594 706 351 632 438 706 b 803 535 729 706 803 644 l 803 197 b 858 139 803 158 822 139 m 453 258 b 558 146 453 187 496 146 b 676 196 601 146 644 163 l 676 360 b 580 376 647 369 617 376 b 453 258 501 376 453 331 "},"©":{"ha":1174,"x_min":0,"x_max":0,"o":"m 587 -54 b 55 491 276 -54 55 176 b 587 1031 55 805 276 1031 b 1119 491 897 1031 1119 806 b 587 -54 1119 175 898 -54 m 587 -23 b 1083 491 878 -23 1083 194 b 587 1000 1083 787 878 1000 b 92 491 294 1000 92 788 b 587 -23 92 193 294 -23 m 875 333 b 604 128 862 232 763 128 b 274 483 401 128 274 274 b 603 845 274 693 412 845 b 758 801 698 845 743 801 b 807 835 774 801 793 835 b 822 820 815 835 819 831 l 872 631 b 859 610 874 620 869 612 b 835 626 849 608 840 614 b 625 812 788 764 718 812 b 417 506 503 812 417 689 b 653 203 417 319 510 203 b 831 308 736 203 801 240 b 867 347 854 333 856 347 b 875 333 873 346 876 340 "},"®":{"ha":946,"x_min":0,"x_max":0,"o":"m 471 199 b 49 622 225 199 49 378 b 471 1038 49 864 226 1038 b 897 622 717 1038 897 864 b 471 199 897 378 719 199 m 471 228 b 862 622 698 228 862 395 b 471 1009 862 847 695 1009 b 84 622 247 1009 84 849 b 471 228 84 395 244 228 m 683 704 b 581 574 683 642 644 594 l 665 428 b 705 399 676 411 688 403 b 719 388 715 396 719 393 b 704 376 719 381 713 376 l 541 376 b 526 386 531 376 526 380 b 537 396 526 391 530 394 l 557 400 b 564 428 573 403 574 411 l 494 560 b 408 577 462 560 433 567 l 408 428 b 426 403 408 413 414 406 l 453 398 b 465 387 463 395 465 392 b 451 377 465 381 461 377 l 273 377 b 258 387 263 377 258 381 b 271 398 258 392 262 395 l 296 403 b 313 428 308 407 313 413 l 313 824 b 300 847 313 838 308 845 l 271 853 b 258 865 263 855 258 858 b 274 875 258 871 263 875 l 462 875 b 683 704 601 875 683 802 m 408 599 b 480 585 433 589 458 585 b 586 702 547 585 586 626 b 462 849 586 788 538 849 l 408 849 "},"™":{"ha":1324,"x_min":0,"x_max":0,"o":"m 452 972 b 502 986 477 972 490 986 b 523 967 513 986 519 981 l 553 824 b 542 803 556 813 551 806 b 522 815 533 801 527 806 b 406 945 477 925 449 945 l 344 945 l 344 434 b 365 414 344 422 351 417 l 399 408 b 411 394 408 406 411 401 b 394 383 411 387 406 383 l 180 383 b 163 394 169 383 163 388 b 176 408 163 401 167 406 l 210 414 b 231 434 224 417 231 422 l 231 945 l 168 945 b 53 815 126 945 99 921 b 33 803 48 806 42 801 b 22 824 24 806 19 813 l 52 967 b 72 986 56 981 61 986 b 121 972 85 986 97 972 m 732 395 b 715 383 732 388 727 383 l 563 383 b 546 395 551 383 546 388 b 559 409 546 403 551 406 l 584 415 b 620 455 606 422 618 432 l 656 901 b 636 940 658 924 653 937 l 608 946 b 592 960 597 948 592 952 b 611 972 592 967 598 972 l 735 972 b 767 949 752 972 760 966 l 922 585 l 1071 948 b 1106 972 1079 967 1088 972 l 1228 972 b 1244 960 1240 972 1244 967 b 1233 947 1244 953 1240 949 l 1201 940 b 1181 915 1186 936 1180 930 l 1217 438 b 1238 415 1219 423 1223 418 l 1268 408 b 1280 396 1276 406 1280 402 b 1263 383 1280 388 1274 383 l 1055 383 b 1038 395 1044 383 1038 388 b 1051 408 1038 401 1042 406 l 1081 415 b 1102 438 1098 419 1103 424 l 1072 865 l 904 452 b 882 431 897 435 891 431 b 858 453 872 431 867 434 l 686 865 l 653 455 b 688 415 651 434 661 422 l 722 408 b 732 395 728 406 732 401 "},"*":{"ha":834,"x_min":0,"x_max":0,"o":"m 295 422 b 203 407 269 388 238 382 b 190 499 169 431 164 463 b 405 698 225 547 304 565 b 113 733 246 747 170 715 b 70 815 72 747 57 775 b 153 856 83 854 112 869 b 410 715 210 838 253 768 b 353 1001 408 881 353 942 b 419 1067 353 1045 376 1067 b 483 1001 460 1067 483 1045 b 427 714 483 942 430 881 b 683 856 585 768 626 838 b 767 815 725 869 753 856 b 724 733 780 776 765 747 b 432 697 667 715 592 747 b 647 499 533 565 613 547 b 633 406 673 463 669 432 b 542 422 600 383 568 388 b 418 688 507 471 514 551 b 295 422 323 552 330 471 "},"†":{"ha":722,"x_min":0,"x_max":0,"o":"m 378 -201 b 361 -221 378 -215 373 -221 b 344 -201 349 -221 344 -215 b 291 449 344 217 291 328 b 349 714 291 537 348 583 b 94 661 218 711 160 661 b 32 723 54 661 32 681 b 94 787 32 768 56 787 b 349 735 160 787 218 738 b 297 1011 347 894 297 944 b 360 1067 297 1049 318 1067 b 424 1011 406 1067 424 1047 b 372 735 424 944 375 894 b 630 787 506 738 563 787 b 690 723 667 787 690 768 b 630 661 690 681 669 661 b 372 714 563 661 506 711 b 431 449 374 583 431 538 b 378 -201 431 328 378 217 "},"‡":{"ha":723,"x_min":0,"x_max":0,"o":"m 432 452 b 372 190 432 364 375 318 b 628 242 503 192 563 242 b 690 180 668 242 690 223 b 628 116 690 136 667 116 b 372 169 562 116 503 166 b 426 -106 375 10 426 -39 b 361 -162 426 -141 407 -163 b 297 -106 318 -163 297 -142 b 350 169 297 -40 348 10 b 92 116 216 166 159 116 b 33 180 55 116 33 136 b 92 242 33 223 54 242 b 350 190 158 242 216 193 b 290 452 347 319 290 365 b 349 714 290 540 347 585 b 94 660 218 711 160 660 b 32 723 54 660 32 681 b 94 787 32 767 56 787 b 349 735 160 787 218 738 b 297 1013 347 896 297 947 b 360 1071 297 1051 317 1071 b 426 1013 407 1071 426 1049 b 372 735 426 946 374 896 b 630 787 505 738 563 787 b 690 723 667 787 690 767 b 630 660 690 681 669 660 b 372 714 563 660 506 711 b 432 452 375 585 432 540 "},"'":{"ha":200,"x_min":0,"x_max":0,"o":"m 97 638 b 75 660 86 638 78 645 l 37 981 b 101 1084 26 1047 49 1084 b 163 981 152 1084 174 1048 l 119 660 b 97 638 116 644 108 638 "},"\"":{"ha":413,"x_min":0,"x_max":0,"o":"m 310 638 b 289 660 300 638 291 645 l 250 981 b 315 1084 240 1047 263 1084 b 376 981 366 1084 388 1048 l 332 660 b 310 638 329 644 322 638 m 97 637 b 75 660 86 637 78 644 l 37 981 b 101 1084 26 1047 49 1084 b 163 981 152 1084 174 1047 l 119 660 b 97 637 116 644 108 637 "},"′":{"ha":239,"x_min":0,"x_max":0,"o":"m 52 683 b 38 706 40 683 34 692 l 87 986 b 154 1061 93 1040 117 1061 b 198 959 208 1061 226 1014 l 74 702 b 52 683 67 688 60 683 "},"ʹ":{"ha":239,"x_min":0,"x_max":0,"o":"m 52 683 b 38 706 40 683 34 692 l 87 986 b 154 1061 93 1040 117 1061 b 198 959 208 1061 226 1014 l 74 702 b 52 683 67 688 60 683 "},"ʺ":{"ha":453,"x_min":0,"x_max":0,"o":"m 52 683 b 38 706 40 683 34 692 l 87 986 b 154 1061 93 1040 117 1061 b 198 959 208 1061 226 1014 l 74 702 b 52 683 67 688 60 683 m 271 683 b 256 706 258 683 253 691 l 305 986 b 372 1060 311 1040 336 1060 b 416 959 426 1060 445 1014 l 292 701 b 271 683 285 687 278 683 "},"″":{"ha":453,"x_min":0,"x_max":0,"o":"m 52 683 b 38 706 40 683 34 692 l 87 986 b 154 1061 93 1040 117 1061 b 198 959 208 1061 226 1014 l 74 702 b 52 683 67 688 60 683 m 271 683 b 256 706 258 683 253 691 l 305 986 b 372 1060 311 1040 336 1060 b 416 959 426 1060 445 1014 l 292 701 b 271 683 285 687 278 683 "},"^":{"ha":553,"x_min":0,"x_max":0,"o":"m 492 551 b 458 565 481 546 469 549 l 279 917 l 95 567 b 61 551 83 549 72 547 b 57 583 51 556 49 568 l 238 954 b 280 988 253 982 264 988 b 321 954 295 988 306 982 l 497 581 b 492 551 504 566 502 555 "},"~":{"ha":787,"x_min":0,"x_max":0,"o":"m 554 390 b 233 538 434 390 341 538 b 114 406 165 538 121 490 b 93 388 112 394 103 388 b 74 410 81 388 74 396 b 232 582 74 505 139 582 b 554 434 360 582 448 434 b 672 561 617 434 668 474 b 694 581 675 576 683 581 b 713 558 706 581 713 574 b 554 390 713 456 645 390 "},"+":{"ha":708,"x_min":0,"x_max":0,"o":"m 351 205 b 331 228 339 205 331 215 l 331 453 l 103 453 b 81 474 91 453 81 460 b 103 494 81 486 91 494 l 331 494 l 331 732 b 351 753 331 743 339 753 b 372 732 365 753 372 743 l 372 494 l 607 494 b 628 474 618 494 628 486 b 607 453 628 460 618 453 l 372 453 l 372 227 b 351 205 372 215 364 205 "},"−":{"ha":708,"x_min":0,"x_max":0,"o":"m 81 474 b 103 494 81 486 91 494 l 607 494 b 628 474 618 494 628 486 b 607 453 628 460 618 453 l 103 453 b 81 474 91 453 81 460 "},"±":{"ha":710,"x_min":0,"x_max":0,"o":"m 356 316 b 336 338 344 316 336 326 l 336 563 l 107 563 b 85 584 95 563 85 571 b 108 604 85 597 95 604 l 336 604 l 336 842 b 356 863 336 853 344 863 b 376 842 369 863 376 853 l 376 604 l 612 604 b 633 584 623 604 633 597 b 612 563 633 571 623 563 l 376 563 l 376 338 b 356 316 376 326 369 316 m 82 146 b 105 166 82 158 92 166 l 609 166 b 630 146 620 166 630 158 b 609 125 630 133 620 125 l 104 125 b 82 146 92 125 82 133 "},"÷":{"ha":708,"x_min":0,"x_max":0,"o":"m 365 681 b 305 744 331 681 305 710 b 365 806 305 778 332 806 b 426 744 400 806 426 778 b 365 681 426 710 399 681 m 83 474 b 106 494 83 486 94 494 l 610 494 b 631 474 621 494 631 486 b 610 453 631 460 621 453 l 106 453 b 83 474 94 453 83 460 m 365 181 b 305 243 331 181 305 209 b 365 306 305 278 332 306 b 426 243 400 306 426 278 b 365 181 426 209 400 181 "},"×":{"ha":633,"x_min":0,"x_max":0,"o":"m 97 221 b 97 249 86 230 85 238 l 290 472 l 97 696 b 98 724 86 706 87 715 b 127 722 107 731 117 731 l 316 503 l 506 723 b 536 725 515 732 526 733 b 537 697 547 716 548 708 l 342 472 l 536 248 b 535 222 546 239 545 229 b 504 223 526 213 513 215 l 316 441 l 128 223 b 97 221 119 215 107 213 "},"=":{"ha":708,"x_min":0,"x_max":0,"o":"m 83 590 b 106 610 83 602 94 610 l 610 610 b 631 590 621 610 631 602 b 610 569 631 576 621 569 l 106 569 b 83 590 94 569 83 576 m 83 364 b 106 384 83 376 94 384 l 610 384 b 631 364 621 384 631 376 b 610 343 631 351 621 343 l 106 343 b 83 364 94 343 83 351 "},"<":{"ha":661,"x_min":0,"x_max":0,"o":"m 588 187 b 570 171 588 177 583 171 b 535 183 560 171 550 176 l 82 442 b 56 475 65 450 56 460 b 82 508 56 489 65 499 l 530 765 b 565 777 546 773 555 777 b 583 761 578 777 583 771 b 563 738 583 753 577 745 l 108 475 l 569 210 b 588 187 582 204 588 194 "},">":{"ha":661,"x_min":0,"x_max":0,"o":"m 128 185 b 93 173 113 177 103 173 b 74 189 80 173 74 179 b 95 212 74 197 81 205 l 549 475 l 90 740 b 70 763 76 746 70 756 b 88 779 69 773 75 779 b 122 767 98 779 108 774 l 576 508 b 602 475 594 500 602 490 b 576 442 602 461 594 451 l 128 185 "},"≤":{"ha":713,"x_min":0,"x_max":0,"o":"m 623 269 b 606 253 623 259 618 253 b 571 265 595 253 585 258 l 117 524 b 91 557 99 532 91 543 b 117 590 91 571 99 581 l 565 847 b 600 860 581 855 590 860 b 619 843 613 860 619 853 b 598 820 619 835 612 827 l 144 557 l 603 292 b 623 269 617 286 623 276 m 88 135 b 110 155 88 147 98 155 l 614 155 b 635 135 625 155 635 147 b 614 114 635 122 625 114 l 110 114 b 88 135 98 114 88 122 "},"≥":{"ha":710,"x_min":0,"x_max":0,"o":"m 146 267 b 110 255 131 259 121 255 b 92 271 98 255 92 261 b 113 294 92 278 99 287 l 567 557 l 107 822 b 88 845 94 828 88 838 b 106 861 88 855 93 861 b 140 849 116 861 126 856 l 594 590 b 620 557 611 582 620 572 b 594 524 620 543 611 533 l 146 267 m 88 135 b 110 155 88 147 98 155 l 614 155 b 635 135 625 155 635 147 b 614 114 635 122 625 114 l 110 114 b 88 135 98 114 88 122 "},"≈":{"ha":779,"x_min":0,"x_max":0,"o":"m 557 514 b 235 662 437 514 344 662 b 117 531 168 662 124 614 b 96 512 115 517 106 512 b 76 534 83 512 76 519 b 235 706 76 628 142 706 b 557 558 363 706 451 558 b 675 685 620 558 671 597 b 697 706 678 699 686 706 b 716 682 709 706 716 698 b 557 514 716 579 648 514 m 557 266 b 235 415 437 266 344 415 b 117 283 168 415 124 367 b 96 265 115 270 106 265 b 76 287 83 265 76 272 b 235 458 76 381 142 458 b 557 310 363 458 451 310 b 675 438 620 310 671 350 b 697 458 678 452 686 458 b 716 435 709 458 716 451 b 557 266 716 332 648 266 "},"≠":{"ha":708,"x_min":0,"x_max":0,"o":"m 153 55 b 142 79 142 55 133 65 l 282 343 l 108 343 b 86 364 97 343 86 351 b 108 384 86 376 97 384 l 303 384 l 402 569 l 108 569 b 86 590 97 569 86 576 b 108 610 86 602 97 610 l 424 610 l 559 865 b 587 887 567 878 572 887 b 598 859 599 887 608 875 l 465 610 l 613 610 b 634 590 624 610 634 602 b 613 569 634 576 624 569 l 442 569 l 343 384 l 613 384 b 634 364 624 384 634 376 b 613 343 634 351 624 343 l 322 343 l 178 76 b 153 55 169 61 163 55 "},"¬":{"ha":705,"x_min":0,"x_max":0,"o":"m 81 565 b 105 585 81 577 92 585 l 586 585 b 613 561 602 585 613 577 l 613 347 b 590 328 613 336 605 328 b 567 347 576 328 567 337 l 567 545 l 104 545 b 81 565 92 545 81 552 "},"∕":{"ha":844,"x_min":0,"x_max":0,"o":"m 410 417 b 90 -172 342 301 167 -42 b 43 -188 78 -190 61 -197 b 33 -144 25 -180 22 -162 b 376 432 106 -22 307 315 b 698 1024 447 551 625 901 b 745 1041 710 1042 728 1049 b 755 997 763 1032 767 1015 b 410 417 678 866 478 532 "},"№":{"ha":1516,"x_min":0,"x_max":0,"o":"m 340 15 b 318 0 340 6 333 0 l 67 0 b 47 15 53 0 47 6 b 65 33 47 24 52 28 l 112 46 b 166 111 148 57 166 73 l 166 803 b 148 857 166 827 164 836 l 97 938 b 84 961 89 949 84 955 b 101 972 84 968 90 972 l 227 972 b 265 950 242 972 253 969 l 706 183 l 706 861 b 651 926 706 899 688 916 l 589 940 b 572 957 576 944 572 949 b 593 972 572 966 578 972 l 842 972 b 864 957 858 972 864 966 b 847 940 864 949 860 944 l 799 926 b 745 861 763 915 745 900 l 745 149 b 755 113 745 131 749 122 l 794 43 b 808 14 803 26 808 20 b 789 0 808 6 802 0 l 651 0 b 631 17 638 0 631 6 b 619 52 631 28 629 35 l 206 778 l 206 111 b 259 46 206 73 222 56 l 322 33 b 340 15 335 28 340 24 m 1163 897 b 1453 572 1332 897 1453 763 b 1156 249 1453 382 1330 249 b 865 573 985 249 865 381 b 1163 897 865 761 987 897 m 1201 286 b 1319 595 1291 297 1344 414 b 1119 860 1293 783 1220 872 b 999 551 1025 849 975 732 b 1201 286 1025 367 1103 274 m 920 111 b 941 131 920 123 928 131 l 1375 131 b 1397 111 1388 131 1397 123 b 1375 92 1397 99 1388 92 l 940 92 b 920 111 928 92 920 99 "},"#":{"ha":838,"x_min":0,"x_max":0,"o":"m 431 17 b 403 -3 426 2 417 -6 b 388 29 388 1 383 13 b 479 334 401 78 444 218 b 398 335 445 335 416 335 b 281 333 375 335 331 335 b 197 17 251 218 213 74 b 169 -3 193 2 183 -6 b 154 29 155 1 150 13 b 245 333 167 78 210 217 b 53 330 169 331 89 330 b 26 351 37 330 26 338 b 53 372 26 365 37 372 b 256 367 90 372 176 369 b 291 488 272 419 284 464 b 323 612 298 514 310 559 b 103 608 240 610 143 608 b 76 629 87 608 76 615 b 103 650 76 643 87 650 b 331 645 145 651 246 647 b 408 953 360 760 394 899 b 437 974 413 969 423 976 b 452 942 451 970 456 958 b 367 644 438 890 399 757 b 449 642 401 643 431 642 b 565 644 472 642 515 644 b 642 953 594 760 628 899 b 670 974 647 969 656 976 b 685 942 685 970 690 958 b 601 646 671 890 633 758 b 783 649 673 647 748 649 b 810 628 799 649 810 642 b 783 607 810 615 799 607 b 591 611 747 607 666 609 b 554 480 575 555 561 506 b 524 367 548 457 537 416 b 733 371 603 368 694 371 b 760 350 749 371 760 364 b 732 328 760 336 749 329 b 515 333 692 328 597 331 b 431 17 484 218 446 74 m 321 480 b 290 366 315 457 303 416 b 398 364 336 365 376 364 b 489 366 417 364 451 365 b 524 488 504 418 518 463 b 556 612 531 514 543 559 b 448 614 510 613 470 614 b 358 613 429 614 397 613 b 321 480 342 556 328 507 "},"¤":{"ha":769,"x_min":0,"x_max":0,"o":"m 211 335 b 164 478 181 372 164 422 b 211 620 164 535 181 583 l 94 740 b 93 770 84 749 83 760 b 125 769 102 779 115 778 l 241 651 b 385 699 280 681 329 699 b 530 651 441 699 492 681 l 647 769 b 679 770 657 778 670 779 b 678 740 690 761 688 749 l 560 620 b 607 478 590 583 607 535 b 560 335 607 422 590 373 l 678 215 b 679 185 688 206 690 194 b 647 185 670 176 657 176 l 530 305 b 385 256 491 274 441 256 b 242 304 329 256 280 274 l 125 186 b 93 185 115 177 102 176 b 94 215 83 194 84 207 m 385 291 b 565 478 493 291 565 372 b 385 665 565 585 492 665 b 206 478 278 665 206 585 b 385 291 206 372 278 291 "},"$":{"ha":769,"x_min":0,"x_max":0,"o":"m 416 -63 b 387 -95 416 -84 403 -95 b 358 -63 370 -95 358 -84 b 360 5 358 -44 358 -22 b 63 224 178 13 63 110 b 133 303 63 270 90 303 b 200 231 171 303 200 275 l 200 183 b 361 29 200 101 260 38 b 373 415 365 107 372 224 b 358 419 368 416 363 418 b 75 705 147 491 75 578 b 369 965 75 842 189 953 b 366 1042 367 997 366 1022 b 396 1075 366 1064 378 1075 b 424 1042 412 1075 424 1064 b 422 966 424 1023 423 999 b 703 753 597 960 703 872 b 638 677 703 709 679 677 b 565 745 594 677 565 705 l 565 787 b 420 942 565 873 510 934 b 408 548 415 863 408 742 b 423 542 413 546 418 544 b 706 259 631 473 706 381 b 413 5 706 116 594 14 b 416 -63 415 -24 416 -45 m 200 760 b 382 558 200 674 247 610 b 370 942 381 747 374 863 b 200 760 267 932 200 863 m 577 202 b 399 405 577 292 531 353 b 412 29 401 220 407 105 b 577 202 513 38 577 101 "},"¥":{"ha":894,"x_min":0,"x_max":0,"o":"m 106 346 b 122 359 106 354 112 359 l 374 359 l 308 499 l 121 499 b 106 512 111 499 106 503 b 122 525 106 520 112 525 l 295 525 l 115 899 b 76 934 105 920 95 929 l 48 940 b 29 957 34 944 29 949 b 51 972 29 967 37 972 l 349 972 b 372 957 364 972 372 967 b 351 939 372 947 366 942 l 301 932 b 276 897 269 925 266 917 l 505 405 l 710 847 b 667 933 731 890 718 920 l 628 940 b 613 956 618 942 613 948 b 633 972 613 967 619 972 l 847 972 b 869 957 862 972 869 967 b 851 940 869 949 865 944 l 839 935 b 753 844 802 925 779 901 l 603 525 l 779 525 b 794 512 790 525 794 520 b 779 499 794 503 790 499 l 590 499 l 526 362 l 526 359 l 779 359 b 794 346 790 359 794 354 b 779 333 794 337 790 333 l 526 333 l 526 71 b 556 42 526 56 535 46 l 610 33 b 628 16 622 29 628 24 b 607 0 628 6 622 0 l 296 0 b 275 15 281 0 275 6 b 292 33 275 24 280 29 l 347 42 b 376 71 368 47 376 56 l 376 333 l 121 333 b 106 346 111 333 106 337 "},"€":{"ha":911,"x_min":0,"x_max":0,"o":"m 28 411 b 42 424 28 419 33 424 l 130 424 b 128 478 128 442 128 460 b 131 547 128 502 129 524 l 40 547 b 26 559 31 547 26 551 b 40 572 26 567 31 572 l 134 572 b 585 990 167 824 337 990 b 845 897 700 990 796 944 b 863 860 861 885 867 875 l 828 724 b 810 703 825 711 821 703 b 791 723 798 703 792 710 b 584 958 783 883 713 958 b 292 572 426 958 312 820 l 744 572 b 759 559 754 572 759 567 b 744 547 759 551 754 547 l 291 547 b 290 497 290 530 290 513 b 292 424 290 472 290 447 l 708 424 b 724 411 719 424 724 419 b 708 399 724 403 719 399 l 294 399 b 590 43 319 163 433 43 b 835 235 709 43 794 115 b 863 272 849 260 851 272 b 876 252 872 272 877 265 b 544 -20 858 122 740 -20 b 132 399 308 -20 158 144 l 42 399 b 28 411 33 399 28 403 "},"£":{"ha":815,"x_min":0,"x_max":0,"o":"m 53 59 b 240 221 53 151 123 221 b 252 221 244 221 248 221 b 315 331 294 251 315 289 b 273 441 315 367 297 403 l 107 441 b 92 453 97 441 92 446 b 107 466 92 461 98 466 l 255 468 b 133 723 201 544 133 626 b 460 992 133 884 246 992 b 753 753 661 992 753 881 b 679 658 753 694 726 658 b 601 749 632 658 601 692 l 601 803 b 454 966 601 908 550 966 b 285 746 342 966 285 890 b 363 466 285 655 337 559 l 615 466 b 629 453 624 466 629 461 b 615 441 629 446 624 441 l 369 441 b 376 374 374 419 376 396 b 284 217 376 315 347 257 b 592 126 394 200 494 126 b 737 232 671 126 710 153 b 756 244 740 240 747 244 b 767 226 763 243 768 237 b 570 -15 747 49 676 -15 b 358 124 490 -15 435 19 b 256 185 310 169 287 185 b 198 85 219 185 203 158 b 118 -16 194 10 166 -16 b 53 59 78 -16 53 13 "},"₤":{"ha":817,"x_min":0,"x_max":0,"o":"m 53 59 b 240 219 53 150 123 219 b 253 219 244 219 249 219 b 318 331 297 249 319 288 b 311 372 318 345 315 358 l 105 372 b 90 384 95 372 90 376 b 105 397 90 392 96 397 l 301 397 b 225 515 284 435 254 474 l 106 515 b 90 526 96 515 90 519 b 106 540 90 535 96 539 l 207 540 b 133 731 167 598 133 660 b 460 992 133 888 246 992 b 753 760 660 992 753 884 b 678 667 753 702 726 667 b 601 755 632 667 601 699 l 601 804 b 454 966 601 908 550 966 b 285 751 343 966 285 892 b 342 540 285 681 315 610 l 612 540 b 626 527 622 540 626 535 b 612 515 626 519 622 515 l 351 515 b 381 397 366 475 378 435 l 612 397 b 626 384 622 397 626 392 b 612 372 626 376 622 372 l 383 372 b 284 215 382 313 350 256 b 592 124 394 198 494 124 b 737 230 671 124 710 151 b 756 242 740 238 747 242 b 767 225 763 241 768 235 b 570 -15 747 48 676 -15 b 360 124 490 -15 435 21 b 256 185 311 169 288 185 b 199 85 221 185 203 158 b 118 -16 194 10 167 -16 b 53 59 78 -16 53 13 "},"₡":{"ha":838,"x_min":0,"x_max":0,"o":"m 256 -74 b 247 -55 248 -72 244 -65 l 274 39 b 58 478 136 114 58 272 b 513 980 58 777 237 980 b 529 979 518 980 524 979 l 546 1043 b 564 1054 548 1052 555 1056 b 573 1036 572 1052 576 1045 l 556 977 b 642 959 587 974 615 967 l 661 1033 b 679 1044 663 1042 670 1047 b 688 1026 688 1042 691 1035 l 667 950 b 776 883 713 932 750 907 b 794 844 792 870 799 860 l 760 708 b 742 688 756 696 753 688 b 722 708 730 688 724 695 b 653 901 717 799 694 863 l 426 66 b 517 51 454 56 485 51 b 763 246 638 51 722 124 b 790 282 775 270 778 282 b 803 262 799 282 803 274 b 477 -10 788 133 667 -10 b 408 -5 453 -10 430 -8 l 390 -73 b 372 -84 388 -82 380 -87 b 363 -65 363 -82 360 -75 l 381 0 b 298 27 351 6 324 15 l 274 -62 b 256 -74 272 -72 265 -76 m 215 497 b 306 155 215 343 248 229 l 521 949 b 511 949 518 949 515 949 b 215 497 336 949 215 786 m 326 131 b 402 76 349 107 374 89 l 631 919 b 547 947 608 934 580 943 l 326 131 "},"₵":{"ha":840,"x_min":0,"x_max":0,"o":"m 508 492 b 517 60 508 321 513 165 b 764 259 642 63 738 141 b 783 277 768 272 775 277 b 797 256 793 277 799 269 b 519 4 784 140 685 22 b 521 -58 520 -24 521 -45 b 493 -86 521 -76 509 -86 b 467 -57 478 -86 467 -77 b 468 1 467 -44 467 -25 b 56 472 210 5 56 185 b 468 972 56 759 220 960 b 467 1034 467 1000 467 1022 b 494 1063 467 1053 478 1063 b 521 1033 509 1063 521 1053 b 519 972 521 1021 520 1000 b 695 915 634 965 678 915 b 774 967 718 915 749 967 b 792 947 786 967 792 960 l 792 694 b 774 672 792 681 787 672 b 749 701 759 672 751 681 b 518 943 737 857 641 935 b 508 492 514 842 507 677 m 210 505 b 470 63 210 226 315 83 b 480 492 474 167 481 322 b 469 942 480 676 473 841 b 210 505 318 926 210 777 "},"₲":{"ha":934,"x_min":0,"x_max":0,"o":"m 510 486 b 520 38 510 305 516 141 b 699 178 630 44 699 94 l 699 391 b 733 430 699 414 710 430 l 894 430 b 917 415 910 430 917 424 b 899 399 917 407 913 402 l 851 390 b 822 358 832 385 822 376 l 822 24 b 799 -1 822 7 815 -1 b 703 87 772 -1 726 87 b 522 4 687 87 652 18 b 523 -57 522 -24 523 -44 b 495 -86 523 -76 511 -86 b 469 -56 481 -86 469 -76 b 470 1 469 -44 469 -25 b 57 474 216 3 57 192 b 470 972 57 762 222 960 b 469 1030 469 998 469 1018 b 497 1059 469 1049 481 1059 b 523 1029 511 1059 523 1049 b 522 972 523 1017 522 998 b 708 915 644 965 690 915 b 788 967 732 915 763 967 b 807 947 800 967 807 960 l 807 694 b 789 672 807 681 801 671 b 763 701 774 672 767 681 b 520 942 747 860 651 935 b 510 486 516 842 509 674 m 213 498 b 472 40 213 219 324 58 b 482 486 476 142 482 306 b 472 942 482 674 475 840 b 213 498 314 924 213 761 "},"₣":{"ha":769,"x_min":0,"x_max":0,"o":"m 56 336 b 69 349 56 344 61 349 l 169 349 l 169 902 b 140 931 169 919 158 927 l 85 940 b 67 957 72 943 67 948 b 88 972 67 966 74 972 l 580 972 b 655 997 619 972 638 997 b 680 971 668 997 674 990 l 734 762 b 721 740 738 749 731 742 b 697 753 711 738 703 741 b 500 936 631 900 581 936 l 319 936 l 319 541 l 622 541 b 641 524 635 541 641 535 b 624 507 641 512 635 507 l 319 507 l 319 349 l 628 349 b 643 336 638 349 643 344 b 628 323 643 328 638 323 l 319 323 l 319 70 b 353 42 319 53 331 45 l 433 32 b 450 15 445 29 450 24 b 429 0 450 6 444 0 l 88 0 b 67 15 74 0 67 6 b 85 33 67 24 72 29 l 140 42 b 169 70 158 45 169 53 l 169 323 l 69 323 b 56 336 60 323 56 328 "},"₭":{"ha":951,"x_min":0,"x_max":0,"o":"m 316 70 b 345 40 316 53 326 44 l 397 33 b 415 15 410 29 415 24 b 394 0 415 6 408 0 l 86 0 b 65 15 72 0 65 6 b 82 33 65 24 70 29 l 137 42 b 167 70 156 45 167 53 l 167 487 l 81 486 b 68 500 73 486 68 492 b 81 514 68 508 74 514 l 167 514 l 167 902 b 137 931 167 919 156 927 l 82 940 b 65 957 70 943 65 948 b 86 972 65 966 72 972 l 397 972 b 418 957 412 972 418 966 b 401 940 418 948 413 943 l 346 931 b 316 902 327 927 316 919 l 316 505 l 667 839 b 658 933 708 879 702 920 l 608 940 b 592 956 597 943 592 948 b 613 972 592 967 599 972 l 876 972 b 897 957 890 972 897 967 b 873 938 897 948 890 943 b 712 831 819 925 790 907 l 380 516 l 828 516 b 841 502 836 516 841 511 b 827 489 841 494 835 489 l 470 489 l 843 81 b 917 35 866 54 887 40 b 941 16 937 30 941 24 b 919 0 941 6 934 0 l 620 0 b 598 16 606 0 598 6 b 615 33 598 24 603 29 l 669 42 b 674 81 686 46 692 60 l 316 477 l 316 70 "},"₦":{"ha":994,"x_min":0,"x_max":0,"o":"m 351 15 b 329 0 351 6 344 0 l 78 0 b 57 15 64 0 57 6 b 74 33 57 24 62 28 l 122 46 b 176 111 158 57 176 73 l 176 326 l 63 326 b 50 339 55 326 50 331 b 64 351 50 347 56 351 l 176 351 l 176 600 l 65 600 b 51 613 56 600 51 606 b 65 625 51 620 56 625 l 176 625 l 176 797 b 153 851 176 818 172 827 l 94 938 b 81 961 86 949 81 954 b 98 972 81 968 87 972 l 229 972 b 267 950 244 972 253 968 l 481 625 l 776 625 l 776 861 b 722 926 776 899 758 916 l 659 940 b 642 957 646 944 642 949 b 663 972 642 966 649 972 l 914 972 b 935 957 928 972 935 966 b 918 940 935 949 931 944 l 870 926 b 817 861 834 915 817 900 l 817 625 l 931 625 b 944 613 939 625 944 620 b 930 600 944 606 938 600 l 817 600 l 817 351 l 930 351 b 944 339 939 351 944 347 b 930 326 944 331 939 326 l 817 326 l 817 150 b 830 106 817 131 822 118 l 871 43 b 885 14 881 27 885 20 b 865 0 885 6 878 0 l 731 0 b 710 17 717 0 710 6 b 692 52 710 26 706 33 l 511 326 l 216 326 l 216 111 b 270 46 216 73 233 56 l 333 33 b 351 15 347 28 351 24 m 495 351 l 216 774 l 216 351 m 776 178 l 776 600 l 497 600 "},"₽":{"ha":813,"x_min":0,"x_max":0,"o":"m 60 253 b 76 266 60 261 67 266 l 173 266 l 173 416 l 78 416 b 63 429 68 416 63 421 b 78 442 63 437 69 442 l 173 442 l 173 901 b 145 931 173 917 163 926 l 88 940 b 71 956 76 943 71 949 b 92 972 71 967 78 972 l 410 972 b 785 670 652 972 785 844 b 451 415 785 513 658 415 l 324 415 l 324 266 l 485 266 b 501 253 496 266 501 261 b 485 240 501 245 496 240 l 324 240 l 324 70 b 353 42 324 54 335 45 l 423 32 b 440 15 435 29 440 24 b 419 0 440 6 433 0 l 92 0 b 71 16 78 0 71 6 b 88 33 71 24 76 29 l 144 42 b 173 70 163 46 173 55 l 173 240 l 76 240 b 60 253 67 240 60 245 m 324 942 l 324 442 l 429 442 b 647 673 556 442 647 525 b 408 942 647 840 560 942 "},"₱":{"ha":935,"x_min":0,"x_max":0,"o":"m 65 545 b 80 558 65 553 71 558 l 175 557 l 175 708 l 79 707 b 65 720 71 707 65 712 b 80 733 65 727 71 733 l 175 731 l 175 901 b 148 931 175 917 165 926 l 90 940 b 74 956 78 943 74 949 b 94 972 74 967 80 972 l 397 972 b 803 731 606 972 753 878 l 901 733 b 916 720 911 733 916 727 b 901 707 916 712 911 707 l 810 708 b 822 613 818 678 822 647 b 818 558 822 594 821 575 l 901 558 b 916 545 911 558 916 553 b 901 533 916 538 911 533 l 813 533 b 493 306 781 393 659 306 b 325 337 430 306 374 317 l 325 70 b 353 42 325 54 335 45 l 423 32 b 440 15 435 29 440 24 b 419 0 440 6 433 0 l 94 0 b 74 16 80 0 74 6 b 90 33 74 24 78 29 l 147 42 b 175 70 165 46 175 55 l 175 533 l 79 533 b 65 545 71 533 65 538 m 325 731 l 662 731 b 395 941 627 863 528 941 l 325 941 m 676 617 b 667 709 676 649 673 681 l 325 709 l 325 556 l 672 556 b 676 617 674 576 676 596 m 453 341 b 668 535 561 341 643 413 l 325 535 l 325 367 b 453 341 365 349 409 341 "},"₹":{"ha":717,"x_min":0,"x_max":0,"o":"m 73 756 b 88 769 73 763 79 769 l 388 769 b 223 946 369 872 306 940 l 87 946 b 73 959 78 946 73 951 b 88 972 73 967 78 972 l 663 972 b 678 959 673 972 678 967 b 663 946 678 951 673 946 l 368 946 b 544 769 457 915 521 852 l 663 769 b 677 756 672 769 677 763 b 663 743 677 748 672 743 l 550 743 b 553 697 552 728 553 713 b 272 451 553 553 442 457 l 591 43 b 605 17 599 34 605 27 b 585 0 605 6 598 0 l 463 0 b 422 19 444 0 432 7 l 104 431 b 88 460 93 444 88 451 b 109 477 88 469 97 477 b 174 476 132 477 151 476 b 394 700 313 476 394 554 b 392 743 394 715 393 729 l 88 743 b 73 756 78 743 73 748 "},"₺":{"ha":862,"x_min":0,"x_max":0,"o":"m 68 290 b 74 309 65 297 67 304 l 191 385 l 191 534 l 78 461 b 59 465 71 456 64 458 b 65 483 56 472 58 479 l 191 565 l 191 949 b 213 973 191 963 199 973 l 324 973 b 344 949 339 973 344 963 l 344 666 l 585 824 b 605 819 593 828 601 826 b 599 801 609 813 607 806 l 344 635 l 344 485 l 585 642 b 605 639 592 647 601 645 b 599 621 608 632 606 625 l 344 454 l 344 58 b 371 33 344 42 354 33 b 685 445 547 33 685 169 b 707 470 685 460 694 470 l 813 470 b 831 446 824 470 831 463 b 359 0 831 174 627 0 l 223 0 b 191 37 201 0 191 14 l 191 353 l 88 286 b 68 290 80 282 73 283 "},"₩":{"ha":1267,"x_min":0,"x_max":0,"o":"m 1213 342 b 1199 328 1213 334 1208 328 l 1031 328 l 964 24 b 937 0 960 8 951 0 l 858 0 b 826 22 840 0 830 8 l 758 325 l 516 325 l 440 24 b 411 0 437 10 427 0 l 341 0 b 313 24 327 0 317 8 l 244 328 l 74 328 b 60 342 65 328 60 334 b 74 354 60 349 65 354 l 238 354 l 181 608 l 55 608 b 41 622 46 608 41 614 b 55 634 41 629 46 634 l 175 634 l 115 901 b 88 933 110 921 102 928 l 49 942 b 34 957 40 944 34 950 b 54 972 34 966 41 972 l 338 972 b 358 957 351 972 358 966 b 342 942 358 950 351 944 l 282 933 b 268 894 264 929 263 918 l 324 636 l 556 636 l 631 932 b 661 962 636 952 644 962 l 723 962 b 753 933 738 962 748 952 l 824 636 l 1058 636 l 1106 855 b 1059 934 1114 897 1107 922 l 1017 942 b 1001 957 1008 944 1001 949 b 1023 972 1001 966 1009 972 l 1230 972 b 1251 957 1244 972 1251 966 b 1234 941 1251 949 1245 945 l 1206 931 b 1145 851 1178 921 1155 899 l 1098 636 l 1219 636 b 1232 623 1228 636 1232 631 b 1218 610 1232 615 1227 610 l 1092 610 l 1036 354 l 1199 354 b 1213 342 1208 354 1213 349 m 751 351 l 643 828 l 523 351 m 947 113 l 1053 610 l 830 610 m 431 142 l 549 610 l 330 610 "},"₼":{"ha":988,"x_min":0,"x_max":0,"o":"m 493 112 b 478 126 484 112 478 117 l 478 917 b 231 272 323 906 231 721 l 231 22 b 208 0 231 6 222 0 l 102 0 b 81 22 88 0 81 10 l 81 233 b 478 949 81 696 232 939 l 478 1063 b 493 1078 478 1073 484 1078 b 508 1063 502 1078 508 1073 l 508 949 b 906 233 750 940 906 697 l 906 20 b 888 0 906 8 898 0 l 779 0 b 758 20 763 0 758 6 l 758 272 b 508 917 758 720 662 906 l 508 126 b 493 112 508 116 502 112 "},"₧":{"ha":1138,"x_min":0,"x_max":0,"o":"m 744 594 b 455 329 731 432 617 329 b 313 355 401 329 354 338 l 313 70 b 341 42 313 54 322 45 l 410 32 b 428 15 422 29 428 24 b 406 0 428 6 421 0 l 85 0 b 65 16 71 0 65 6 b 81 33 65 24 69 29 l 138 42 b 166 70 156 46 166 55 l 166 901 b 139 931 166 917 156 926 l 81 940 b 65 956 69 943 65 949 b 85 972 65 967 71 972 l 372 972 b 745 626 601 972 745 830 l 785 626 b 819 644 803 626 813 631 l 893 754 b 917 772 899 765 908 772 b 933 753 926 772 933 765 l 933 626 l 1082 626 b 1101 613 1094 626 1101 622 b 1061 592 1101 601 1088 592 l 933 592 l 933 154 b 1006 53 933 87 960 53 b 1090 109 1054 53 1072 83 b 1101 99 1096 112 1102 108 b 958 -13 1090 32 1039 -13 b 808 135 865 -13 808 35 l 808 565 b 781 592 808 580 802 592 m 313 388 b 415 367 345 374 379 367 b 606 629 527 367 606 466 b 370 937 606 819 513 937 l 313 937 "},"¢":{"ha":637,"x_min":0,"x_max":0,"o":"m 351 331 b 357 80 351 256 354 161 b 392 77 368 78 381 77 b 576 201 483 77 551 123 b 591 211 581 208 585 211 b 601 197 599 210 602 205 b 360 -6 583 80 489 1 b 362 -87 360 -43 362 -72 b 340 -112 362 -103 353 -112 b 319 -87 328 -112 319 -104 b 322 -6 319 -72 320 -43 b 44 303 159 3 44 116 b 322 635 44 478 154 615 b 319 719 320 674 319 704 b 341 743 319 735 328 743 b 362 718 353 743 362 735 b 359 637 362 704 360 675 l 362 637 b 602 467 513 637 602 560 b 537 396 602 426 576 396 b 470 472 496 396 470 424 l 470 506 b 358 609 470 566 428 606 b 351 331 356 525 351 413 m 170 358 b 324 88 170 210 233 117 b 329 331 327 167 329 258 b 323 607 329 411 326 523 b 170 358 231 591 170 496 "},"₫":{"ha":776,"x_min":0,"x_max":0,"o":"m 346 816 b 360 831 346 825 352 831 l 528 831 l 528 972 b 548 1000 528 987 535 996 l 622 1023 b 648 1028 634 1027 640 1028 b 663 1013 658 1028 663 1022 l 663 831 l 742 831 b 756 817 751 831 756 825 b 742 802 756 808 751 802 l 663 802 l 663 68 b 686 37 663 50 671 40 l 723 30 b 739 14 734 27 739 22 b 719 0 739 6 731 0 l 573 0 b 531 41 547 0 531 13 l 529 83 b 321 -15 467 17 399 -15 b 51 299 165 -15 51 111 b 355 644 51 513 188 644 b 528 576 426 644 485 619 l 528 802 l 360 802 b 346 816 351 802 346 808 m 190 314 b 372 38 190 131 267 38 b 528 118 426 38 481 63 l 528 531 b 381 601 491 576 440 601 b 190 314 274 601 190 510 m 92 -142 b 108 -128 92 -133 98 -128 l 709 -128 b 725 -142 719 -128 725 -133 b 709 -156 725 -151 719 -156 l 107 -156 b 92 -142 97 -156 92 -151 "},"ƒ":{"ha":563,"x_min":0,"x_max":0,"o":"m 340 622 l 488 622 b 508 605 501 622 508 617 b 483 588 508 595 497 588 l 337 588 l 278 -59 b 65 -338 259 -269 182 -338 b -78 -215 -30 -338 -78 -284 b -8 -132 -78 -165 -50 -132 b 38 -160 14 -132 29 -143 b 49 -234 47 -181 46 -205 b 106 -301 54 -281 72 -301 b 204 -153 160 -301 206 -252 b 137 46 203 -79 128 -47 l 181 547 b 156 579 183 567 175 574 l 87 594 b 71 609 76 597 71 602 b 90 622 71 617 78 622 l 190 622 l 206 749 b 443 1013 226 922 310 1013 b 592 892 538 1013 592 963 b 522 813 592 841 565 813 b 471 849 499 813 479 827 b 467 921 465 872 469 891 b 406 981 463 960 443 981 b 287 830 345 981 298 933 b 340 622 281 749 346 688 "},"⁒":{"ha":691,"x_min":0,"x_max":0,"o":"m 359 485 b 147 10 321 402 187 97 b 113 -6 139 -5 127 -12 b 103 28 99 1 96 13 b 332 497 141 110 293 412 b 538 962 370 578 499 880 b 571 977 544 976 557 983 b 581 943 585 971 588 958 b 359 485 541 857 397 566 m 192 794 b 113 878 148 794 113 833 b 192 961 113 924 149 961 b 272 878 238 961 272 924 b 192 794 272 833 238 794 m 506 13 b 426 96 461 13 426 51 b 506 179 426 142 461 179 b 585 96 551 179 585 142 b 506 13 585 51 551 13 "},"%":{"ha":930,"x_min":0,"x_max":0,"o":"m 258 989 b 468 742 385 989 468 894 b 256 488 468 581 381 488 b 42 740 120 488 42 581 b 258 989 42 890 123 989 m 508 528 b 486 520 501 518 494 515 b 483 544 478 525 478 533 b 728 967 516 601 699 918 b 775 981 740 985 758 991 b 783 936 792 971 794 953 b 508 528 757 893 547 585 m 360 737 b 256 963 360 898 322 963 b 149 745 188 963 149 892 b 257 515 149 579 189 515 b 360 737 318 515 360 572 m 677 485 b 888 239 805 485 888 390 b 676 -16 888 77 800 -16 b 462 236 540 -16 462 76 b 677 485 462 386 542 485 m 781 233 b 676 458 781 394 742 458 b 569 242 608 458 569 388 b 676 10 569 75 608 10 b 781 233 738 10 781 68 m 424 444 b 447 453 431 454 438 457 b 448 428 455 448 455 440 b 203 2 417 372 233 51 b 156 -11 192 -15 174 -21 b 149 34 140 -1 137 16 b 424 444 175 78 385 388 "},"‰":{"ha":1258,"x_min":0,"x_max":0,"o":"m 235 989 b 419 755 347 989 419 899 b 233 513 419 603 346 513 b 45 752 115 513 45 601 b 235 989 45 895 116 989 m 461 528 b 438 520 453 518 447 515 b 436 544 431 525 430 533 b 681 967 469 601 651 918 b 728 981 692 985 710 991 b 735 936 744 971 747 953 b 461 528 709 893 500 585 m 322 750 b 233 963 322 902 289 963 b 144 757 177 963 144 896 b 233 539 144 599 176 539 b 322 750 286 539 322 597 m 610 459 b 795 225 723 459 795 369 b 608 -17 795 74 722 -17 b 422 222 491 -17 422 70 b 610 459 422 365 492 459 m 1032 459 b 1217 225 1144 459 1217 369 b 1030 -17 1217 74 1144 -17 b 843 222 913 -17 843 70 b 1032 459 843 365 913 459 m 376 444 b 399 453 383 454 391 457 b 401 428 408 448 407 440 b 155 2 369 372 185 51 b 109 -11 144 -15 126 -21 b 101 34 92 -1 90 16 b 376 444 128 78 338 388 m 697 220 b 610 433 697 372 665 433 b 519 227 553 433 519 366 b 608 9 519 69 553 9 b 697 220 663 9 697 67 m 1119 220 b 1031 433 1119 372 1086 433 b 941 227 974 433 941 366 b 1031 9 941 69 974 9 b 1119 220 1084 9 1119 67 "},"°":{"ha":498,"x_min":0,"x_max":0,"o":"m 249 988 b 436 796 359 988 436 907 b 249 608 436 686 357 608 b 63 797 140 608 63 688 b 249 988 63 904 137 988 m 249 953 b 106 797 163 953 106 884 b 249 644 106 708 165 644 b 392 796 332 644 392 707 b 249 953 392 885 334 953 "},"ª":{"ha":681,"x_min":0,"x_max":0,"o":"m 116 843 b 353 988 116 914 201 988 b 547 824 483 988 547 927 l 547 515 b 577 471 547 484 558 471 b 615 499 603 471 606 499 b 626 488 622 499 626 494 b 526 423 626 463 594 423 b 431 494 471 423 435 448 b 253 422 386 449 322 422 b 85 557 154 422 85 476 b 324 710 85 647 169 710 b 426 693 364 710 397 703 l 426 856 b 331 964 426 923 393 964 b 237 892 267 964 237 927 l 237 849 b 169 789 237 813 210 789 b 116 843 137 789 116 808 m 209 576 b 311 471 209 509 251 471 b 426 518 353 471 394 488 l 426 670 b 336 688 399 680 370 688 b 209 576 256 688 209 644 "},"º":{"ha":706,"x_min":0,"x_max":0,"o":"m 353 987 b 636 705 519 987 636 873 b 344 422 636 539 517 422 b 63 702 178 422 63 535 b 353 987 63 867 181 987 m 387 453 b 506 724 479 464 529 565 b 312 955 483 884 405 967 b 193 683 218 943 170 842 b 387 453 216 525 294 442 "},"§":{"ha":740,"x_min":0,"x_max":0,"o":"m 221 -217 b 165 -267 200 -217 188 -267 b 146 -249 155 -267 149 -262 l 95 -47 b 105 -25 92 -35 96 -28 b 128 -36 114 -22 122 -26 b 388 -233 202 -185 292 -233 b 530 -94 475 -233 530 -178 b 347 94 530 -17 488 39 b 86 361 152 164 86 240 b 211 556 86 448 132 519 b 94 759 127 610 94 674 b 349 988 94 896 201 988 b 524 940 453 988 498 940 b 578 990 544 940 556 990 b 599 970 588 990 594 985 l 657 756 b 647 734 660 745 656 737 b 624 744 637 731 628 735 b 357 956 541 903 455 956 b 210 808 271 956 210 899 b 394 613 210 722 256 665 b 653 351 594 539 653 462 b 520 155 653 263 604 190 b 644 -47 613 98 644 34 b 395 -266 644 -171 551 -266 b 221 -217 292 -266 242 -217 m 386 217 b 485 174 424 203 457 189 b 567 294 538 196 567 239 b 354 489 567 373 519 427 b 243 538 311 505 274 521 b 171 415 197 513 171 472 b 386 217 171 328 226 277 "},"¶":{"ha":820,"x_min":0,"x_max":0,"o":"m 260 0 b 242 14 249 0 242 6 b 261 33 242 24 249 31 l 322 42 b 353 71 343 47 353 56 l 353 460 b 287 451 338 457 320 451 b 35 695 132 451 35 542 b 355 972 35 863 152 972 l 733 972 b 753 957 744 972 753 967 b 736 940 753 948 747 943 l 684 930 b 653 899 664 925 653 916 l 653 72 b 683 42 653 56 663 47 l 734 33 b 753 16 746 30 753 26 b 731 0 753 6 742 0 m 560 892 b 503 928 560 913 544 928 b 447 892 463 928 447 912 l 447 76 b 504 42 447 57 464 42 b 560 76 545 42 560 56 "},"µ":{"ha":776,"x_min":0,"x_max":0,"o":"m 631 -15 b 522 92 563 -15 523 21 l 522 106 l 519 104 b 281 -13 424 21 351 -13 b 131 68 214 -13 160 15 b 174 -255 142 -97 174 -193 b 120 -312 174 -290 151 -312 b 65 -253 88 -312 65 -290 b 107 167 65 -182 106 -55 b 107 174 107 169 107 172 l 107 584 b 126 611 107 599 114 607 l 199 633 b 226 639 211 638 218 639 b 242 624 236 639 242 633 l 242 199 b 360 60 242 105 288 60 b 504 124 406 60 453 81 l 520 138 l 520 584 b 540 611 520 598 527 607 l 612 633 b 640 639 624 638 631 639 b 655 624 649 639 655 633 l 655 89 b 688 43 655 58 667 43 b 734 79 719 43 723 79 b 744 67 741 79 745 74 b 631 -15 744 34 708 -15 "},"⁰":{"ha":508,"x_min":0,"x_max":0,"o":"m 256 982 b 467 736 384 982 467 888 b 255 481 467 574 379 481 b 41 733 119 481 41 574 b 256 982 41 883 122 982 m 359 730 b 255 956 359 892 321 956 b 148 739 187 956 148 885 b 256 508 148 572 188 508 b 359 730 317 508 359 565 "},"¹":{"ha":372,"x_min":0,"x_max":0,"o":"m 74 928 b 58 941 63 928 58 933 b 74 954 58 949 64 954 l 126 954 b 211 983 170 954 192 962 b 229 992 218 988 222 992 b 243 977 238 992 243 988 l 243 556 b 263 528 243 540 249 531 l 310 522 b 322 510 317 519 322 516 b 308 499 322 503 317 499 l 69 499 b 54 510 60 499 54 503 b 67 522 54 516 59 520 l 117 528 b 139 556 131 531 139 539 l 139 908 b 121 928 139 924 133 928 l 74 928 "},"²":{"ha":463,"x_min":0,"x_max":0,"o":"m 42 542 b 91 613 42 574 58 599 l 166 660 b 297 851 262 717 297 769 b 222 967 297 935 267 967 b 148 899 172 967 148 940 l 148 858 b 99 802 148 823 127 802 b 51 855 69 802 51 822 b 234 986 51 922 113 986 b 401 856 344 986 401 932 b 222 662 401 785 357 733 l 151 625 b 163 625 155 625 159 625 b 334 576 224 625 285 576 b 396 624 368 576 385 589 b 409 633 398 631 403 634 b 419 618 417 633 421 628 b 319 493 410 524 372 493 b 205 569 272 493 242 511 b 158 601 186 592 172 601 b 133 552 142 601 133 589 b 87 493 131 510 114 493 b 42 542 60 493 42 513 "},"³":{"ha":430,"x_min":0,"x_max":0,"o":"m 389 628 b 204 488 389 543 315 488 b 41 601 99 488 41 540 b 92 658 41 635 63 658 b 136 609 119 658 136 638 l 136 574 b 206 508 136 534 159 508 b 289 615 255 508 289 540 b 192 733 289 694 253 733 l 167 733 b 151 744 158 733 151 737 b 163 762 151 749 154 754 l 298 894 l 122 894 b 99 878 109 894 103 889 l 88 838 b 72 826 85 830 81 826 b 58 841 63 826 58 831 l 72 953 b 95 972 73 965 81 972 l 381 972 b 396 960 390 972 396 967 b 382 942 396 955 392 950 l 192 756 b 210 756 199 756 205 756 b 389 628 320 756 389 712 "},"⁴":{"ha":477,"x_min":0,"x_max":0,"o":"m 253 726 b 260 745 253 735 256 741 l 331 808 b 346 815 338 813 341 815 b 355 805 351 815 355 812 l 355 636 l 417 636 b 431 625 425 636 431 633 b 416 613 431 617 426 613 l 355 613 l 356 548 b 375 524 356 534 363 526 l 411 517 b 424 506 419 515 424 512 b 408 495 424 499 419 495 l 197 495 b 182 506 188 495 182 499 b 195 517 182 512 187 516 l 232 524 b 253 548 245 526 253 533 l 253 613 l 48 613 b 33 624 38 613 33 617 b 43 640 33 629 35 633 l 201 797 b 233 852 222 817 233 833 b 197 935 233 881 197 899 b 261 990 197 967 219 990 b 325 928 299 990 325 967 b 258 811 325 890 308 857 l 74 636 l 253 636 l 253 726 "},"⁄":{"ha":685,"x_min":0,"x_max":0,"o":"m 385 528 b 363 520 378 518 372 515 b 360 544 355 525 355 533 b 606 967 393 601 576 918 b 652 981 617 985 635 991 b 660 936 669 971 672 953 b 385 528 633 893 424 585 m 301 444 b 324 453 308 454 315 457 b 325 428 332 448 332 440 b 79 2 294 372 109 51 b 33 -11 69 -15 51 -21 b 26 34 17 -1 14 16 b 301 444 52 78 262 388 "},"¼":{"ha":911,"x_min":0,"x_max":0,"o":"m 92 928 b 76 941 81 928 76 933 b 92 954 76 949 83 954 l 144 954 b 230 983 189 954 211 962 b 247 992 236 988 241 992 b 261 977 256 992 261 988 l 261 556 b 281 528 261 540 268 531 l 328 522 b 341 510 336 519 341 516 b 326 499 341 503 336 499 l 88 499 b 73 510 78 499 73 503 b 86 522 73 516 78 520 l 135 528 b 157 556 149 531 157 539 l 157 908 b 140 928 157 924 151 928 l 92 928 m 492 526 b 470 519 485 516 478 513 b 467 542 462 523 462 531 b 713 965 500 599 683 917 b 759 978 724 983 741 989 b 767 934 776 969 778 951 b 492 526 740 891 531 583 m 611 301 b 642 358 633 322 642 338 b 606 440 642 385 606 404 b 671 496 606 472 629 496 b 735 433 709 496 735 472 b 667 316 735 395 718 362 l 484 141 l 663 141 l 663 231 b 671 250 663 240 665 246 l 740 313 b 756 320 747 318 751 320 b 765 310 762 320 765 317 l 765 141 l 826 141 b 841 130 835 141 841 138 b 826 117 841 122 836 117 l 765 117 l 765 53 b 785 28 765 39 772 32 l 821 22 b 834 11 828 20 834 17 b 819 0 834 4 828 0 l 608 0 b 592 11 597 0 592 4 b 606 22 592 17 597 21 l 642 28 b 663 53 656 31 663 39 l 663 117 l 458 117 b 443 129 449 117 443 122 b 453 145 443 134 445 138 l 611 301 m 408 442 b 431 451 415 452 422 455 b 432 427 439 446 439 438 b 186 0 400 369 216 49 b 140 -12 176 -17 158 -22 b 133 32 124 -3 121 14 b 408 442 159 76 369 386 "},"½":{"ha":942,"x_min":0,"x_max":0,"o":"m 95 928 b 80 941 85 928 80 933 b 96 954 80 949 85 954 l 147 954 b 233 983 192 954 215 962 b 251 992 240 988 244 992 b 265 977 260 992 265 988 l 265 556 b 285 528 265 540 272 531 l 332 522 b 344 510 340 519 344 516 b 329 499 344 503 339 499 l 91 499 b 76 510 81 499 76 503 b 90 522 76 516 81 520 l 138 528 b 160 556 152 531 160 539 l 160 908 b 142 928 160 924 155 928 l 95 928 m 492 526 b 470 519 485 516 478 513 b 467 542 462 523 462 531 b 713 965 500 599 683 917 b 759 978 724 983 741 989 b 767 934 776 969 778 951 b 492 526 740 891 531 583 m 515 41 b 565 110 515 72 532 97 l 640 159 b 771 349 735 215 771 267 b 696 466 771 434 741 466 b 622 397 646 466 622 438 l 622 356 b 572 301 622 322 601 301 b 524 353 543 301 524 320 b 708 485 524 420 587 485 b 874 353 817 485 874 430 b 695 160 874 283 831 231 l 624 123 b 637 123 628 123 633 123 b 808 74 698 123 758 74 b 869 122 841 74 858 88 b 882 132 872 129 876 132 b 893 116 891 131 894 126 b 792 -9 883 22 846 -9 b 678 67 745 -9 716 9 b 631 99 660 90 646 99 b 606 50 615 99 607 87 b 560 -8 604 8 588 -8 b 515 41 533 -8 515 11 m 408 442 b 431 451 415 452 422 455 b 432 427 439 446 439 438 b 186 0 400 369 216 49 b 140 -12 176 -17 158 -22 b 133 32 124 -3 121 14 b 408 442 159 76 369 386 "},"¾":{"ha":942,"x_min":0,"x_max":0,"o":"m 522 526 b 500 519 515 516 509 513 b 497 542 492 523 492 531 b 743 965 530 599 713 917 b 790 978 754 983 772 989 b 797 934 806 969 808 951 b 522 526 771 891 562 583 m 413 628 b 228 488 413 543 339 488 b 65 601 123 488 65 540 b 116 658 65 635 87 658 b 160 609 143 658 160 638 l 160 574 b 231 508 160 534 183 508 b 313 615 278 508 313 540 b 215 733 313 694 278 733 l 192 733 b 176 744 181 733 176 737 b 187 762 176 749 178 754 l 322 894 l 146 894 b 123 878 133 894 126 889 l 111 838 b 96 826 109 830 104 826 b 82 841 87 826 81 831 l 95 953 b 119 972 97 965 105 972 l 404 972 b 419 960 414 972 419 967 b 406 942 419 955 416 950 l 216 756 b 234 756 222 756 229 756 b 413 628 344 756 413 712 m 642 301 b 673 357 663 322 673 338 b 637 439 673 385 637 403 b 701 495 637 471 660 495 b 766 432 740 495 766 472 b 699 316 766 394 749 362 l 515 141 l 694 141 l 694 231 b 701 250 694 240 696 246 l 772 313 b 787 320 778 318 782 320 b 796 310 792 320 796 316 l 796 141 l 858 141 b 872 130 866 141 872 138 b 856 117 872 122 867 117 l 796 117 l 796 53 b 816 28 796 38 803 31 l 851 22 b 865 10 860 20 865 17 b 849 0 865 4 859 0 l 638 0 b 623 10 628 0 623 4 b 636 22 623 17 628 20 l 673 28 b 694 52 686 31 694 38 l 694 117 l 489 117 b 474 129 479 117 474 122 b 484 144 474 133 476 138 l 642 301 m 438 442 b 461 451 445 452 453 455 b 463 427 469 446 469 438 b 217 0 431 369 247 49 b 170 -12 206 -17 188 -22 b 163 32 153 -3 151 14 b 438 442 190 76 399 386 "},"´":{"ha":292,"x_min":0,"x_max":0,"o":"m 113 853 b 197 926 136 901 160 930 b 247 872 231 924 249 897 b 186 792 244 839 221 815 l 61 697 b 41 697 55 693 46 692 b 42 715 35 702 38 708 l 113 853 "},"˝":{"ha":441,"x_min":0,"x_max":0,"o":"m 86 848 b 158 927 102 896 122 926 b 210 880 190 928 210 905 b 163 799 210 848 192 824 l 62 700 b 42 697 55 695 47 693 b 40 716 36 701 38 708 l 86 848 m 274 849 b 347 927 292 897 313 927 b 399 878 380 926 399 903 b 350 799 399 847 379 824 l 248 701 b 228 698 241 696 233 694 b 227 717 222 703 224 709 l 274 849 "},"`":{"ha":306,"x_min":0,"x_max":0,"o":"m 244 715 b 245 697 248 708 251 702 b 225 697 240 692 231 693 l 100 792 b 40 872 65 815 42 839 b 90 926 37 897 55 924 b 173 853 126 930 150 901 "},"ˆ":{"ha":447,"x_min":0,"x_max":0,"o":"m 398 691 b 373 694 392 686 383 688 l 220 805 l 67 694 b 42 691 57 688 48 686 b 44 713 37 695 36 703 l 182 888 b 220 911 194 903 205 911 b 258 888 235 911 245 903 l 396 713 b 398 691 403 703 403 695 "},"ˇ":{"ha":447,"x_min":0,"x_max":0,"o":"m 258 712 b 220 689 245 697 235 689 b 182 712 205 689 194 697 l 44 887 b 42 909 36 897 37 905 b 67 906 48 914 57 913 l 220 795 l 373 906 b 398 909 383 913 392 914 b 396 887 403 905 403 897 l 258 712 "},"˘":{"ha":405,"x_min":0,"x_max":0,"o":"m 199 783 b 331 882 264 783 306 813 b 347 895 335 892 340 895 b 360 874 356 895 362 888 b 199 696 352 762 291 696 b 38 874 108 696 46 762 b 51 895 37 888 42 895 b 67 882 58 895 63 892 b 199 783 93 810 137 783 "},"˜":{"ha":442,"x_min":0,"x_max":0,"o":"m 285 702 b 115 781 213 702 167 781 b 68 713 85 781 70 758 b 53 698 66 703 61 698 b 38 718 43 698 38 703 b 135 863 38 813 72 863 b 306 784 208 863 252 784 b 352 852 335 784 350 808 b 367 867 353 862 358 867 b 382 847 377 867 382 861 b 285 702 382 751 349 702 "},"¯":{"ha":460,"x_min":0,"x_max":0,"o":"m 38 773 b 64 803 38 794 46 803 l 367 803 b 392 773 384 803 392 795 b 367 742 392 751 384 742 l 64 742 b 38 773 46 742 38 751 "},"¨":{"ha":453,"x_min":0,"x_max":0,"o":"m 110 706 b 38 781 67 706 38 737 b 110 856 38 824 67 856 b 183 781 155 856 183 824 b 110 706 183 737 155 706 m 348 706 b 275 781 304 706 275 737 b 348 856 275 824 304 856 b 422 781 393 856 422 824 b 348 706 422 737 393 706 "},"˙":{"ha":235,"x_min":0,"x_max":0,"o":"m 116 706 b 39 783 69 706 39 738 b 116 860 39 828 69 860 b 194 783 164 860 194 828 b 116 706 194 738 164 706 "},"˚":{"ha":341,"x_min":0,"x_max":0,"o":"m 169 690 b 38 808 96 690 38 737 b 169 925 38 877 96 925 b 301 808 244 925 301 876 b 169 690 301 738 244 690 m 170 892 b 103 808 133 892 103 860 b 170 722 103 756 133 722 b 235 808 208 722 235 756 b 170 892 235 860 208 892 "},"¸":{"ha":350,"x_min":0,"x_max":0,"o":"m 190 5 l 140 -85 b 164 -84 147 -85 154 -84 b 294 -183 245 -84 294 -125 b 161 -290 294 -247 242 -290 b 38 -220 94 -290 47 -259 b 50 -204 38 -211 42 -205 b 67 -213 58 -203 63 -207 b 144 -260 80 -247 111 -260 b 204 -184 183 -260 204 -234 b 138 -110 204 -140 181 -110 l 117 -110 b 107 -90 104 -110 101 -101 l 160 5 "},"˛":{"ha":317,"x_min":0,"x_max":0,"o":"m 258 1 b 140 -163 176 -40 140 -92 b 213 -253 140 -224 169 -253 b 285 -212 242 -253 271 -236 b 301 -204 291 -205 295 -202 b 308 -223 307 -206 312 -212 b 181 -293 294 -259 247 -293 b 38 -178 91 -293 38 -250 b 249 18 38 -100 98 -34 "},"́":{"ha":285,"x_min":0,"x_max":0,"o":"m 113 853 b 197 926 136 901 160 930 b 247 872 231 924 249 897 b 186 792 244 839 221 815 l 61 697 b 41 697 55 693 46 692 b 42 715 35 702 38 708 l 113 853 "},"̋":{"ha":437,"x_min":0,"x_max":0,"o":"m 86 848 b 158 927 102 896 122 926 b 210 880 190 928 210 905 b 163 799 210 848 192 824 l 62 700 b 42 697 55 695 47 693 b 40 716 36 701 38 708 l 86 848 m 274 849 b 347 927 292 897 313 927 b 399 878 380 926 399 903 b 350 799 399 847 379 824 l 248 701 b 228 698 241 696 233 694 b 227 717 222 703 224 709 l 274 849 "},"̀":{"ha":290,"x_min":0,"x_max":0,"o":"m 244 715 b 245 697 248 708 251 702 b 224 697 240 692 231 693 l 99 792 b 39 872 65 815 42 839 b 90 926 37 897 55 924 b 173 853 126 930 150 901 "},"̏":{"ha":442,"x_min":0,"x_max":0,"o":"m 397 716 b 396 697 401 708 401 701 b 376 700 390 693 383 695 l 274 799 b 227 880 246 824 227 848 b 279 927 227 905 247 928 b 351 848 315 926 335 896 m 210 717 b 210 698 214 709 215 703 b 190 701 204 694 197 696 l 88 799 b 39 878 59 824 39 847 b 90 927 38 903 58 926 b 163 849 126 927 147 897 "},"̕":{"ha":204,"x_min":0,"x_max":0,"o":"m 50 948 b 104 1042 54 1002 67 1036 b 165 1001 136 1047 160 1027 b 135 916 170 972 157 945 l 62 791 b 44 784 57 785 51 782 b 38 802 38 788 38 794 l 50 948 "},"̂":{"ha":440,"x_min":0,"x_max":0,"o":"m 398 691 b 373 694 392 686 383 688 l 220 805 l 67 694 b 42 691 57 688 48 686 b 44 713 37 695 36 703 l 182 888 b 220 911 194 903 205 911 b 258 888 235 911 245 903 l 396 713 b 398 691 403 703 403 695 "},"̌":{"ha":440,"x_min":0,"x_max":0,"o":"m 258 712 b 220 689 245 697 235 689 b 182 712 205 689 194 697 l 44 887 b 42 909 36 897 37 905 b 67 906 48 914 57 913 l 220 795 l 373 906 b 398 909 383 913 392 914 b 396 887 403 905 403 897 l 258 712 "},"̆":{"ha":398,"x_min":0,"x_max":0,"o":"m 199 783 b 331 882 264 783 306 813 b 347 895 335 892 340 895 b 360 874 356 895 362 888 b 199 696 352 762 291 696 b 38 874 108 696 46 762 b 51 895 37 888 42 895 b 67 882 58 895 63 892 b 199 783 93 810 137 783 "},"̑":{"ha":398,"x_min":0,"x_max":0,"o":"m 199 808 b 67 709 137 808 93 781 b 51 697 63 699 58 697 b 38 716 42 697 37 703 b 199 896 46 829 108 896 b 360 716 291 896 352 829 b 347 697 362 703 356 697 b 331 709 340 697 335 699 b 199 808 306 778 264 808 "},"̃":{"ha":420,"x_min":0,"x_max":0,"o":"m 285 702 b 115 781 213 702 167 781 b 68 713 85 781 70 758 b 53 698 66 703 61 698 b 38 718 43 698 38 703 b 135 863 38 813 72 863 b 306 784 208 863 252 784 b 352 852 335 784 350 808 b 367 867 353 862 358 867 b 382 847 377 867 382 861 b 285 702 382 751 349 702 "},"̄":{"ha":431,"x_min":0,"x_max":0,"o":"m 38 773 b 64 803 38 794 46 803 l 367 803 b 392 773 384 803 392 795 b 367 742 392 751 384 742 l 64 742 b 38 773 46 742 38 751 "},"̈":{"ha":459,"x_min":0,"x_max":0,"o":"m 110 706 b 38 781 67 706 38 737 b 110 856 38 824 67 856 b 183 781 155 856 183 824 b 110 706 183 737 155 706 m 348 706 b 275 781 304 706 275 737 b 348 856 275 824 304 856 b 422 781 393 856 422 824 b 348 706 422 737 393 706 "},"̇":{"ha":231,"x_min":0,"x_max":0,"o":"m 115 706 b 38 783 69 706 38 738 b 115 860 38 828 69 860 b 193 783 163 860 193 828 b 115 706 193 738 163 706 "},"̒":{"ha":231,"x_min":0,"x_max":0,"o":"m 116 828 b 186 765 164 828 186 801 b 117 698 186 725 157 698 b 38 794 69 698 38 731 b 169 952 38 878 85 933 b 190 944 181 955 187 952 b 178 928 191 938 188 931 b 78 842 113 914 78 874 b 92 828 78 832 81 828 l 116 828 "},"̛":{"ha":375,"x_min":0,"x_max":0,"o":"m 337 760 b 52 613 337 651 232 578 b 38 624 42 614 38 617 b 53 635 38 632 44 637 b 235 723 176 610 235 649 l 235 757 b 286 817 235 795 253 817 b 337 760 318 817 337 797 "},"̦":{"ha":232,"x_min":0,"x_max":0,"o":"m 114 -208 b 44 -147 67 -208 44 -181 b 116 -78 44 -106 75 -78 b 194 -176 163 -78 194 -111 b 63 -333 194 -260 146 -314 b 42 -325 51 -335 44 -333 b 54 -309 40 -318 44 -311 b 154 -222 119 -294 154 -254 b 140 -208 154 -212 151 -208 l 114 -208 "},"̧":{"ha":331,"x_min":0,"x_max":0,"o":"m 190 5 l 140 -85 b 164 -84 147 -85 154 -84 b 294 -183 245 -84 294 -125 b 161 -290 294 -247 242 -290 b 38 -220 94 -290 47 -259 b 50 -204 38 -211 42 -205 b 67 -213 58 -203 63 -207 b 144 -260 80 -247 111 -260 b 204 -184 183 -260 204 -234 b 138 -110 204 -140 181 -110 l 117 -110 b 107 -90 104 -110 101 -101 l 160 5 "},"̨":{"ha":347,"x_min":0,"x_max":0,"o":"m 258 1 b 140 -163 176 -40 140 -92 b 213 -253 140 -224 169 -253 b 285 -212 242 -253 271 -236 b 301 -204 291 -205 295 -202 b 308 -223 307 -206 312 -212 b 181 -293 294 -259 247 -293 b 38 -178 91 -293 38 -250 b 249 18 38 -100 98 -34 "},"̮":{"ha":398,"x_min":0,"x_max":0,"o":"m 199 -190 b 331 -90 264 -190 306 -160 b 347 -77 335 -81 340 -77 b 360 -97 356 -77 362 -85 b 199 -276 352 -210 291 -276 b 38 -97 108 -276 46 -210 b 51 -77 37 -85 42 -77 b 67 -90 58 -77 63 -81 b 199 -190 93 -162 137 -190 "},"̱":{"ha":431,"x_min":0,"x_max":0,"o":"m 38 -148 b 64 -117 38 -126 46 -117 l 367 -117 b 392 -148 384 -117 392 -126 b 367 -178 392 -169 384 -178 l 64 -178 b 38 -148 46 -178 38 -169 "},"̤":{"ha":461,"x_min":0,"x_max":0,"o":"m 110 -228 b 38 -153 67 -228 38 -198 b 110 -79 38 -110 67 -79 b 183 -153 155 -79 183 -110 b 110 -228 183 -197 155 -228 m 351 -228 b 277 -153 307 -228 277 -198 b 351 -79 277 -110 307 -79 b 424 -153 395 -79 424 -110 b 351 -228 424 -197 395 -228 "},"Æ":{"ha":1288,"x_min":0,"x_max":0,"o":"m 617 381 l 300 381 l 160 126 b 192 39 133 78 151 51 l 228 31 b 246 15 240 28 246 24 b 225 0 246 6 240 0 l 13 0 b -8 15 -2 0 -8 6 b 8 31 -8 23 -3 27 l 30 39 b 108 123 56 49 82 74 l 533 885 b 506 938 550 915 540 931 b 481 957 489 942 481 949 b 503 972 481 967 489 972 l 1068 972 b 1143 997 1105 972 1124 997 b 1168 971 1156 997 1163 991 l 1224 761 b 1213 738 1227 749 1223 741 b 1186 751 1202 735 1192 739 b 978 936 1106 906 1063 936 l 771 936 l 771 508 l 939 508 b 1032 603 1002 508 1024 530 b 1048 622 1034 616 1040 622 b 1067 606 1058 624 1064 617 l 1126 396 b 1117 373 1129 383 1126 376 b 1093 383 1108 370 1099 373 b 960 473 1049 456 1023 473 l 771 473 l 771 83 b 828 36 771 51 790 36 l 994 36 b 1213 268 1079 36 1124 71 b 1236 282 1219 279 1226 283 b 1249 257 1248 280 1253 272 l 1187 5 b 1161 -23 1181 -15 1175 -23 b 1079 0 1141 -23 1122 0 l 537 0 b 516 15 522 0 516 6 b 533 33 516 24 521 30 l 588 42 b 617 70 607 45 617 55 m 321 417 l 617 417 l 617 935 l 607 935 "},"Œ":{"ha":1331,"x_min":0,"x_max":0,"o":"m 1113 972 b 1188 997 1149 972 1168 997 b 1212 971 1200 997 1206 991 l 1267 761 b 1257 738 1271 749 1267 741 b 1231 751 1247 735 1237 739 b 1022 936 1151 906 1106 936 l 813 936 l 813 508 l 981 508 b 1074 603 1044 508 1067 530 b 1090 622 1076 616 1082 622 b 1110 606 1100 624 1106 617 l 1169 396 b 1159 373 1172 383 1168 376 b 1135 383 1150 370 1142 373 b 1003 473 1092 456 1065 473 l 813 473 l 813 83 b 871 36 813 51 832 36 l 1036 36 b 1256 268 1122 36 1167 71 b 1278 282 1261 279 1269 283 b 1291 257 1290 280 1295 272 l 1229 5 b 1203 -23 1224 -15 1217 -23 b 1122 0 1183 -23 1165 0 l 566 0 b 54 485 246 0 54 190 b 580 972 54 781 258 972 m 228 501 b 585 36 228 193 370 36 l 665 36 l 665 936 l 587 936 b 228 501 365 936 228 779 "},"Ə":{"ha":953,"x_min":0,"x_max":0,"o":"m 64 390 b 135 462 64 441 86 462 l 741 462 b 411 911 735 756 606 911 b 111 693 253 911 142 819 b 91 678 107 682 100 677 b 78 697 82 680 77 686 b 465 990 94 855 249 990 b 899 497 733 990 899 788 b 461 -19 899 199 731 -19 b 64 390 215 -19 64 157 m 228 381 b 481 15 228 169 331 15 b 741 431 650 15 739 190 l 269 430 b 228 381 240 430 228 417 "},"Ŋ":{"ha":999,"x_min":0,"x_max":0,"o":"m 210 780 l 210 111 b 264 46 210 73 228 56 l 327 33 b 344 15 340 28 344 24 b 323 0 344 6 338 0 l 72 0 b 51 15 58 0 51 6 b 68 33 51 24 56 28 l 116 46 b 169 111 152 57 169 73 l 169 797 b 151 851 169 822 167 832 l 90 938 b 77 961 83 949 77 954 b 94 972 77 968 83 972 l 233 972 b 268 950 247 972 254 968 l 808 162 l 808 861 b 753 926 808 899 790 916 l 691 940 b 674 957 678 944 674 949 b 695 972 674 966 681 972 l 946 972 b 967 957 960 972 967 966 b 950 940 967 949 963 944 l 902 926 b 849 861 865 916 849 900 l 849 -151 b 691 -315 849 -260 784 -315 b 519 -192 574 -315 519 -258 b 585 -120 519 -145 546 -120 b 649 -191 623 -120 649 -149 l 649 -228 b 703 -287 649 -267 667 -287 b 810 -160 766 -287 810 -247 b 669 122 810 8 732 21 "},"Þ":{"ha":877,"x_min":0,"x_max":0,"o":"m 318 70 b 348 42 318 53 329 46 l 403 32 b 420 15 415 28 420 23 b 399 0 420 6 414 0 l 86 0 b 65 15 72 0 65 6 b 82 33 65 24 70 29 l 137 42 b 167 70 156 45 167 53 l 167 902 b 137 931 167 919 156 927 l 82 940 b 65 957 70 943 65 948 b 86 972 65 966 72 972 l 399 972 b 420 958 414 972 420 967 b 403 940 420 949 415 944 l 348 931 b 318 902 329 926 318 919 l 318 780 l 442 780 b 826 490 672 780 826 665 b 483 212 826 314 688 212 b 318 238 419 212 365 221 l 318 70 m 318 747 l 318 269 b 449 247 359 254 404 247 b 665 491 583 247 665 330 b 392 747 665 648 565 747 "},"Ð":{"ha":1032,"x_min":0,"x_max":0,"o":"m 65 15 b 82 33 65 24 70 30 l 138 42 b 167 70 158 46 167 55 l 167 477 l 73 477 b 57 492 63 477 57 482 b 73 506 57 500 63 506 l 167 506 l 167 901 b 138 931 167 917 158 926 l 81 940 b 65 957 69 943 65 948 b 85 972 65 967 72 972 l 409 972 b 979 451 751 972 979 763 b 481 0 979 181 787 0 l 85 0 b 65 15 71 0 65 6 m 474 35 b 818 462 681 35 818 178 b 399 937 818 756 660 937 l 320 937 l 320 506 l 536 506 b 552 492 547 506 552 500 b 536 477 552 482 547 477 l 320 477 l 320 78 b 372 35 320 49 337 35 l 474 35 "},"Đ":{"ha":1032,"x_min":0,"x_max":0,"o":"m 65 15 b 82 33 65 24 70 30 l 138 42 b 167 70 158 46 167 55 l 167 477 l 73 477 b 57 492 63 477 57 482 b 73 506 57 500 63 506 l 167 506 l 167 901 b 138 931 167 917 158 926 l 81 940 b 65 957 69 943 65 948 b 85 972 65 967 72 972 l 409 972 b 979 451 751 972 979 763 b 481 0 979 181 787 0 l 85 0 b 65 15 71 0 65 6 m 474 35 b 818 462 681 35 818 178 b 399 937 818 756 660 937 l 320 937 l 320 506 l 536 506 b 552 492 547 506 552 500 b 536 477 552 482 547 477 l 320 477 l 320 78 b 372 35 320 49 337 35 l 474 35 "},"Ħ":{"ha":1088,"x_min":0,"x_max":0,"o":"m 321 70 b 351 42 321 55 331 45 l 406 33 b 423 15 418 30 423 24 b 402 0 423 6 417 0 l 87 0 b 66 15 73 0 66 6 b 83 33 66 24 71 30 l 138 42 b 168 70 158 45 168 55 l 168 692 l 73 692 b 59 705 64 692 59 697 b 74 719 59 713 65 719 l 168 719 l 168 902 b 138 931 168 917 158 927 l 83 940 b 66 957 71 942 66 948 b 87 972 66 966 73 972 l 402 972 b 423 957 417 972 423 966 b 406 940 423 948 418 942 l 351 931 b 321 902 331 927 321 917 l 321 719 l 767 719 l 767 902 b 737 931 767 917 756 927 l 683 940 b 665 957 670 942 665 948 b 686 972 665 966 672 972 l 1001 972 b 1022 957 1015 972 1022 966 b 1004 940 1022 948 1017 942 l 950 931 b 920 902 930 927 920 917 l 920 719 l 1006 719 b 1021 705 1016 719 1021 713 b 1006 692 1021 697 1016 692 l 920 692 l 920 70 b 950 42 920 55 930 45 l 1004 33 b 1022 15 1017 30 1022 24 b 1001 0 1022 6 1015 0 l 686 0 b 665 15 672 0 665 6 b 683 33 665 24 670 30 l 737 42 b 767 70 756 45 767 55 l 767 442 l 321 442 l 321 70 m 767 478 l 767 692 l 321 692 l 321 478 "},"Ŧ":{"ha":888,"x_min":0,"x_max":0,"o":"m 159 482 b 174 497 159 490 165 497 l 367 497 l 367 935 l 256 935 b 72 728 182 935 142 901 b 47 713 67 715 58 711 b 35 739 37 715 32 724 l 81 970 b 107 997 86 990 93 997 b 176 972 125 997 140 972 l 708 972 b 781 997 745 972 763 997 b 807 970 794 997 802 990 l 853 739 b 840 713 856 724 851 715 b 815 728 830 711 821 715 b 631 935 745 906 705 935 l 521 935 l 521 497 l 707 497 b 724 482 717 497 724 490 b 707 467 724 473 717 467 l 521 467 l 521 70 b 551 42 521 55 531 45 l 605 33 b 622 15 617 30 622 24 b 601 0 622 6 616 0 l 287 0 b 265 15 272 0 265 6 b 283 33 265 24 270 30 l 338 42 b 367 70 357 45 367 55 l 367 467 l 174 467 b 159 482 165 467 159 473 "},"Ł":{"ha":813,"x_min":0,"x_max":0,"o":"m 44 362 b 52 381 40 369 43 377 l 168 444 l 168 902 b 138 931 168 917 158 927 l 84 940 b 67 957 72 942 67 948 b 88 972 67 966 73 972 l 402 972 b 424 957 417 972 424 966 b 406 940 424 948 419 942 l 351 931 b 322 902 332 927 322 917 l 322 528 l 549 651 b 570 645 558 655 566 653 b 561 626 574 638 570 631 l 322 496 l 322 75 b 373 36 322 47 338 36 l 533 36 b 696 167 606 36 649 63 l 743 274 b 767 289 749 287 756 291 b 779 264 778 287 783 278 l 719 4 b 693 -24 713 -17 706 -24 b 611 0 674 -24 656 0 l 88 0 b 67 15 73 0 67 6 b 84 33 67 24 72 30 l 138 42 b 168 70 158 45 168 55 l 168 413 l 64 356 b 44 362 56 352 47 353 "},"Ø":{"ha":1061,"x_min":0,"x_max":0,"o":"m 88 -17 b 88 3 82 -12 81 -4 l 190 120 b 54 490 104 210 54 339 b 530 991 54 785 249 991 b 847 875 657 991 766 949 l 948 990 b 969 993 953 998 963 999 b 971 974 976 988 977 980 l 868 855 b 1007 483 956 765 1007 635 b 529 -20 1007 185 813 -20 b 210 100 401 -20 292 24 l 110 -15 b 88 -17 103 -22 96 -24 m 213 588 b 289 233 213 453 241 330 l 756 769 b 492 950 690 881 597 950 b 213 588 326 950 213 817 m 849 386 b 770 742 849 522 819 646 l 303 206 b 569 20 368 92 463 20 b 849 386 737 20 849 151 "},"Ơ":{"ha":1062,"x_min":0,"x_max":0,"o":"m 530 991 b 668 973 578 991 625 985 b 894 1076 840 950 894 999 l 894 1106 b 949 1167 894 1144 914 1167 b 1003 1105 983 1167 1003 1144 b 753 940 1003 1005 915 935 b 1007 483 910 860 1007 692 b 529 -20 1007 185 813 -20 b 54 490 248 -20 54 192 b 530 991 54 785 249 991 m 849 386 b 492 950 849 701 691 950 b 213 588 326 950 213 817 b 569 20 213 269 370 20 b 849 386 737 20 849 151 "},"Ư":{"ha":988,"x_min":0,"x_max":0,"o":"m 769 863 b 713 926 767 897 751 916 l 660 939 b 640 957 647 942 640 947 b 660 972 640 966 647 972 l 861 972 b 967 1074 941 972 967 1006 l 967 1104 b 1019 1166 967 1143 985 1166 b 1073 1103 1053 1166 1073 1143 b 910 945 1073 1017 1017 969 l 868 937 b 813 860 831 929 810 900 l 838 416 b 845 271 841 367 844 320 b 505 -20 848 107 741 -20 b 135 262 258 -20 133 96 b 144 437 135 303 141 391 l 169 898 b 133 931 170 917 158 926 l 83 939 b 62 957 69 942 62 947 b 83 972 62 966 69 972 l 406 972 b 427 957 419 972 427 966 b 406 939 427 947 419 942 l 354 931 b 319 897 331 926 321 918 l 294 440 b 289 273 290 372 290 314 b 540 23 288 106 381 23 b 801 271 703 23 803 118 b 794 411 799 329 797 373 "},"ẞ":{"ha":969,"x_min":0,"x_max":0,"o":"m 87 0 b 66 15 73 0 66 6 b 83 33 66 24 71 30 l 138 42 b 168 70 158 45 168 55 l 168 902 b 138 931 168 917 158 927 l 83 940 b 66 957 71 942 66 948 b 87 972 66 966 73 972 l 897 972 b 920 954 912 972 920 967 b 904 924 920 945 917 939 l 590 525 l 609 525 b 940 244 813 525 940 413 b 672 -15 940 82 830 -15 b 490 49 544 -15 508 49 b 426 -13 470 49 444 -13 b 408 6 415 -13 408 -6 l 408 217 b 425 236 408 229 414 236 b 442 222 435 236 439 231 l 453 176 b 619 37 479 74 531 37 b 783 240 714 37 783 100 b 523 500 783 406 693 500 l 456 500 b 433 517 440 500 433 506 b 444 541 433 525 436 531 l 722 905 b 733 925 730 915 733 919 b 715 938 733 933 726 938 l 351 938 b 321 908 331 938 321 926 l 321 27 b 288 0 321 10 310 0 "},"Ǆ":{"ha":1865,"x_min":0,"x_max":0,"o":"m 1526 1042 b 1490 1019 1513 1028 1505 1019 b 1452 1042 1474 1019 1465 1028 l 1315 1192 b 1313 1213 1306 1200 1308 1209 b 1338 1210 1319 1217 1327 1216 l 1489 1123 l 1640 1210 b 1665 1213 1651 1216 1659 1217 b 1664 1192 1671 1209 1672 1200 l 1526 1042 m 1248 35 l 1559 35 b 1766 220 1660 35 1699 64 l 1783 263 b 1806 277 1788 275 1796 279 b 1819 253 1818 274 1822 265 l 1772 7 b 1747 -20 1769 -11 1761 -20 b 1683 0 1731 -20 1716 0 l 1094 0 b 1073 17 1079 0 1073 6 b 1083 43 1073 25 1076 33 l 1635 937 l 1343 937 b 1170 795 1263 937 1217 904 l 1151 746 b 1124 729 1144 731 1135 727 b 1110 756 1113 731 1107 740 l 1152 968 b 1178 995 1156 987 1165 995 b 1242 972 1196 995 1210 972 l 1787 972 b 1808 955 1801 972 1808 965 b 1798 929 1808 949 1805 940 m 65 15 b 82 33 65 24 70 30 l 138 42 b 167 70 158 46 167 55 l 167 901 b 138 931 167 917 158 926 l 82 940 b 65 957 70 943 65 948 b 86 972 65 967 72 972 l 410 972 b 979 451 751 972 979 763 b 481 0 979 181 788 0 l 86 0 b 65 15 72 0 65 6 m 475 35 b 819 462 681 35 819 178 b 400 937 819 756 660 937 l 320 937 l 320 78 b 372 35 320 49 338 35 l 475 35 "},"Ĳ":{"ha":1069,"x_min":0,"x_max":0,"o":"m 320 70 b 350 42 320 55 330 45 l 404 33 b 422 15 417 30 422 24 b 401 0 422 6 415 0 l 86 0 b 65 15 72 0 65 6 b 82 33 65 24 69 30 l 137 42 b 167 70 156 45 167 55 l 167 902 b 137 931 167 917 156 927 l 82 940 b 65 957 69 942 65 948 b 86 972 65 966 72 972 l 401 972 b 422 957 415 972 422 966 b 404 940 422 948 417 942 l 350 931 b 320 902 330 927 320 917 l 320 70 m 967 151 b 737 -18 967 49 876 -18 b 534 128 606 -18 534 42 b 610 211 534 178 561 211 b 674 133 647 211 674 181 l 674 89 b 747 13 674 42 693 13 b 847 112 805 13 847 48 b 751 406 847 200 751 258 l 751 899 b 724 930 751 917 742 927 l 664 939 b 644 956 650 942 644 947 b 666 972 644 966 651 972 l 983 972 b 1005 957 999 972 1005 967 b 985 940 1005 948 1000 943 l 932 931 b 904 901 914 926 904 917 l 904 412 b 967 151 904 294 967 246 "},"":{"ha":1069,"x_min":0,"x_max":0,"o":"m 313 1162 b 402 1218 342 1201 369 1224 b 445 1160 433 1213 450 1185 b 373 1090 440 1126 411 1106 l 235 1021 b 215 1023 228 1018 219 1018 b 218 1042 210 1028 213 1035 l 313 1162 m 897 1162 b 985 1218 926 1201 952 1224 b 1029 1160 1017 1213 1033 1185 b 956 1090 1024 1126 994 1106 l 818 1021 b 798 1023 811 1018 803 1018 b 801 1042 793 1028 797 1035 l 897 1162 m 320 70 b 350 42 320 55 330 45 l 404 33 b 422 15 417 30 422 24 b 401 0 422 6 415 0 l 86 0 b 65 15 72 0 65 6 b 82 33 65 24 69 30 l 137 42 b 167 70 156 45 167 55 l 167 902 b 137 931 167 917 156 927 l 82 940 b 65 957 69 942 65 948 b 86 972 65 966 72 972 l 401 972 b 422 957 415 972 422 966 b 404 940 422 948 417 942 l 350 931 b 320 902 330 927 320 917 l 320 70 m 967 151 b 737 -18 967 49 876 -18 b 534 128 606 -18 534 42 b 610 211 534 178 561 211 b 674 133 647 211 674 181 l 674 89 b 747 13 674 42 693 13 b 847 112 805 13 847 48 b 751 406 847 200 751 258 l 751 899 b 724 930 751 917 742 927 l 664 939 b 644 956 650 942 644 947 b 666 972 644 966 651 972 l 983 972 b 1005 957 999 972 1005 967 b 985 940 1005 948 1000 943 l 932 931 b 904 901 914 926 904 917 l 904 412 b 967 151 904 294 967 246 "},"Ǉ":{"ha":1387,"x_min":0,"x_max":0,"o":"m 350 931 b 320 902 330 927 320 917 l 320 75 b 372 36 320 47 337 36 l 531 36 b 694 167 605 36 647 63 l 742 274 b 765 289 747 287 755 291 b 778 264 777 287 781 278 l 717 4 b 692 -24 711 -17 704 -24 b 609 0 672 -24 654 0 l 86 0 b 65 15 72 0 65 6 b 82 33 65 24 69 30 l 137 42 b 167 70 156 45 167 55 l 167 902 b 137 931 167 917 156 927 l 82 940 b 65 957 69 942 65 948 b 86 972 65 966 72 972 l 401 972 b 422 957 415 972 422 966 b 404 940 422 948 417 942 m 1285 151 b 1054 -18 1285 49 1194 -18 b 851 128 924 -18 851 42 b 927 211 851 178 879 211 b 991 133 965 211 991 181 l 991 89 b 1065 13 991 42 1011 13 b 1165 112 1122 13 1165 48 b 1069 406 1165 200 1069 258 l 1069 899 b 1042 930 1069 917 1060 927 l 981 939 b 963 956 967 942 963 947 b 983 972 963 966 969 972 l 1301 972 b 1323 957 1316 972 1323 967 b 1303 940 1323 948 1317 943 l 1250 931 b 1222 901 1231 926 1222 917 l 1222 412 b 1285 151 1222 294 1285 246 "},"Ǌ":{"ha":1594,"x_min":0,"x_max":0,"o":"m 343 15 b 322 0 343 6 336 0 l 71 0 b 49 15 56 0 49 6 b 67 33 49 24 53 28 l 114 46 b 168 111 152 58 168 73 l 168 797 b 145 852 168 818 165 827 l 83 938 b 72 960 75 949 72 954 b 88 972 72 968 78 972 l 224 972 b 262 948 240 972 249 966 l 805 183 l 805 861 b 751 926 805 899 790 915 l 688 940 b 671 957 675 944 671 949 b 692 972 671 966 678 972 l 943 972 b 965 957 958 972 965 966 b 947 940 965 949 960 944 l 899 926 b 846 861 862 915 846 900 l 846 150 b 859 106 846 131 850 118 l 903 43 b 917 14 915 27 917 20 b 898 0 917 6 911 0 l 755 0 b 735 16 741 0 735 6 b 718 53 735 26 733 33 l 208 770 l 208 111 b 263 46 208 74 224 58 l 326 33 b 343 15 339 28 343 24 m 1492 151 b 1262 -18 1492 49 1401 -18 b 1060 128 1132 -18 1060 42 b 1135 211 1060 178 1087 211 b 1199 133 1172 211 1199 181 l 1199 89 b 1273 13 1199 42 1219 13 b 1372 112 1331 13 1372 48 b 1276 406 1372 200 1276 258 l 1276 899 b 1249 930 1276 917 1268 927 l 1190 939 b 1170 956 1175 942 1170 947 b 1192 972 1170 966 1177 972 l 1509 972 b 1531 957 1524 972 1531 967 b 1511 940 1531 948 1526 943 l 1458 931 b 1429 901 1439 926 1429 917 l 1429 412 b 1492 151 1429 294 1492 246 "},"Ǽ":{"ha":1288,"x_min":0,"x_max":0,"o":"m 858 1162 b 947 1218 888 1201 914 1224 b 991 1160 979 1213 995 1185 b 918 1090 986 1126 957 1106 l 780 1021 b 760 1023 774 1018 765 1018 b 763 1042 756 1028 759 1035 l 858 1162 m 617 381 l 300 381 l 160 126 b 192 39 133 78 151 51 l 228 31 b 246 15 240 28 246 24 b 225 0 246 6 240 0 l 13 0 b -8 15 -2 0 -8 6 b 8 31 -8 23 -3 27 l 30 39 b 108 123 56 49 82 74 l 533 885 b 506 938 550 915 540 931 b 481 957 489 942 481 949 b 503 972 481 967 489 972 l 1068 972 b 1143 997 1105 972 1124 997 b 1168 971 1156 997 1163 991 l 1224 761 b 1213 738 1227 749 1223 741 b 1186 751 1202 735 1192 739 b 978 936 1106 906 1063 936 l 771 936 l 771 508 l 939 508 b 1032 603 1002 508 1024 530 b 1048 622 1034 616 1040 622 b 1067 606 1058 624 1064 617 l 1126 396 b 1117 373 1129 383 1126 376 b 1093 383 1108 370 1099 373 b 960 473 1049 456 1023 473 l 771 473 l 771 83 b 828 36 771 51 790 36 l 994 36 b 1213 268 1079 36 1124 71 b 1236 282 1219 279 1226 283 b 1249 257 1248 280 1253 272 l 1187 5 b 1161 -23 1181 -15 1175 -23 b 1079 0 1141 -23 1122 0 l 537 0 b 516 15 522 0 516 6 b 533 33 516 24 521 30 l 588 42 b 617 70 607 45 617 55 m 321 417 l 617 417 l 617 935 l 607 935 "},"Á":{"ha":919,"x_min":0,"x_max":0,"o":"m 528 1162 b 618 1218 558 1201 585 1224 b 661 1160 649 1213 666 1185 b 589 1090 656 1126 627 1106 l 451 1021 b 431 1023 444 1018 435 1018 b 434 1042 426 1028 429 1035 l 528 1162 m 260 15 b 239 0 260 6 253 0 l 31 0 b 10 15 17 0 10 6 b 26 31 10 22 15 27 l 56 41 b 115 123 81 51 98 68 l 357 885 b 329 938 367 916 361 930 b 305 957 312 944 305 949 b 327 972 305 967 312 972 l 583 972 b 604 958 597 972 604 967 b 581 939 604 949 598 943 b 559 903 554 934 551 927 l 830 84 b 884 34 840 53 854 39 b 904 15 899 29 904 24 b 883 0 904 6 897 0 l 614 0 b 592 15 599 0 592 6 b 610 31 592 24 598 28 l 654 38 b 669 83 676 42 678 55 l 583 344 l 230 344 l 161 126 b 206 39 144 76 161 53 l 243 31 b 260 15 255 28 260 24 m 571 381 l 403 894 l 242 381 "},"À":{"ha":919,"x_min":0,"x_max":0,"o":"m 510 1042 b 514 1023 515 1035 518 1028 b 494 1021 509 1018 500 1018 l 356 1090 b 283 1160 317 1106 288 1126 b 326 1218 278 1185 295 1213 b 415 1162 360 1224 386 1201 m 260 15 b 239 0 260 6 253 0 l 31 0 b 10 15 17 0 10 6 b 26 31 10 22 15 27 l 56 41 b 115 123 81 51 98 68 l 357 885 b 329 938 367 916 361 930 b 305 957 312 944 305 949 b 327 972 305 967 312 972 l 583 972 b 604 958 597 972 604 967 b 581 939 604 949 598 943 b 559 903 554 934 551 927 l 830 84 b 884 34 840 53 854 39 b 904 15 899 29 904 24 b 883 0 904 6 897 0 l 614 0 b 592 15 599 0 592 6 b 610 31 592 24 598 28 l 654 38 b 669 83 676 42 678 55 l 583 344 l 230 344 l 161 126 b 206 39 144 76 161 53 l 243 31 b 260 15 255 28 260 24 m 571 381 l 403 894 l 242 381 "},"Ȁ":{"ha":919,"x_min":0,"x_max":0,"o":"m 586 1040 b 587 1022 590 1033 592 1026 b 567 1023 581 1017 574 1019 l 454 1103 b 396 1176 422 1123 399 1144 b 443 1228 393 1203 413 1226 b 522 1162 477 1231 500 1205 m 397 1040 b 398 1022 401 1033 403 1026 b 378 1023 393 1017 385 1019 l 265 1101 b 206 1173 233 1122 209 1142 b 251 1227 202 1201 222 1224 b 331 1162 285 1231 308 1205 m 260 15 b 239 0 260 6 253 0 l 31 0 b 10 15 17 0 10 6 b 26 31 10 22 15 27 l 56 41 b 115 123 81 51 98 68 l 357 885 b 329 938 367 916 361 930 b 305 957 312 944 305 949 b 327 972 305 967 312 972 l 583 972 b 604 958 597 972 604 967 b 581 939 604 949 598 943 b 559 903 554 934 551 927 l 830 84 b 884 34 840 53 854 39 b 904 15 899 29 904 24 b 883 0 904 6 897 0 l 614 0 b 592 15 599 0 592 6 b 610 31 592 24 598 28 l 654 38 b 669 83 676 42 678 55 l 583 344 l 230 344 l 161 126 b 206 39 144 76 161 53 l 243 31 b 260 15 255 28 260 24 m 571 381 l 403 894 l 242 381 "},"Â":{"ha":919,"x_min":0,"x_max":0,"o":"m 632 1024 b 607 1027 626 1019 617 1021 l 456 1114 l 304 1027 b 279 1024 294 1021 285 1019 b 281 1045 274 1028 272 1037 l 418 1194 b 456 1217 431 1209 440 1217 b 492 1194 471 1217 480 1209 l 630 1045 b 632 1024 638 1037 637 1028 m 260 15 b 239 0 260 6 253 0 l 31 0 b 10 15 17 0 10 6 b 26 31 10 22 15 27 l 56 41 b 115 123 81 51 98 68 l 357 885 b 329 938 367 916 361 930 b 305 957 312 944 305 949 b 327 972 305 967 312 972 l 583 972 b 604 958 597 972 604 967 b 581 939 604 949 598 943 b 559 903 554 934 551 927 l 830 84 b 884 34 840 53 854 39 b 904 15 899 29 904 24 b 883 0 904 6 897 0 l 614 0 b 592 15 599 0 592 6 b 610 31 592 24 598 28 l 654 38 b 669 83 676 42 678 55 l 583 344 l 230 344 l 161 126 b 206 39 144 76 161 53 l 243 31 b 260 15 255 28 260 24 m 571 381 l 403 894 l 242 381 "},"Ậ":{"ha":919,"x_min":0,"x_max":0,"o":"m 632 1024 b 607 1027 626 1019 617 1021 l 456 1114 l 304 1027 b 279 1024 294 1021 285 1019 b 281 1045 274 1028 272 1037 l 418 1194 b 456 1217 431 1209 440 1217 b 492 1194 471 1217 480 1209 l 630 1045 b 632 1024 638 1037 637 1028 m 260 15 b 239 0 260 6 253 0 l 31 0 b 10 15 17 0 10 6 b 26 31 10 22 15 27 l 56 41 b 115 123 81 51 98 68 l 357 885 b 329 938 367 916 361 930 b 305 957 312 944 305 949 b 327 972 305 967 312 972 l 583 972 b 604 958 597 972 604 967 b 581 939 604 949 598 943 b 559 903 554 934 551 927 l 830 84 b 884 34 840 53 854 39 b 904 15 899 29 904 24 b 883 0 904 6 897 0 l 614 0 b 592 15 599 0 592 6 b 610 31 592 24 598 28 l 654 38 b 669 83 676 42 678 55 l 583 344 l 230 344 l 161 126 b 206 39 144 76 161 53 l 243 31 b 260 15 255 28 260 24 m 571 381 l 403 894 l 242 381 m 447 -233 b 369 -156 399 -233 369 -201 b 447 -78 369 -110 399 -78 b 524 -156 494 -78 524 -110 b 447 -233 524 -201 494 -233 "},"Ấ":{"ha":919,"x_min":0,"x_max":0,"o":"m 668 1276 b 744 1337 692 1317 713 1340 b 790 1287 774 1335 792 1311 b 728 1216 788 1256 762 1235 l 612 1137 b 594 1138 605 1133 598 1133 b 594 1154 588 1142 591 1149 l 668 1276 m 631 1024 b 606 1027 625 1019 617 1021 l 455 1114 l 303 1027 b 278 1024 293 1021 285 1019 b 281 1045 273 1028 272 1037 l 417 1194 b 455 1217 431 1209 440 1217 b 492 1194 470 1217 478 1209 l 629 1045 b 631 1024 638 1037 636 1028 m 260 15 b 239 0 260 6 253 0 l 31 0 b 10 15 17 0 10 6 b 26 31 10 22 15 27 l 56 41 b 115 123 81 51 98 68 l 357 885 b 329 938 367 916 361 930 b 305 957 312 944 305 949 b 327 972 305 967 312 972 l 583 972 b 604 958 597 972 604 967 b 581 939 604 949 598 943 b 559 903 554 934 551 927 l 830 84 b 884 34 840 53 854 39 b 904 15 899 29 904 24 b 883 0 904 6 897 0 l 614 0 b 592 15 599 0 592 6 b 610 31 592 24 598 28 l 654 38 b 669 83 676 42 678 55 l 583 344 l 230 344 l 161 126 b 206 39 144 76 161 53 l 243 31 b 260 15 255 28 260 24 m 571 381 l 403 894 l 242 381 "},"Ầ":{"ha":919,"x_min":0,"x_max":0,"o":"m 679 1151 b 678 1133 682 1144 683 1138 b 660 1135 673 1129 666 1131 l 550 1226 b 499 1301 519 1250 499 1271 b 546 1348 498 1324 515 1347 b 619 1278 579 1349 600 1323 m 633 1024 b 608 1027 626 1019 618 1021 l 456 1114 l 305 1027 b 280 1024 294 1021 286 1019 b 282 1045 274 1028 273 1037 l 419 1194 b 456 1217 432 1209 441 1217 b 493 1194 472 1217 480 1209 l 631 1045 b 633 1024 639 1037 638 1028 m 260 15 b 239 0 260 6 253 0 l 31 0 b 10 15 17 0 10 6 b 26 31 10 22 15 27 l 56 41 b 115 123 81 51 98 68 l 357 885 b 329 938 367 916 361 930 b 305 957 312 944 305 949 b 327 972 305 967 312 972 l 583 972 b 604 958 597 972 604 967 b 581 939 604 949 598 943 b 559 903 554 934 551 927 l 830 84 b 884 34 840 53 854 39 b 904 15 899 29 904 24 b 883 0 904 6 897 0 l 614 0 b 592 15 599 0 592 6 b 610 31 592 24 598 28 l 654 38 b 669 83 676 42 678 55 l 583 344 l 230 344 l 161 126 b 206 39 144 76 161 53 l 243 31 b 260 15 255 28 260 24 m 571 381 l 403 894 l 242 381 "},"Ẩ":{"ha":919,"x_min":0,"x_max":0,"o":"m 618 1147 b 632 1159 617 1153 621 1158 b 712 1249 689 1167 712 1199 b 660 1317 712 1297 692 1317 b 612 1268 627 1317 612 1297 l 612 1251 b 571 1208 612 1224 597 1208 b 533 1248 548 1208 533 1224 b 663 1340 533 1297 590 1340 b 790 1248 742 1340 790 1304 b 639 1137 790 1187 738 1144 b 618 1147 623 1135 618 1140 m 632 1024 b 607 1027 626 1019 617 1021 l 456 1114 l 304 1027 b 279 1024 294 1021 285 1019 b 281 1045 274 1028 273 1037 l 418 1194 b 456 1217 432 1209 440 1217 b 492 1194 471 1217 480 1209 l 630 1045 b 632 1024 638 1037 638 1028 m 260 15 b 239 0 260 6 253 0 l 31 0 b 10 15 17 0 10 6 b 26 31 10 22 15 27 l 56 41 b 115 123 81 51 98 68 l 357 885 b 329 938 367 916 361 930 b 305 957 312 944 305 949 b 327 972 305 967 312 972 l 583 972 b 604 958 597 972 604 967 b 581 939 604 949 598 943 b 559 903 554 934 551 927 l 830 84 b 884 34 840 53 854 39 b 904 15 899 29 904 24 b 883 0 904 6 897 0 l 614 0 b 592 15 599 0 592 6 b 610 31 592 24 598 28 l 654 38 b 669 83 676 42 678 55 l 583 344 l 230 344 l 161 126 b 206 39 144 76 161 53 l 243 31 b 260 15 255 28 260 24 m 571 381 l 403 894 l 242 381 "},"Ẫ":{"ha":919,"x_min":0,"x_max":0,"o":"m 530 1230 b 368 1299 465 1230 418 1299 b 325 1238 340 1299 326 1278 b 310 1224 324 1228 319 1224 b 296 1242 301 1224 296 1229 b 385 1372 296 1328 328 1372 b 547 1302 450 1372 496 1302 b 590 1363 574 1302 588 1324 b 605 1377 591 1372 596 1377 b 619 1359 614 1377 619 1372 b 530 1230 619 1273 586 1230 m 634 1024 b 609 1026 628 1019 620 1022 l 456 1108 l 302 1026 b 277 1024 292 1022 284 1019 b 279 1045 272 1028 270 1037 l 418 1187 b 456 1209 433 1200 440 1209 b 492 1187 471 1209 478 1200 l 632 1045 b 634 1024 641 1037 639 1028 m 260 15 b 239 0 260 6 253 0 l 31 0 b 10 15 17 0 10 6 b 26 31 10 22 15 27 l 56 41 b 115 123 81 51 98 68 l 357 885 b 329 938 367 916 361 930 b 305 957 312 944 305 949 b 327 972 305 967 312 972 l 583 972 b 604 958 597 972 604 967 b 581 939 604 949 598 943 b 559 903 554 934 551 927 l 830 84 b 884 34 840 53 854 39 b 904 15 899 29 904 24 b 883 0 904 6 897 0 l 614 0 b 592 15 599 0 592 6 b 610 31 592 24 598 28 l 654 38 b 669 83 676 42 678 55 l 583 344 l 230 344 l 161 126 b 206 39 144 76 161 53 l 243 31 b 260 15 255 28 260 24 m 571 381 l 403 894 l 242 381 "},"Ă":{"ha":919,"x_min":0,"x_max":0,"o":"m 456 1104 b 586 1197 519 1104 563 1131 b 602 1210 591 1206 596 1210 b 615 1190 610 1210 617 1203 b 456 1021 608 1085 547 1021 b 296 1190 364 1021 303 1085 b 309 1210 294 1203 300 1210 b 324 1197 315 1210 320 1206 b 456 1104 349 1130 394 1104 m 260 15 b 239 0 260 6 253 0 l 31 0 b 10 15 17 0 10 6 b 26 31 10 22 15 27 l 56 41 b 115 123 81 51 98 68 l 357 885 b 329 938 367 916 361 930 b 305 957 312 944 305 949 b 327 972 305 967 312 972 l 583 972 b 604 958 597 972 604 967 b 581 939 604 949 598 943 b 559 903 554 934 551 927 l 830 84 b 884 34 840 53 854 39 b 904 15 899 29 904 24 b 883 0 904 6 897 0 l 614 0 b 592 15 599 0 592 6 b 610 31 592 24 598 28 l 654 38 b 669 83 676 42 678 55 l 583 344 l 230 344 l 161 126 b 206 39 144 76 161 53 l 243 31 b 260 15 255 28 260 24 m 571 381 l 403 894 l 242 381 "},"Ặ":{"ha":919,"x_min":0,"x_max":0,"o":"m 456 1104 b 586 1197 519 1104 563 1131 b 602 1210 591 1206 596 1210 b 615 1190 610 1210 617 1203 b 456 1021 608 1085 547 1021 b 296 1190 364 1021 303 1085 b 309 1210 294 1203 300 1210 b 324 1197 315 1210 320 1206 b 456 1104 349 1130 394 1104 m 260 15 b 239 0 260 6 253 0 l 31 0 b 10 15 17 0 10 6 b 26 31 10 22 15 27 l 56 41 b 115 123 81 51 98 68 l 357 885 b 329 938 367 916 361 930 b 305 957 312 944 305 949 b 327 972 305 967 312 972 l 583 972 b 604 958 597 972 604 967 b 581 939 604 949 598 943 b 559 903 554 934 551 927 l 830 84 b 884 34 840 53 854 39 b 904 15 899 29 904 24 b 883 0 904 6 897 0 l 614 0 b 592 15 599 0 592 6 b 610 31 592 24 598 28 l 654 38 b 669 83 676 42 678 55 l 583 344 l 230 344 l 161 126 b 206 39 144 76 161 53 l 243 31 b 260 15 255 28 260 24 m 571 381 l 403 894 l 242 381 m 433 -233 b 356 -156 386 -233 356 -201 b 433 -78 356 -110 386 -78 b 510 -156 481 -78 510 -110 b 433 -233 510 -201 481 -233 "},"Ắ":{"ha":919,"x_min":0,"x_max":0,"o":"m 491 1317 b 573 1372 519 1355 542 1376 b 615 1319 603 1367 618 1343 b 548 1253 610 1288 583 1269 l 421 1187 b 403 1188 415 1184 407 1183 b 406 1205 398 1193 401 1199 l 491 1317 m 453 1104 b 583 1192 517 1104 560 1130 b 599 1205 588 1201 593 1205 b 613 1185 608 1205 614 1198 b 453 1021 605 1083 544 1021 b 293 1185 361 1021 300 1083 b 306 1205 292 1198 297 1205 b 322 1192 313 1205 317 1201 b 453 1104 346 1128 391 1104 m 260 15 b 239 0 260 6 253 0 l 31 0 b 10 15 17 0 10 6 b 26 31 10 22 15 27 l 56 41 b 115 123 81 51 98 68 l 357 885 b 329 938 367 916 361 930 b 305 957 312 944 305 949 b 327 972 305 967 312 972 l 583 972 b 604 958 597 972 604 967 b 581 939 604 949 598 943 b 559 903 554 934 551 927 l 830 84 b 884 34 840 53 854 39 b 904 15 899 29 904 24 b 883 0 904 6 897 0 l 614 0 b 592 15 599 0 592 6 b 610 31 592 24 598 28 l 654 38 b 669 83 676 42 678 55 l 583 344 l 230 344 l 161 126 b 206 39 144 76 161 53 l 243 31 b 260 15 255 28 260 24 m 571 381 l 403 894 l 242 381 "},"Ằ":{"ha":919,"x_min":0,"x_max":0,"o":"m 514 1205 b 517 1188 518 1199 522 1193 b 499 1187 513 1183 505 1184 l 372 1253 b 305 1319 336 1269 309 1288 b 347 1372 301 1343 317 1367 b 428 1317 377 1376 401 1355 m 456 1104 b 588 1192 520 1104 564 1130 b 603 1205 592 1201 597 1205 b 616 1185 611 1205 617 1198 b 456 1021 609 1083 549 1021 b 297 1185 365 1021 304 1083 b 310 1205 295 1198 301 1205 b 325 1192 316 1205 321 1201 b 456 1104 349 1128 394 1104 m 260 15 b 239 0 260 6 253 0 l 31 0 b 10 15 17 0 10 6 b 26 31 10 22 15 27 l 56 41 b 115 123 81 51 98 68 l 357 885 b 329 938 367 916 361 930 b 305 957 312 944 305 949 b 327 972 305 967 312 972 l 583 972 b 604 958 597 972 604 967 b 581 939 604 949 598 943 b 559 903 554 934 551 927 l 830 84 b 884 34 840 53 854 39 b 904 15 899 29 904 24 b 883 0 904 6 897 0 l 614 0 b 592 15 599 0 592 6 b 610 31 592 24 598 28 l 654 38 b 669 83 676 42 678 55 l 583 344 l 230 344 l 161 126 b 206 39 144 76 161 53 l 243 31 b 260 15 255 28 260 24 m 571 381 l 403 894 l 242 381 "},"Ẳ":{"ha":919,"x_min":0,"x_max":0,"o":"m 413 1197 b 426 1208 412 1202 416 1207 b 505 1296 482 1215 505 1247 b 454 1363 505 1344 486 1363 b 406 1314 421 1363 406 1344 l 406 1297 b 366 1256 406 1271 391 1256 b 329 1294 344 1256 329 1272 b 456 1385 329 1344 385 1385 b 581 1295 535 1385 581 1350 b 433 1187 581 1236 530 1193 b 413 1197 417 1185 413 1190 m 456 1104 b 586 1192 519 1104 563 1130 b 602 1205 591 1201 596 1205 b 615 1185 610 1205 617 1198 b 456 1021 608 1083 547 1021 b 296 1185 364 1021 303 1083 b 309 1205 294 1198 300 1205 b 324 1192 315 1205 320 1201 b 456 1104 349 1128 394 1104 m 260 15 b 239 0 260 6 253 0 l 31 0 b 10 15 17 0 10 6 b 26 31 10 22 15 27 l 56 41 b 115 123 81 51 98 68 l 357 885 b 329 938 367 916 361 930 b 305 957 312 944 305 949 b 327 972 305 967 312 972 l 583 972 b 604 958 597 972 604 967 b 581 939 604 949 598 943 b 559 903 554 934 551 927 l 830 84 b 884 34 840 53 854 39 b 904 15 899 29 904 24 b 883 0 904 6 897 0 l 614 0 b 592 15 599 0 592 6 b 610 31 592 24 598 28 l 654 38 b 669 83 676 42 678 55 l 583 344 l 230 344 l 161 126 b 206 39 144 76 161 53 l 243 31 b 260 15 255 28 260 24 m 571 381 l 403 894 l 242 381 "},"Ẵ":{"ha":919,"x_min":0,"x_max":0,"o":"m 527 1226 b 365 1295 462 1226 415 1295 b 326 1244 341 1295 328 1278 b 310 1231 324 1235 319 1231 b 297 1248 302 1231 297 1235 b 384 1368 297 1327 329 1368 b 546 1299 449 1368 495 1299 b 585 1350 570 1299 583 1317 b 601 1363 588 1359 592 1364 b 614 1347 609 1363 614 1358 b 527 1226 614 1267 581 1226 m 456 1104 b 587 1192 520 1104 564 1130 b 603 1205 592 1201 597 1205 b 616 1185 611 1205 617 1198 b 456 1021 609 1083 548 1021 b 297 1185 365 1021 303 1083 b 310 1205 295 1198 301 1205 b 325 1192 316 1205 320 1201 b 456 1104 349 1128 395 1104 m 260 15 b 239 0 260 6 253 0 l 31 0 b 10 15 17 0 10 6 b 26 31 10 22 15 27 l 56 41 b 115 123 81 51 98 68 l 357 885 b 329 938 367 916 361 930 b 305 957 312 944 305 949 b 327 972 305 967 312 972 l 583 972 b 604 958 597 972 604 967 b 581 939 604 949 598 943 b 559 903 554 934 551 927 l 830 84 b 884 34 840 53 854 39 b 904 15 899 29 904 24 b 883 0 904 6 897 0 l 614 0 b 592 15 599 0 592 6 b 610 31 592 24 598 28 l 654 38 b 669 83 676 42 678 55 l 583 344 l 230 344 l 161 126 b 206 39 144 76 161 53 l 243 31 b 260 15 255 28 260 24 m 571 381 l 403 894 l 242 381 "},"Ȃ":{"ha":919,"x_min":0,"x_max":0,"o":"m 456 1135 b 324 1036 392 1135 350 1104 b 309 1024 320 1027 315 1024 b 296 1044 301 1024 294 1031 b 456 1218 303 1153 363 1218 b 615 1044 547 1218 607 1153 b 602 1024 617 1031 610 1024 b 586 1036 596 1024 591 1027 b 456 1135 560 1106 517 1135 m 260 15 b 239 0 260 6 253 0 l 31 0 b 10 15 17 0 10 6 b 26 31 10 22 15 27 l 56 41 b 115 123 81 51 98 68 l 357 885 b 329 938 367 916 361 930 b 305 957 312 944 305 949 b 327 972 305 967 312 972 l 583 972 b 604 958 597 972 604 967 b 581 939 604 949 598 943 b 559 903 554 934 551 927 l 830 84 b 884 34 840 53 854 39 b 904 15 899 29 904 24 b 883 0 904 6 897 0 l 614 0 b 592 15 599 0 592 6 b 610 31 592 24 598 28 l 654 38 b 669 83 676 42 678 55 l 583 344 l 230 344 l 161 126 b 206 39 144 76 161 53 l 243 31 b 260 15 255 28 260 24 m 571 381 l 403 894 l 242 381 "},"Ã":{"ha":919,"x_min":0,"x_max":0,"o":"m 533 1030 b 363 1099 460 1030 415 1099 b 317 1039 333 1099 319 1079 b 302 1024 315 1029 310 1024 b 287 1044 292 1024 287 1030 b 383 1180 287 1134 320 1180 b 552 1110 456 1180 499 1110 b 599 1170 582 1110 597 1131 b 614 1185 600 1181 605 1185 b 628 1165 624 1185 628 1180 b 533 1030 628 1076 595 1030 m 260 15 b 239 0 260 6 253 0 l 31 0 b 10 15 17 0 10 6 b 26 31 10 22 15 27 l 56 41 b 115 123 81 51 98 68 l 357 885 b 329 938 367 916 361 930 b 305 957 312 944 305 949 b 327 972 305 967 312 972 l 583 972 b 604 958 597 972 604 967 b 581 939 604 949 598 943 b 559 903 554 934 551 927 l 830 84 b 884 34 840 53 854 39 b 904 15 899 29 904 24 b 883 0 904 6 897 0 l 614 0 b 592 15 599 0 592 6 b 610 31 592 24 598 28 l 654 38 b 669 83 676 42 678 55 l 583 344 l 230 344 l 161 126 b 206 39 144 76 161 53 l 243 31 b 260 15 255 28 260 24 m 571 381 l 403 894 l 242 381 "},"Ā":{"ha":919,"x_min":0,"x_max":0,"o":"m 278 1099 b 304 1129 278 1120 288 1129 l 605 1129 b 631 1099 622 1129 631 1121 b 605 1069 631 1078 622 1069 l 304 1069 b 278 1099 288 1069 278 1078 m 260 15 b 239 0 260 6 253 0 l 31 0 b 10 15 17 0 10 6 b 26 31 10 22 15 27 l 56 41 b 115 123 81 51 98 68 l 357 885 b 329 938 367 916 361 930 b 305 957 312 944 305 949 b 327 972 305 967 312 972 l 583 972 b 604 958 597 972 604 967 b 581 939 604 949 598 943 b 559 903 554 934 551 927 l 830 84 b 884 34 840 53 854 39 b 904 15 899 29 904 24 b 883 0 904 6 897 0 l 614 0 b 592 15 599 0 592 6 b 610 31 592 24 598 28 l 654 38 b 669 83 676 42 678 55 l 583 344 l 230 344 l 161 126 b 206 39 144 76 161 53 l 243 31 b 260 15 255 28 260 24 m 571 381 l 403 894 l 242 381 "},"Ä":{"ha":919,"x_min":0,"x_max":0,"o":"m 335 1034 b 260 1108 290 1034 260 1065 b 335 1181 260 1151 290 1181 b 408 1108 379 1181 408 1151 b 335 1034 408 1065 379 1034 m 574 1034 b 500 1108 530 1034 500 1065 b 574 1181 500 1151 530 1181 b 649 1108 619 1181 649 1151 b 574 1034 649 1065 619 1034 m 260 15 b 239 0 260 6 253 0 l 31 0 b 10 15 17 0 10 6 b 26 31 10 22 15 27 l 56 41 b 115 123 81 51 98 68 l 357 885 b 329 938 367 916 361 930 b 305 957 312 944 305 949 b 327 972 305 967 312 972 l 583 972 b 604 958 597 972 604 967 b 581 939 604 949 598 943 b 559 903 554 934 551 927 l 830 84 b 884 34 840 53 854 39 b 904 15 899 29 904 24 b 883 0 904 6 897 0 l 614 0 b 592 15 599 0 592 6 b 610 31 592 24 598 28 l 654 38 b 669 83 676 42 678 55 l 583 344 l 230 344 l 161 126 b 206 39 144 76 161 53 l 243 31 b 260 15 255 28 260 24 m 571 381 l 403 894 l 242 381 "},"Å":{"ha":919,"x_min":0,"x_max":0,"o":"m 457 1017 b 327 1131 384 1017 327 1063 b 457 1245 327 1199 384 1245 b 586 1131 530 1245 586 1198 b 457 1017 586 1064 530 1017 m 458 1213 b 393 1131 422 1213 393 1182 b 458 1049 393 1081 422 1049 b 520 1131 493 1049 520 1081 b 458 1213 520 1182 493 1213 m 260 15 b 239 0 260 6 253 0 l 31 0 b 10 15 17 0 10 6 b 26 31 10 22 15 27 l 56 41 b 115 123 81 51 98 68 l 357 885 b 329 938 367 916 361 930 b 305 957 312 944 305 949 b 327 972 305 967 312 972 l 583 972 b 604 958 597 972 604 967 b 581 939 604 949 598 943 b 559 903 554 934 551 927 l 830 84 b 884 34 840 53 854 39 b 904 15 899 29 904 24 b 883 0 904 6 897 0 l 614 0 b 592 15 599 0 592 6 b 610 31 592 24 598 28 l 654 38 b 669 83 676 42 678 55 l 583 344 l 230 344 l 161 126 b 206 39 144 76 161 53 l 243 31 b 260 15 255 28 260 24 m 571 381 l 403 894 l 242 381 "},"Ǻ":{"ha":919,"x_min":0,"x_max":0,"o":"m 493 1417 b 577 1472 522 1458 544 1479 b 615 1417 608 1466 620 1440 b 550 1353 610 1388 585 1371 l 423 1281 b 406 1283 416 1278 409 1278 b 409 1300 401 1288 404 1295 l 493 1417 m 459 1019 b 328 1136 386 1019 328 1067 b 459 1251 328 1205 386 1251 b 590 1136 533 1251 590 1203 b 459 1019 590 1067 533 1019 m 460 1219 b 395 1136 424 1219 395 1188 b 460 1052 395 1085 424 1052 b 524 1136 497 1052 524 1085 b 460 1219 524 1188 497 1219 m 260 15 b 239 0 260 6 253 0 l 31 0 b 10 15 17 0 10 6 b 26 31 10 22 15 27 l 56 41 b 115 123 81 51 98 68 l 357 885 b 329 938 367 916 361 930 b 305 957 312 944 305 949 b 327 972 305 967 312 972 l 583 972 b 604 958 597 972 604 967 b 581 939 604 949 598 943 b 559 903 554 934 551 927 l 830 84 b 884 34 840 53 854 39 b 904 15 899 29 904 24 b 883 0 904 6 897 0 l 614 0 b 592 15 599 0 592 6 b 610 31 592 24 598 28 l 654 38 b 669 83 676 42 678 55 l 583 344 l 230 344 l 161 126 b 206 39 144 76 161 53 l 243 31 b 260 15 255 28 260 24 m 571 381 l 403 894 l 242 381 "},"Ả":{"ha":919,"x_min":0,"x_max":0,"o":"m 411 1035 b 425 1047 411 1040 415 1045 b 513 1147 488 1055 513 1090 b 456 1222 513 1201 492 1222 b 402 1171 419 1222 402 1202 l 402 1148 b 358 1103 402 1119 385 1103 b 317 1147 333 1103 317 1121 b 459 1244 317 1200 378 1244 b 599 1145 547 1244 599 1206 b 433 1024 599 1079 544 1032 b 411 1035 417 1023 412 1028 m 260 15 b 239 0 260 6 253 0 l 31 0 b 10 15 17 0 10 6 b 26 31 10 22 15 27 l 56 41 b 115 123 81 51 98 68 l 357 885 b 329 938 367 916 361 930 b 305 957 312 944 305 949 b 327 972 305 967 312 972 l 583 972 b 604 958 597 972 604 967 b 581 939 604 949 598 943 b 559 903 554 934 551 927 l 830 84 b 884 34 840 53 854 39 b 904 15 899 29 904 24 b 883 0 904 6 897 0 l 614 0 b 592 15 599 0 592 6 b 610 31 592 24 598 28 l 654 38 b 669 83 676 42 678 55 l 583 344 l 230 344 l 161 126 b 206 39 144 76 161 53 l 243 31 b 260 15 255 28 260 24 m 571 381 l 403 894 l 242 381 "},"Ạ":{"ha":919,"x_min":0,"x_max":0,"o":"m 260 15 b 239 0 260 6 253 0 l 31 0 b 10 15 17 0 10 6 b 26 31 10 22 15 27 l 56 41 b 115 123 81 51 98 68 l 357 885 b 329 938 367 916 361 930 b 305 957 312 944 305 949 b 327 972 305 967 312 972 l 583 972 b 604 958 597 972 604 967 b 581 939 604 949 598 943 b 559 903 554 934 551 927 l 830 84 b 884 34 840 53 854 39 b 904 15 899 29 904 24 b 883 0 904 6 897 0 l 614 0 b 592 15 599 0 592 6 b 610 31 592 24 598 28 l 654 38 b 669 83 676 42 678 55 l 583 344 l 230 344 l 161 126 b 206 39 144 76 161 53 l 243 31 b 260 15 255 28 260 24 m 571 381 l 403 894 l 242 381 m 433 -233 b 356 -156 386 -233 356 -201 b 433 -78 356 -110 386 -78 b 510 -156 481 -78 510 -110 b 433 -233 510 -201 481 -233 "},"Ą":{"ha":919,"x_min":0,"x_max":0,"o":"m 260 15 b 239 0 260 6 253 0 l 31 0 b 10 15 17 0 10 6 b 26 31 10 22 15 27 l 56 41 b 115 123 81 51 98 68 l 357 885 b 329 938 367 916 361 930 b 305 957 312 944 305 949 b 327 972 305 967 312 972 l 583 972 b 604 958 597 972 604 967 b 581 939 604 949 598 943 b 559 903 554 934 551 927 l 830 84 b 884 34 840 53 854 39 b 904 15 899 29 904 24 b 883 0 904 6 897 0 l 776 0 b 663 -160 699 -40 663 -91 b 735 -250 663 -219 692 -250 b 808 -208 765 -250 793 -233 b 824 -201 813 -202 817 -199 b 830 -220 830 -203 834 -209 b 704 -288 817 -255 771 -288 b 563 -174 615 -288 563 -246 b 722 0 563 -107 609 -48 l 614 0 b 592 15 599 0 592 6 b 610 31 592 24 598 28 l 654 38 b 669 83 676 42 678 55 l 583 344 l 230 344 l 161 126 b 206 39 144 76 161 53 l 243 31 b 260 15 255 28 260 24 m 571 381 l 403 894 l 242 381 "},"Ć":{"ha":925,"x_min":0,"x_max":0,"o":"m 583 1168 b 672 1224 613 1207 639 1230 b 715 1167 703 1219 720 1191 b 643 1096 710 1132 681 1113 l 505 1027 b 485 1029 498 1024 490 1024 b 488 1047 480 1035 483 1041 l 583 1168 m 883 255 b 515 -23 874 113 733 -23 b 53 477 231 -23 53 183 b 509 993 53 778 244 993 b 730 931 651 993 711 931 b 790 988 753 931 769 988 b 808 969 799 988 804 983 l 882 723 b 868 697 886 710 880 699 b 841 713 856 695 847 701 b 531 954 767 886 664 954 b 213 523 347 954 213 790 b 573 53 213 222 364 53 b 854 256 715 53 813 131 b 873 269 860 267 865 270 b 883 255 880 269 883 263 "},"Ĉ":{"ha":925,"x_min":0,"x_max":0,"o":"m 690 1028 b 665 1031 683 1023 675 1024 l 513 1117 l 362 1031 b 337 1028 351 1024 343 1023 b 339 1049 332 1031 331 1040 l 476 1198 b 514 1221 490 1213 498 1221 b 551 1198 528 1221 538 1213 l 688 1049 b 690 1028 696 1040 695 1031 m 883 255 b 515 -23 874 113 733 -23 b 53 477 231 -23 53 183 b 509 993 53 778 244 993 b 730 931 651 993 711 931 b 790 988 753 931 769 988 b 808 969 799 988 804 983 l 882 723 b 868 697 886 710 880 699 b 841 713 856 695 847 701 b 531 954 767 886 664 954 b 213 523 347 954 213 790 b 573 53 213 222 364 53 b 854 256 715 53 813 131 b 873 269 860 267 865 270 b 883 255 880 269 883 263 "},"Č":{"ha":925,"x_min":0,"x_max":0,"o":"m 551 1048 b 514 1026 538 1034 529 1026 b 476 1048 499 1026 490 1034 l 339 1198 b 337 1219 331 1206 332 1215 b 362 1216 343 1224 351 1222 l 513 1129 l 665 1216 b 690 1219 675 1222 683 1224 b 688 1198 695 1215 697 1206 l 551 1048 m 883 255 b 515 -23 874 113 733 -23 b 53 477 231 -23 53 183 b 509 993 53 778 244 993 b 730 931 651 993 711 931 b 790 988 753 931 769 988 b 808 969 799 988 804 983 l 882 723 b 868 697 886 710 880 699 b 841 713 856 695 847 701 b 531 954 767 886 664 954 b 213 523 347 954 213 790 b 573 53 213 222 364 53 b 854 256 715 53 813 131 b 873 269 860 267 865 270 b 883 255 880 269 883 263 "},"Ċ":{"ha":925,"x_min":0,"x_max":0,"o":"m 513 1040 b 435 1116 466 1040 435 1072 b 513 1192 435 1160 466 1192 b 592 1116 562 1192 592 1160 b 513 1040 592 1072 562 1040 m 883 255 b 515 -23 874 113 733 -23 b 53 477 231 -23 53 183 b 509 993 53 778 244 993 b 730 931 651 993 711 931 b 790 988 753 931 769 988 b 808 969 799 988 804 983 l 882 723 b 868 697 886 710 880 699 b 841 713 856 695 847 701 b 531 954 767 886 664 954 b 213 523 347 954 213 790 b 573 53 213 222 364 53 b 854 256 715 53 813 131 b 873 269 860 267 865 270 b 883 255 880 269 883 263 "},"Ç":{"ha":925,"x_min":0,"x_max":0,"o":"m 883 255 b 515 -23 874 113 733 -23 b 507 -23 513 -23 510 -23 l 473 -85 b 497 -84 480 -85 487 -84 b 626 -183 578 -84 626 -125 b 494 -290 626 -247 575 -290 b 371 -220 426 -290 379 -259 b 383 -204 370 -211 375 -205 b 400 -213 390 -203 395 -207 b 477 -260 413 -247 444 -260 b 538 -184 515 -260 538 -234 b 470 -110 538 -140 515 -110 l 450 -110 b 440 -90 437 -110 433 -101 l 478 -22 b 53 477 215 -4 53 196 b 509 993 53 778 244 993 b 730 931 651 993 711 931 b 790 988 753 931 769 988 b 808 969 799 988 804 983 l 882 723 b 868 697 886 710 880 699 b 841 713 856 695 847 701 b 531 954 767 886 664 954 b 213 523 347 954 213 790 b 573 53 213 222 364 53 b 854 256 715 53 813 131 b 873 269 860 267 865 270 b 883 255 880 269 883 263 "},"Ḉ":{"ha":925,"x_min":0,"x_max":0,"o":"m 583 1168 b 672 1224 613 1207 639 1230 b 715 1167 703 1219 720 1191 b 643 1096 710 1132 681 1113 l 505 1027 b 485 1029 498 1024 490 1024 b 488 1047 480 1035 483 1041 l 583 1168 m 883 255 b 515 -23 874 113 733 -23 b 507 -23 513 -23 510 -23 l 473 -85 b 497 -84 480 -85 487 -84 b 626 -183 578 -84 626 -125 b 494 -290 626 -247 575 -290 b 371 -220 426 -290 379 -259 b 383 -204 370 -211 375 -205 b 400 -213 390 -203 395 -207 b 477 -260 413 -247 444 -260 b 538 -184 515 -260 538 -234 b 470 -110 538 -140 515 -110 l 450 -110 b 440 -90 437 -110 433 -101 l 478 -22 b 53 477 215 -4 53 196 b 509 993 53 778 244 993 b 730 931 651 993 711 931 b 790 988 753 931 769 988 b 808 969 799 988 804 983 l 882 723 b 868 697 886 710 880 699 b 841 713 856 695 847 701 b 531 954 767 886 664 954 b 213 523 347 954 213 790 b 573 53 213 222 364 53 b 854 256 715 53 813 131 b 873 269 860 267 865 270 b 883 255 880 269 883 263 "},"Ď":{"ha":1032,"x_min":0,"x_max":0,"o":"m 546 1042 b 509 1019 533 1028 524 1019 b 472 1042 494 1019 485 1028 l 334 1192 b 332 1213 326 1200 327 1209 b 357 1210 338 1217 347 1216 l 508 1123 l 660 1210 b 685 1213 670 1216 678 1217 b 683 1192 690 1209 692 1200 l 546 1042 m 65 15 b 82 33 65 24 70 30 l 138 42 b 167 70 158 46 167 55 l 167 901 b 138 931 167 917 158 926 l 82 940 b 65 957 70 943 65 948 b 86 972 65 967 72 972 l 410 972 b 979 451 751 972 979 763 b 481 0 979 181 788 0 l 86 0 b 65 15 72 0 65 6 m 475 35 b 819 462 681 35 819 178 b 400 937 819 756 660 937 l 320 937 l 320 78 b 372 35 320 49 338 35 l 475 35 "},"Ḍ":{"ha":1032,"x_min":0,"x_max":0,"o":"m 65 15 b 82 33 65 24 70 30 l 138 42 b 167 70 158 46 167 55 l 167 901 b 138 931 167 917 158 926 l 82 940 b 65 957 70 943 65 948 b 86 972 65 967 72 972 l 410 972 b 979 451 751 972 979 763 b 481 0 979 181 788 0 l 86 0 b 65 15 72 0 65 6 m 475 35 b 819 462 681 35 819 178 b 400 937 819 756 660 937 l 320 937 l 320 78 b 372 35 320 49 338 35 l 475 35 m 508 -233 b 431 -156 462 -233 431 -201 b 508 -78 431 -110 462 -78 b 586 -156 556 -78 586 -110 b 508 -233 586 -201 556 -233 "},"Ḏ":{"ha":1032,"x_min":0,"x_max":0,"o":"m 65 15 b 82 33 65 24 70 30 l 138 42 b 167 70 158 46 167 55 l 167 901 b 138 931 167 917 158 926 l 82 940 b 65 957 70 943 65 948 b 86 972 65 967 72 972 l 410 972 b 979 451 751 972 979 763 b 481 0 979 181 788 0 l 86 0 b 65 15 72 0 65 6 m 475 35 b 819 462 681 35 819 178 b 400 937 819 756 660 937 l 320 937 l 320 78 b 372 35 320 49 338 35 l 475 35 m 331 -148 b 357 -117 331 -126 340 -117 l 660 -117 b 686 -148 677 -117 686 -126 b 660 -178 686 -169 677 -178 l 357 -178 b 331 -148 340 -178 331 -169 "},"É":{"ha":851,"x_min":0,"x_max":0,"o":"m 509 1162 b 598 1218 538 1201 565 1224 b 642 1160 630 1213 646 1185 b 569 1090 637 1126 608 1106 l 431 1021 b 411 1023 424 1018 415 1018 b 415 1042 406 1028 410 1035 l 509 1162 m 65 957 b 86 972 65 966 72 972 l 632 972 b 708 997 669 972 688 997 b 732 971 720 997 726 991 l 788 761 b 777 738 791 749 787 741 b 750 751 766 735 756 739 b 542 936 670 906 626 936 l 320 936 l 320 508 l 503 508 b 596 603 566 508 588 530 b 612 622 598 616 603 622 b 631 606 622 624 628 617 l 690 396 b 680 373 693 383 690 376 b 656 383 671 370 663 373 b 524 473 613 456 587 473 l 320 473 l 320 83 b 378 36 320 51 339 36 l 556 36 b 776 268 642 36 687 71 b 799 282 781 279 789 283 b 811 257 810 280 815 272 l 749 5 b 723 -23 744 -15 737 -23 b 642 0 703 -23 685 0 l 86 0 b 65 15 72 0 65 6 b 83 33 65 24 70 30 l 138 42 b 167 70 157 45 167 55 l 167 902 b 138 931 167 917 157 927 l 83 940 b 65 957 70 942 65 948 "},"È":{"ha":851,"x_min":0,"x_max":0,"o":"m 502 1042 b 506 1023 507 1035 510 1028 b 486 1021 501 1018 492 1018 l 347 1090 b 275 1160 309 1106 280 1126 b 319 1218 270 1185 287 1213 b 408 1162 351 1224 378 1201 m 65 957 b 86 972 65 966 72 972 l 632 972 b 708 997 669 972 688 997 b 732 971 720 997 726 991 l 788 761 b 777 738 791 749 787 741 b 750 751 766 735 756 739 b 542 936 670 906 626 936 l 320 936 l 320 508 l 503 508 b 596 603 566 508 588 530 b 612 622 598 616 603 622 b 631 606 622 624 628 617 l 690 396 b 680 373 693 383 690 376 b 656 383 671 370 663 373 b 524 473 613 456 587 473 l 320 473 l 320 83 b 378 36 320 51 339 36 l 556 36 b 776 268 642 36 687 71 b 799 282 781 279 789 283 b 811 257 810 280 815 272 l 749 5 b 723 -23 744 -15 737 -23 b 642 0 703 -23 685 0 l 86 0 b 65 15 72 0 65 6 b 83 33 65 24 70 30 l 138 42 b 167 70 157 45 167 55 l 167 902 b 138 931 167 917 157 927 l 83 940 b 65 957 70 942 65 948 "},"Ȅ":{"ha":851,"x_min":0,"x_max":0,"o":"m 576 1040 b 576 1022 580 1033 581 1026 b 557 1023 572 1017 563 1019 l 444 1103 b 385 1176 412 1123 389 1144 b 433 1228 383 1203 403 1226 b 512 1162 467 1231 490 1205 m 387 1040 b 388 1022 391 1033 393 1026 b 368 1023 383 1017 375 1019 l 256 1101 b 195 1173 223 1122 199 1142 b 242 1227 192 1201 213 1224 b 322 1162 275 1231 299 1205 m 65 957 b 86 972 65 966 72 972 l 632 972 b 708 997 669 972 688 997 b 732 971 720 997 726 991 l 788 761 b 777 738 791 749 787 741 b 750 751 766 735 756 739 b 542 936 670 906 626 936 l 320 936 l 320 508 l 503 508 b 596 603 566 508 588 530 b 612 622 598 616 603 622 b 631 606 622 624 628 617 l 690 396 b 680 373 693 383 690 376 b 656 383 671 370 663 373 b 524 473 613 456 587 473 l 320 473 l 320 83 b 378 36 320 51 339 36 l 556 36 b 776 268 642 36 687 71 b 799 282 781 279 789 283 b 811 257 810 280 815 272 l 749 5 b 723 -23 744 -15 737 -23 b 642 0 703 -23 685 0 l 86 0 b 65 15 72 0 65 6 b 83 33 65 24 70 30 l 138 42 b 167 70 157 45 167 55 l 167 902 b 138 931 167 917 157 927 l 83 940 b 65 957 70 942 65 948 "},"Ê":{"ha":851,"x_min":0,"x_max":0,"o":"m 616 1024 b 591 1027 610 1019 601 1021 l 440 1114 l 288 1027 b 263 1024 278 1021 269 1019 b 265 1045 258 1028 256 1037 l 402 1194 b 440 1217 415 1209 424 1217 b 476 1194 455 1217 463 1209 l 614 1045 b 616 1024 622 1037 621 1028 m 65 957 b 86 972 65 966 72 972 l 632 972 b 708 997 669 972 688 997 b 732 971 720 997 726 991 l 788 761 b 777 738 791 749 787 741 b 750 751 766 735 756 739 b 542 936 670 906 626 936 l 320 936 l 320 508 l 503 508 b 596 603 566 508 588 530 b 612 622 598 616 603 622 b 631 606 622 624 628 617 l 690 396 b 680 373 693 383 690 376 b 656 383 671 370 663 373 b 524 473 613 456 587 473 l 320 473 l 320 83 b 378 36 320 51 339 36 l 556 36 b 776 268 642 36 687 71 b 799 282 781 279 789 283 b 811 257 810 280 815 272 l 749 5 b 723 -23 744 -15 737 -23 b 642 0 703 -23 685 0 l 86 0 b 65 15 72 0 65 6 b 83 33 65 24 70 30 l 138 42 b 167 70 157 45 167 55 l 167 902 b 138 931 167 917 157 927 l 83 940 b 65 957 70 942 65 948 "},"Ệ":{"ha":851,"x_min":0,"x_max":0,"o":"m 616 1024 b 591 1027 610 1019 601 1021 l 440 1114 l 288 1027 b 263 1024 278 1021 269 1019 b 265 1045 258 1028 256 1037 l 402 1194 b 440 1217 415 1209 424 1217 b 476 1194 455 1217 463 1209 l 614 1045 b 616 1024 622 1037 621 1028 m 65 957 b 86 972 65 966 72 972 l 632 972 b 708 997 669 972 688 997 b 732 971 720 997 726 991 l 788 761 b 777 738 791 749 787 741 b 750 751 766 735 756 739 b 542 936 670 906 626 936 l 320 936 l 320 508 l 503 508 b 596 603 566 508 588 530 b 612 622 598 616 603 622 b 631 606 622 624 628 617 l 690 396 b 680 373 693 383 690 376 b 656 383 671 370 663 373 b 524 473 613 456 587 473 l 320 473 l 320 83 b 378 36 320 51 339 36 l 556 36 b 776 268 642 36 687 71 b 799 282 781 279 789 283 b 811 257 810 280 815 272 l 749 5 b 723 -23 744 -15 737 -23 b 642 0 703 -23 685 0 l 86 0 b 65 15 72 0 65 6 b 83 33 65 24 70 30 l 138 42 b 167 70 157 45 167 55 l 167 902 b 138 931 167 917 157 927 l 83 940 b 65 957 70 942 65 948 m 440 -233 b 362 -156 392 -233 362 -201 b 440 -78 362 -110 392 -78 b 517 -156 487 -78 517 -110 b 440 -233 517 -201 487 -233 "},"Ế":{"ha":851,"x_min":0,"x_max":0,"o":"m 651 1276 b 728 1337 675 1317 697 1340 b 773 1287 758 1335 775 1311 b 712 1216 771 1256 745 1235 l 595 1137 b 577 1138 589 1133 581 1133 b 578 1154 572 1142 574 1149 l 651 1276 m 615 1024 b 590 1027 608 1019 600 1021 l 438 1114 l 287 1027 b 262 1024 276 1021 268 1019 b 264 1045 257 1028 256 1037 l 401 1194 b 438 1217 415 1209 423 1217 b 475 1194 453 1217 463 1209 l 613 1045 b 615 1024 621 1037 619 1028 m 65 957 b 86 972 65 966 72 972 l 632 972 b 708 997 669 972 688 997 b 732 971 720 997 726 991 l 788 761 b 777 738 791 749 787 741 b 750 751 766 735 756 739 b 542 936 670 906 626 936 l 320 936 l 320 508 l 503 508 b 596 603 566 508 588 530 b 612 622 598 616 603 622 b 631 606 622 624 628 617 l 690 396 b 680 373 693 383 690 376 b 656 383 671 370 663 373 b 524 473 613 456 587 473 l 320 473 l 320 83 b 378 36 320 51 339 36 l 556 36 b 776 268 642 36 687 71 b 799 282 781 279 789 283 b 811 257 810 280 815 272 l 749 5 b 723 -23 744 -15 737 -23 b 642 0 703 -23 685 0 l 86 0 b 65 15 72 0 65 6 b 83 33 65 24 70 30 l 138 42 b 167 70 157 45 167 55 l 167 902 b 138 931 167 917 157 927 l 83 940 b 65 957 70 942 65 948 "},"Ề":{"ha":851,"x_min":0,"x_max":0,"o":"m 663 1151 b 662 1133 666 1144 667 1138 b 644 1135 657 1129 650 1131 l 534 1226 b 483 1301 503 1250 483 1271 b 530 1348 481 1324 499 1347 b 603 1278 563 1349 584 1323 m 617 1024 b 592 1027 610 1019 602 1021 l 440 1114 l 288 1027 b 263 1024 278 1021 269 1019 b 265 1045 258 1028 257 1037 l 403 1194 b 440 1217 416 1209 425 1217 b 477 1194 456 1217 464 1209 l 615 1045 b 617 1024 623 1037 622 1028 m 65 957 b 86 972 65 966 72 972 l 632 972 b 708 997 669 972 688 997 b 732 971 720 997 726 991 l 788 761 b 777 738 791 749 787 741 b 750 751 766 735 756 739 b 542 936 670 906 626 936 l 320 936 l 320 508 l 503 508 b 596 603 566 508 588 530 b 612 622 598 616 603 622 b 631 606 622 624 628 617 l 690 396 b 680 373 693 383 690 376 b 656 383 671 370 663 373 b 524 473 613 456 587 473 l 320 473 l 320 83 b 378 36 320 51 339 36 l 556 36 b 776 268 642 36 687 71 b 799 282 781 279 789 283 b 811 257 810 280 815 272 l 749 5 b 723 -23 744 -15 737 -23 b 642 0 703 -23 685 0 l 86 0 b 65 15 72 0 65 6 b 83 33 65 24 70 30 l 138 42 b 167 70 157 45 167 55 l 167 902 b 138 931 167 917 157 927 l 83 940 b 65 957 70 942 65 948 "},"Ể":{"ha":851,"x_min":0,"x_max":0,"o":"m 601 1147 b 615 1159 601 1153 604 1158 b 695 1249 672 1167 695 1199 b 644 1317 695 1297 676 1317 b 595 1268 610 1317 595 1297 l 595 1251 b 554 1208 595 1224 580 1208 b 517 1248 531 1208 517 1224 b 646 1340 517 1297 573 1340 b 773 1248 726 1340 773 1304 b 622 1137 773 1187 721 1144 b 601 1147 606 1135 601 1140 m 615 1024 b 590 1027 609 1019 601 1021 l 439 1114 l 288 1027 b 263 1024 277 1021 269 1019 b 265 1045 258 1028 256 1037 l 401 1194 b 440 1217 415 1209 424 1217 b 476 1194 454 1217 463 1209 l 613 1045 b 615 1024 622 1037 621 1028 m 65 957 b 86 972 65 966 72 972 l 632 972 b 708 997 669 972 688 997 b 732 971 720 997 726 991 l 788 761 b 777 738 791 749 787 741 b 750 751 766 735 756 739 b 542 936 670 906 626 936 l 320 936 l 320 508 l 503 508 b 596 603 566 508 588 530 b 612 622 598 616 603 622 b 631 606 622 624 628 617 l 690 396 b 680 373 693 383 690 376 b 656 383 671 370 663 373 b 524 473 613 456 587 473 l 320 473 l 320 83 b 378 36 320 51 339 36 l 556 36 b 776 268 642 36 687 71 b 799 282 781 279 789 283 b 811 257 810 280 815 272 l 749 5 b 723 -23 744 -15 737 -23 b 642 0 703 -23 685 0 l 86 0 b 65 15 72 0 65 6 b 83 33 65 24 70 30 l 138 42 b 167 70 157 45 167 55 l 167 902 b 138 931 167 917 157 927 l 83 940 b 65 957 70 942 65 948 "},"Ễ":{"ha":851,"x_min":0,"x_max":0,"o":"m 513 1230 b 352 1299 449 1230 401 1299 b 309 1238 324 1299 310 1278 b 294 1224 308 1228 303 1224 b 280 1242 285 1224 280 1229 b 369 1372 280 1328 313 1372 b 531 1302 434 1372 480 1302 b 574 1363 558 1302 572 1324 b 588 1377 575 1372 580 1377 b 603 1359 598 1377 603 1372 b 513 1230 603 1273 569 1230 m 617 1024 b 593 1026 611 1019 603 1022 l 440 1108 l 286 1026 b 261 1024 275 1022 267 1019 b 263 1045 256 1028 254 1037 l 402 1187 b 440 1209 417 1200 424 1209 b 476 1187 455 1209 463 1200 l 615 1045 b 617 1024 625 1037 623 1028 m 65 957 b 86 972 65 966 72 972 l 632 972 b 708 997 669 972 688 997 b 732 971 720 997 726 991 l 788 761 b 777 738 791 749 787 741 b 750 751 766 735 756 739 b 542 936 670 906 626 936 l 320 936 l 320 508 l 503 508 b 596 603 566 508 588 530 b 612 622 598 616 603 622 b 631 606 622 624 628 617 l 690 396 b 680 373 693 383 690 376 b 656 383 671 370 663 373 b 524 473 613 456 587 473 l 320 473 l 320 83 b 378 36 320 51 339 36 l 556 36 b 776 268 642 36 687 71 b 799 282 781 279 789 283 b 811 257 810 280 815 272 l 749 5 b 723 -23 744 -15 737 -23 b 642 0 703 -23 685 0 l 86 0 b 65 15 72 0 65 6 b 83 33 65 24 70 30 l 138 42 b 167 70 157 45 167 55 l 167 902 b 138 931 167 917 157 927 l 83 940 b 65 957 70 942 65 948 "},"Ě":{"ha":851,"x_min":0,"x_max":0,"o":"m 476 1042 b 440 1019 463 1028 455 1019 b 402 1042 424 1019 415 1028 l 265 1192 b 263 1213 256 1200 258 1209 b 288 1210 269 1217 278 1216 l 440 1123 l 591 1210 b 616 1213 601 1216 610 1217 b 614 1192 621 1209 622 1200 l 476 1042 m 65 957 b 86 972 65 966 72 972 l 632 972 b 708 997 669 972 688 997 b 732 971 720 997 726 991 l 788 761 b 777 738 791 749 787 741 b 750 751 766 735 756 739 b 542 936 670 906 626 936 l 320 936 l 320 508 l 503 508 b 596 603 566 508 588 530 b 612 622 598 616 603 622 b 631 606 622 624 628 617 l 690 396 b 680 373 693 383 690 376 b 656 383 671 370 663 373 b 524 473 613 456 587 473 l 320 473 l 320 83 b 378 36 320 51 339 36 l 556 36 b 776 268 642 36 687 71 b 799 282 781 279 789 283 b 811 257 810 280 815 272 l 749 5 b 723 -23 744 -15 737 -23 b 642 0 703 -23 685 0 l 86 0 b 65 15 72 0 65 6 b 83 33 65 24 70 30 l 138 42 b 167 70 157 45 167 55 l 167 902 b 138 931 167 917 157 927 l 83 940 b 65 957 70 942 65 948 "},"Ĕ":{"ha":851,"x_min":0,"x_max":0,"o":"m 439 1104 b 570 1197 503 1104 547 1131 b 585 1210 575 1206 580 1210 b 599 1190 594 1210 600 1203 b 439 1021 592 1085 531 1021 b 280 1190 347 1021 287 1085 b 293 1210 278 1203 284 1210 b 308 1197 299 1210 303 1206 b 439 1104 333 1130 378 1104 m 65 957 b 86 972 65 966 72 972 l 632 972 b 708 997 669 972 688 997 b 732 971 720 997 726 991 l 788 761 b 777 738 791 749 787 741 b 750 751 766 735 756 739 b 542 936 670 906 626 936 l 320 936 l 320 508 l 503 508 b 596 603 566 508 588 530 b 612 622 598 616 603 622 b 631 606 622 624 628 617 l 690 396 b 680 373 693 383 690 376 b 656 383 671 370 663 373 b 524 473 613 456 587 473 l 320 473 l 320 83 b 378 36 320 51 339 36 l 556 36 b 776 268 642 36 687 71 b 799 282 781 279 789 283 b 811 257 810 280 815 272 l 749 5 b 723 -23 744 -15 737 -23 b 642 0 703 -23 685 0 l 86 0 b 65 15 72 0 65 6 b 83 33 65 24 70 30 l 138 42 b 167 70 157 45 167 55 l 167 902 b 138 931 167 917 157 927 l 83 940 b 65 957 70 942 65 948 "},"Ḝ":{"ha":851,"x_min":0,"x_max":0,"o":"m 439 1104 b 570 1197 503 1104 547 1131 b 585 1210 575 1206 580 1210 b 599 1190 594 1210 600 1203 b 439 1021 592 1085 531 1021 b 280 1190 347 1021 287 1085 b 293 1210 278 1203 284 1210 b 308 1197 299 1210 303 1206 b 439 1104 333 1130 378 1104 m 65 957 b 86 972 65 966 72 972 l 632 972 b 708 997 669 972 688 997 b 732 971 720 997 726 991 l 788 761 b 777 738 791 749 787 741 b 750 751 766 735 756 739 b 542 936 670 906 626 936 l 320 936 l 320 508 l 503 508 b 596 603 566 508 588 530 b 612 622 598 616 603 622 b 631 606 622 624 628 617 l 690 396 b 680 373 693 383 690 376 b 656 383 671 370 663 373 b 524 473 613 456 587 473 l 320 473 l 320 83 b 378 36 320 51 339 36 l 556 36 b 776 268 642 36 687 71 b 799 282 781 279 789 283 b 811 257 810 280 815 272 l 749 5 b 723 -23 744 -15 737 -23 b 642 0 703 -23 685 0 l 452 0 l 406 -85 b 429 -84 413 -85 419 -84 b 559 -183 510 -84 559 -125 b 426 -290 559 -247 508 -290 b 303 -220 359 -290 312 -259 b 315 -204 303 -211 308 -205 b 333 -213 323 -203 328 -207 b 410 -260 345 -247 376 -260 b 470 -184 448 -260 470 -234 b 403 -110 470 -140 447 -110 l 383 -110 b 372 -90 369 -110 366 -101 l 422 0 l 86 0 b 65 15 72 0 65 6 b 83 33 65 24 70 30 l 138 42 b 167 70 157 45 167 55 l 167 902 b 138 931 167 917 157 927 l 83 940 b 65 957 70 942 65 948 "},"Ȇ":{"ha":851,"x_min":0,"x_max":0,"o":"m 440 1135 b 308 1036 375 1135 333 1104 b 293 1024 303 1027 299 1024 b 280 1044 284 1024 278 1031 b 440 1218 288 1153 347 1218 b 599 1044 531 1218 591 1153 b 585 1024 600 1031 594 1024 b 570 1036 580 1024 575 1027 b 440 1135 544 1106 501 1135 m 65 957 b 86 972 65 966 72 972 l 632 972 b 708 997 669 972 688 997 b 732 971 720 997 726 991 l 788 761 b 777 738 791 749 787 741 b 750 751 766 735 756 739 b 542 936 670 906 626 936 l 320 936 l 320 508 l 503 508 b 596 603 566 508 588 530 b 612 622 598 616 603 622 b 631 606 622 624 628 617 l 690 396 b 680 373 693 383 690 376 b 656 383 671 370 663 373 b 524 473 613 456 587 473 l 320 473 l 320 83 b 378 36 320 51 339 36 l 556 36 b 776 268 642 36 687 71 b 799 282 781 279 789 283 b 811 257 810 280 815 272 l 749 5 b 723 -23 744 -15 737 -23 b 642 0 703 -23 685 0 l 86 0 b 65 15 72 0 65 6 b 83 33 65 24 70 30 l 138 42 b 167 70 157 45 167 55 l 167 902 b 138 931 167 917 157 927 l 83 940 b 65 957 70 942 65 948 "},"Ẽ":{"ha":851,"x_min":0,"x_max":0,"o":"m 515 1030 b 345 1099 442 1030 397 1099 b 299 1039 315 1099 301 1079 b 283 1024 297 1029 292 1024 b 268 1044 274 1024 268 1030 b 365 1180 268 1134 302 1180 b 534 1110 437 1180 481 1110 b 580 1170 564 1110 578 1131 b 596 1185 582 1181 586 1185 b 610 1165 606 1185 610 1180 b 515 1030 610 1076 577 1030 m 65 957 b 86 972 65 966 72 972 l 632 972 b 708 997 669 972 688 997 b 732 971 720 997 726 991 l 788 761 b 777 738 791 749 787 741 b 750 751 766 735 756 739 b 542 936 670 906 626 936 l 320 936 l 320 508 l 503 508 b 596 603 566 508 588 530 b 612 622 598 616 603 622 b 631 606 622 624 628 617 l 690 396 b 680 373 693 383 690 376 b 656 383 671 370 663 373 b 524 473 613 456 587 473 l 320 473 l 320 83 b 378 36 320 51 339 36 l 556 36 b 776 268 642 36 687 71 b 799 282 781 279 789 283 b 811 257 810 280 815 272 l 749 5 b 723 -23 744 -15 737 -23 b 642 0 703 -23 685 0 l 86 0 b 65 15 72 0 65 6 b 83 33 65 24 70 30 l 138 42 b 167 70 157 45 167 55 l 167 902 b 138 931 167 917 157 927 l 83 940 b 65 957 70 942 65 948 "},"Ē":{"ha":851,"x_min":0,"x_max":0,"o":"m 263 1099 b 289 1129 263 1120 272 1129 l 590 1129 b 615 1099 607 1129 615 1121 b 590 1069 615 1078 607 1069 l 289 1069 b 263 1099 272 1069 263 1078 m 65 957 b 86 972 65 966 72 972 l 632 972 b 708 997 669 972 688 997 b 732 971 720 997 726 991 l 788 761 b 777 738 791 749 787 741 b 750 751 766 735 756 739 b 542 936 670 906 626 936 l 320 936 l 320 508 l 503 508 b 596 603 566 508 588 530 b 612 622 598 616 603 622 b 631 606 622 624 628 617 l 690 396 b 680 373 693 383 690 376 b 656 383 671 370 663 373 b 524 473 613 456 587 473 l 320 473 l 320 83 b 378 36 320 51 339 36 l 556 36 b 776 268 642 36 687 71 b 799 282 781 279 789 283 b 811 257 810 280 815 272 l 749 5 b 723 -23 744 -15 737 -23 b 642 0 703 -23 685 0 l 86 0 b 65 15 72 0 65 6 b 83 33 65 24 70 30 l 138 42 b 167 70 157 45 167 55 l 167 902 b 138 931 167 917 157 927 l 83 940 b 65 957 70 942 65 948 "},"Ḗ":{"ha":851,"x_min":0,"x_max":0,"o":"m 509 1338 b 598 1393 538 1376 565 1399 b 642 1335 630 1388 646 1360 b 569 1265 637 1301 608 1282 l 431 1196 b 411 1198 424 1193 415 1193 b 415 1217 406 1203 410 1210 l 509 1338 m 263 1099 b 289 1129 263 1120 272 1129 l 590 1129 b 615 1099 607 1129 615 1121 b 590 1069 615 1078 607 1069 l 289 1069 b 263 1099 272 1069 263 1078 m 65 957 b 86 972 65 966 72 972 l 632 972 b 708 997 669 972 688 997 b 732 971 720 997 726 991 l 788 761 b 777 738 791 749 787 741 b 750 751 766 735 756 739 b 542 936 670 906 626 936 l 320 936 l 320 508 l 503 508 b 596 603 566 508 588 530 b 612 622 598 616 603 622 b 631 606 622 624 628 617 l 690 396 b 680 373 693 383 690 376 b 656 383 671 370 663 373 b 524 473 613 456 587 473 l 320 473 l 320 83 b 378 36 320 51 339 36 l 556 36 b 776 268 642 36 687 71 b 799 282 781 279 789 283 b 811 257 810 280 815 272 l 749 5 b 723 -23 744 -15 737 -23 b 642 0 703 -23 685 0 l 86 0 b 65 15 72 0 65 6 b 83 33 65 24 70 30 l 138 42 b 167 70 157 45 167 55 l 167 902 b 138 931 167 917 157 927 l 83 940 b 65 957 70 942 65 948 "},"Ḕ":{"ha":851,"x_min":0,"x_max":0,"o":"m 490 1217 b 494 1198 495 1210 499 1203 b 474 1196 490 1193 481 1193 l 335 1265 b 263 1335 297 1282 268 1301 b 307 1393 258 1360 275 1388 b 396 1338 340 1399 366 1376 m 263 1099 b 289 1129 263 1120 272 1129 l 590 1129 b 615 1099 607 1129 615 1121 b 590 1069 615 1078 607 1069 l 289 1069 b 263 1099 272 1069 263 1078 m 65 957 b 86 972 65 966 72 972 l 632 972 b 708 997 669 972 688 997 b 732 971 720 997 726 991 l 788 761 b 777 738 791 749 787 741 b 750 751 766 735 756 739 b 542 936 670 906 626 936 l 320 936 l 320 508 l 503 508 b 596 603 566 508 588 530 b 612 622 598 616 603 622 b 631 606 622 624 628 617 l 690 396 b 680 373 693 383 690 376 b 656 383 671 370 663 373 b 524 473 613 456 587 473 l 320 473 l 320 83 b 378 36 320 51 339 36 l 556 36 b 776 268 642 36 687 71 b 799 282 781 279 789 283 b 811 257 810 280 815 272 l 749 5 b 723 -23 744 -15 737 -23 b 642 0 703 -23 685 0 l 86 0 b 65 15 72 0 65 6 b 83 33 65 24 70 30 l 138 42 b 167 70 157 45 167 55 l 167 902 b 138 931 167 917 157 927 l 83 940 b 65 957 70 942 65 948 "},"Ë":{"ha":851,"x_min":0,"x_max":0,"o":"m 319 1034 b 245 1108 274 1034 245 1065 b 319 1181 245 1151 274 1181 b 393 1108 364 1181 393 1151 b 319 1034 393 1065 364 1034 m 559 1034 b 485 1108 515 1034 485 1065 b 559 1181 485 1151 515 1181 b 633 1108 604 1181 633 1151 b 559 1034 633 1065 604 1034 m 65 957 b 86 972 65 966 72 972 l 632 972 b 708 997 669 972 688 997 b 732 971 720 997 726 991 l 788 761 b 777 738 791 749 787 741 b 750 751 766 735 756 739 b 542 936 670 906 626 936 l 320 936 l 320 508 l 503 508 b 596 603 566 508 588 530 b 612 622 598 616 603 622 b 631 606 622 624 628 617 l 690 396 b 680 373 693 383 690 376 b 656 383 671 370 663 373 b 524 473 613 456 587 473 l 320 473 l 320 83 b 378 36 320 51 339 36 l 556 36 b 776 268 642 36 687 71 b 799 282 781 279 789 283 b 811 257 810 280 815 272 l 749 5 b 723 -23 744 -15 737 -23 b 642 0 703 -23 685 0 l 86 0 b 65 15 72 0 65 6 b 83 33 65 24 70 30 l 138 42 b 167 70 157 45 167 55 l 167 902 b 138 931 167 917 157 927 l 83 940 b 65 957 70 942 65 948 "},"Ė":{"ha":851,"x_min":0,"x_max":0,"o":"m 440 1034 b 360 1110 392 1034 360 1065 b 440 1185 360 1154 392 1185 b 518 1110 488 1185 518 1154 b 440 1034 518 1066 488 1034 m 65 957 b 86 972 65 966 72 972 l 632 972 b 708 997 669 972 688 997 b 732 971 720 997 726 991 l 788 761 b 777 738 791 749 787 741 b 750 751 766 735 756 739 b 542 936 670 906 626 936 l 320 936 l 320 508 l 503 508 b 596 603 566 508 588 530 b 612 622 598 616 603 622 b 631 606 622 624 628 617 l 690 396 b 680 373 693 383 690 376 b 656 383 671 370 663 373 b 524 473 613 456 587 473 l 320 473 l 320 83 b 378 36 320 51 339 36 l 556 36 b 776 268 642 36 687 71 b 799 282 781 279 789 283 b 811 257 810 280 815 272 l 749 5 b 723 -23 744 -15 737 -23 b 642 0 703 -23 685 0 l 86 0 b 65 15 72 0 65 6 b 83 33 65 24 70 30 l 138 42 b 167 70 157 45 167 55 l 167 902 b 138 931 167 917 157 927 l 83 940 b 65 957 70 942 65 948 "},"Ẻ":{"ha":851,"x_min":0,"x_max":0,"o":"m 393 1035 b 407 1047 392 1040 397 1045 b 495 1147 470 1055 495 1090 b 438 1222 495 1201 473 1222 b 383 1171 401 1222 383 1202 l 383 1148 b 340 1103 383 1119 367 1103 b 299 1147 315 1103 299 1121 b 441 1244 299 1200 360 1244 b 581 1145 529 1244 581 1206 b 415 1024 581 1079 525 1032 b 393 1035 398 1023 393 1028 m 65 957 b 86 972 65 966 72 972 l 632 972 b 708 997 669 972 688 997 b 732 971 720 997 726 991 l 788 761 b 777 738 791 749 787 741 b 750 751 766 735 756 739 b 542 936 670 906 626 936 l 320 936 l 320 508 l 503 508 b 596 603 566 508 588 530 b 612 622 598 616 603 622 b 631 606 622 624 628 617 l 690 396 b 680 373 693 383 690 376 b 656 383 671 370 663 373 b 524 473 613 456 587 473 l 320 473 l 320 83 b 378 36 320 51 339 36 l 556 36 b 776 268 642 36 687 71 b 799 282 781 279 789 283 b 811 257 810 280 815 272 l 749 5 b 723 -23 744 -15 737 -23 b 642 0 703 -23 685 0 l 86 0 b 65 15 72 0 65 6 b 83 33 65 24 70 30 l 138 42 b 167 70 157 45 167 55 l 167 902 b 138 931 167 917 157 927 l 83 940 b 65 957 70 942 65 948 "},"Ẹ":{"ha":851,"x_min":0,"x_max":0,"o":"m 65 957 b 86 972 65 966 72 972 l 632 972 b 708 997 669 972 688 997 b 732 971 720 997 726 991 l 788 761 b 777 738 791 749 787 741 b 750 751 766 735 756 739 b 542 936 670 906 626 936 l 320 936 l 320 508 l 503 508 b 596 603 566 508 588 530 b 612 622 598 616 603 622 b 631 606 622 624 628 617 l 690 396 b 680 373 693 383 690 376 b 656 383 671 370 663 373 b 524 473 613 456 587 473 l 320 473 l 320 83 b 378 36 320 51 339 36 l 556 36 b 776 268 642 36 687 71 b 799 282 781 279 789 283 b 811 257 810 280 815 272 l 749 5 b 723 -23 744 -15 737 -23 b 642 0 703 -23 685 0 l 86 0 b 65 15 72 0 65 6 b 83 33 65 24 70 30 l 138 42 b 167 70 157 45 167 55 l 167 902 b 138 931 167 917 157 927 l 83 940 b 65 957 70 942 65 948 m 440 -233 b 362 -156 392 -233 362 -201 b 440 -78 362 -110 392 -78 b 517 -156 487 -78 517 -110 b 440 -233 517 -201 487 -233 "},"Ę":{"ha":851,"x_min":0,"x_max":0,"o":"m 65 957 b 86 972 65 966 72 972 l 632 972 b 708 997 669 972 688 997 b 732 971 720 997 726 991 l 788 761 b 777 738 791 749 787 741 b 750 751 766 735 756 739 b 542 936 670 906 626 936 l 320 936 l 320 508 l 503 508 b 596 603 566 508 588 530 b 612 622 598 616 603 622 b 631 606 622 624 628 617 l 690 396 b 680 373 693 383 690 376 b 656 383 671 370 663 373 b 524 473 613 456 587 473 l 320 473 l 320 83 b 378 36 320 51 339 36 l 556 36 b 776 268 642 36 687 71 b 799 282 781 279 789 283 b 811 257 810 280 815 272 l 749 5 b 723 -23 744 -15 737 -23 b 683 -8 712 -23 700 -15 b 583 -163 615 -48 583 -97 b 656 -253 583 -224 613 -253 b 728 -212 686 -253 715 -236 b 745 -204 734 -205 739 -202 b 751 -223 751 -206 755 -212 b 624 -293 738 -259 690 -293 b 481 -178 535 -293 481 -250 b 645 0 481 -108 528 -49 l 86 0 b 65 15 72 0 65 6 b 83 33 65 24 70 30 l 138 42 b 167 70 157 45 167 55 l 167 902 b 138 931 167 917 157 927 l 83 940 b 65 957 70 942 65 948 "},"Ĝ":{"ha":1005,"x_min":0,"x_max":0,"o":"m 701 1028 b 676 1031 695 1023 687 1024 l 525 1117 l 374 1031 b 349 1028 363 1024 355 1023 b 351 1049 343 1031 342 1040 l 488 1198 b 525 1221 501 1213 510 1221 b 562 1198 540 1221 549 1213 l 699 1049 b 701 1028 708 1040 706 1031 m 881 8 b 860 -21 881 -13 874 -21 b 761 49 831 -21 791 49 b 524 -20 733 49 671 -20 b 54 478 238 -20 54 188 b 530 991 54 780 254 991 b 753 928 672 991 733 928 b 825 985 781 928 801 985 b 843 966 833 985 839 981 l 906 711 b 894 688 910 699 904 690 b 869 701 883 685 874 690 b 538 954 793 882 680 954 b 210 510 349 954 210 790 b 563 31 210 208 363 31 b 740 134 653 31 740 68 l 740 347 b 705 377 740 365 731 373 l 635 387 b 615 403 622 389 615 394 b 636 418 615 412 622 418 l 949 418 b 971 403 964 418 971 412 b 953 387 971 395 966 391 l 913 378 b 881 347 890 373 881 365 l 881 8 "},"Ǧ":{"ha":1005,"x_min":0,"x_max":0,"o":"m 562 1048 b 525 1026 549 1034 540 1026 b 488 1048 510 1026 501 1034 l 351 1198 b 349 1219 342 1206 343 1215 b 374 1216 355 1224 363 1222 l 525 1129 l 676 1216 b 701 1219 687 1222 695 1224 b 699 1198 706 1215 708 1206 l 562 1048 m 881 8 b 860 -21 881 -13 874 -21 b 761 49 831 -21 791 49 b 524 -20 733 49 671 -20 b 54 478 238 -20 54 188 b 530 991 54 780 254 991 b 753 928 672 991 733 928 b 825 985 781 928 801 985 b 843 966 833 985 839 981 l 906 711 b 894 688 910 699 904 690 b 869 701 883 685 874 690 b 538 954 793 882 680 954 b 210 510 349 954 210 790 b 563 31 210 208 363 31 b 740 134 653 31 740 68 l 740 347 b 705 377 740 365 731 373 l 635 387 b 615 403 622 389 615 394 b 636 418 615 412 622 418 l 949 418 b 971 403 964 418 971 412 b 953 387 971 395 966 391 l 913 378 b 881 347 890 373 881 365 l 881 8 "},"Ğ":{"ha":1005,"x_min":0,"x_max":0,"o":"m 525 1110 b 656 1203 589 1110 632 1138 b 671 1216 660 1213 665 1216 b 685 1197 680 1216 686 1209 b 525 1027 677 1091 617 1027 b 365 1197 433 1027 372 1091 b 378 1216 364 1209 369 1216 b 394 1203 385 1216 389 1213 b 525 1110 418 1136 463 1110 m 881 8 b 860 -21 881 -13 874 -21 b 761 49 831 -21 791 49 b 524 -20 733 49 671 -20 b 54 478 238 -20 54 188 b 530 991 54 780 254 991 b 753 928 672 991 733 928 b 825 985 781 928 801 985 b 843 966 833 985 839 981 l 906 711 b 894 688 910 699 904 690 b 869 701 883 685 874 690 b 538 954 793 882 680 954 b 210 510 349 954 210 790 b 563 31 210 208 363 31 b 740 134 653 31 740 68 l 740 347 b 705 377 740 365 731 373 l 635 387 b 615 403 622 389 615 394 b 636 418 615 412 622 418 l 949 418 b 971 403 964 418 971 412 b 953 387 971 395 966 391 l 913 378 b 881 347 890 373 881 365 l 881 8 "},"Ġ":{"ha":1005,"x_min":0,"x_max":0,"o":"m 525 1040 b 447 1116 478 1040 447 1072 b 525 1192 447 1160 478 1192 b 603 1116 574 1192 603 1160 b 525 1040 603 1072 574 1040 m 881 8 b 860 -21 881 -13 874 -21 b 761 49 831 -21 791 49 b 524 -20 733 49 671 -20 b 54 478 238 -20 54 188 b 530 991 54 780 254 991 b 753 928 672 991 733 928 b 825 985 781 928 801 985 b 843 966 833 985 839 981 l 906 711 b 894 688 910 699 904 690 b 869 701 883 685 874 690 b 538 954 793 882 680 954 b 210 510 349 954 210 790 b 563 31 210 208 363 31 b 740 134 653 31 740 68 l 740 347 b 705 377 740 365 731 373 l 635 387 b 615 403 622 389 615 394 b 636 418 615 412 622 418 l 949 418 b 971 403 964 418 971 412 b 953 387 971 395 966 391 l 913 378 b 881 347 890 373 881 365 l 881 8 "},"Ḡ":{"ha":1005,"x_min":0,"x_max":0,"o":"m 349 1104 b 375 1135 349 1126 358 1135 l 675 1135 b 701 1105 692 1135 701 1126 b 675 1074 701 1083 692 1074 l 375 1074 b 349 1104 358 1074 349 1083 m 881 8 b 860 -21 881 -13 874 -21 b 761 49 831 -21 791 49 b 524 -20 733 49 671 -20 b 54 478 238 -20 54 188 b 530 991 54 780 254 991 b 753 928 672 991 733 928 b 825 985 781 928 801 985 b 843 966 833 985 839 981 l 906 711 b 894 688 910 699 904 690 b 869 701 883 685 874 690 b 538 954 793 882 680 954 b 210 510 349 954 210 790 b 563 31 210 208 363 31 b 740 134 653 31 740 68 l 740 347 b 705 377 740 365 731 373 l 635 387 b 615 403 622 389 615 394 b 636 418 615 412 622 418 l 949 418 b 971 403 964 418 971 412 b 953 387 971 395 966 391 l 913 378 b 881 347 890 373 881 365 l 881 8 "},"Ģ":{"ha":1005,"x_min":0,"x_max":0,"o":"m 881 8 b 860 -21 881 -13 874 -21 b 761 49 831 -21 791 49 b 524 -20 733 49 671 -20 b 54 478 238 -20 54 188 b 530 991 54 780 254 991 b 753 928 672 991 733 928 b 825 985 781 928 801 985 b 843 966 833 985 839 981 l 906 711 b 894 688 910 699 904 690 b 869 701 883 685 874 690 b 538 954 793 882 680 954 b 210 510 349 954 210 790 b 563 31 210 208 363 31 b 740 134 653 31 740 68 l 740 347 b 705 377 740 365 731 373 l 635 387 b 615 403 622 389 615 394 b 636 418 615 412 622 418 l 949 418 b 971 403 964 418 971 412 b 953 387 971 395 966 391 l 913 378 b 881 347 890 373 881 365 l 881 8 m 523 -210 b 453 -149 476 -210 453 -183 b 526 -81 453 -108 484 -81 b 603 -178 572 -81 603 -114 b 472 -335 603 -262 555 -316 b 451 -327 460 -338 454 -335 b 463 -311 449 -320 453 -314 b 563 -224 528 -297 563 -256 b 549 -210 563 -215 560 -210 l 523 -210 "},"Ĥ":{"ha":1088,"x_min":0,"x_max":0,"o":"m 720 1024 b 696 1027 715 1019 706 1021 l 544 1114 l 392 1027 b 367 1024 382 1021 374 1019 b 369 1045 363 1028 361 1037 l 507 1194 b 544 1217 520 1209 529 1217 b 581 1194 559 1217 568 1209 l 719 1045 b 720 1024 727 1037 726 1028 m 321 70 b 351 42 321 55 331 45 l 406 33 b 423 15 418 30 423 24 b 402 0 423 6 417 0 l 87 0 b 66 15 73 0 66 6 b 83 33 66 24 71 30 l 138 42 b 168 70 158 45 168 55 l 168 902 b 138 931 168 917 158 927 l 83 940 b 66 957 71 942 66 948 b 87 972 66 966 73 972 l 402 972 b 423 957 417 972 423 966 b 406 940 423 948 418 942 l 351 931 b 321 902 331 927 321 917 l 321 478 l 767 478 l 767 902 b 737 931 767 917 756 927 l 683 940 b 665 957 670 942 665 948 b 686 972 665 966 672 972 l 1001 972 b 1022 957 1015 972 1022 966 b 1004 940 1022 948 1017 942 l 950 931 b 920 902 930 927 920 917 l 920 70 b 950 42 920 55 930 45 l 1004 33 b 1022 15 1017 30 1022 24 b 1001 0 1022 6 1015 0 l 686 0 b 665 15 672 0 665 6 b 683 33 665 24 670 30 l 737 42 b 767 70 756 45 767 55 l 767 442 l 321 442 l 321 70 "},"Ḫ":{"ha":1088,"x_min":0,"x_max":0,"o":"m 321 70 b 351 42 321 55 331 45 l 406 33 b 423 15 418 30 423 24 b 402 0 423 6 417 0 l 87 0 b 66 15 73 0 66 6 b 83 33 66 24 71 30 l 138 42 b 168 70 158 45 168 55 l 168 902 b 138 931 168 917 158 927 l 83 940 b 66 957 71 942 66 948 b 87 972 66 966 73 972 l 402 972 b 423 957 417 972 423 966 b 406 940 423 948 418 942 l 351 931 b 321 902 331 927 321 917 l 321 478 l 767 478 l 767 902 b 737 931 767 917 756 927 l 683 940 b 665 957 670 942 665 948 b 686 972 665 966 672 972 l 1001 972 b 1022 957 1015 972 1022 966 b 1004 940 1022 948 1017 942 l 950 931 b 920 902 930 927 920 917 l 920 70 b 950 42 920 55 930 45 l 1004 33 b 1022 15 1017 30 1022 24 b 1001 0 1022 6 1015 0 l 686 0 b 665 15 672 0 665 6 b 683 33 665 24 670 30 l 737 42 b 767 70 756 45 767 55 l 767 442 l 321 442 l 321 70 m 544 -190 b 676 -90 608 -190 651 -160 b 692 -77 681 -81 685 -77 b 705 -97 700 -77 706 -85 b 544 -276 697 -210 636 -276 b 383 -97 452 -276 391 -210 b 396 -77 382 -85 388 -77 b 412 -90 402 -77 408 -81 b 544 -190 438 -162 482 -190 "},"Ḥ":{"ha":1088,"x_min":0,"x_max":0,"o":"m 321 70 b 351 42 321 55 331 45 l 406 33 b 423 15 418 30 423 24 b 402 0 423 6 417 0 l 87 0 b 66 15 73 0 66 6 b 83 33 66 24 71 30 l 138 42 b 168 70 158 45 168 55 l 168 902 b 138 931 168 917 158 927 l 83 940 b 66 957 71 942 66 948 b 87 972 66 966 73 972 l 402 972 b 423 957 417 972 423 966 b 406 940 423 948 418 942 l 351 931 b 321 902 331 927 321 917 l 321 478 l 767 478 l 767 902 b 737 931 767 917 756 927 l 683 940 b 665 957 670 942 665 948 b 686 972 665 966 672 972 l 1001 972 b 1022 957 1015 972 1022 966 b 1004 940 1022 948 1017 942 l 950 931 b 920 902 930 927 920 917 l 920 70 b 950 42 920 55 930 45 l 1004 33 b 1022 15 1017 30 1022 24 b 1001 0 1022 6 1015 0 l 686 0 b 665 15 672 0 665 6 b 683 33 665 24 670 30 l 737 42 b 767 70 756 45 767 55 l 767 442 l 321 442 l 321 70 m 544 -233 b 467 -156 497 -233 467 -201 b 544 -78 467 -110 497 -78 b 622 -156 592 -78 622 -110 b 544 -233 622 -201 592 -233 "},"Í":{"ha":486,"x_min":0,"x_max":0,"o":"m 313 1162 b 402 1218 342 1201 369 1224 b 445 1160 433 1213 450 1185 b 373 1090 440 1126 411 1106 l 235 1021 b 215 1023 228 1018 219 1018 b 218 1042 210 1028 213 1035 l 313 1162 m 320 70 b 350 42 320 55 330 45 l 404 33 b 422 15 417 30 422 24 b 401 0 422 6 415 0 l 86 0 b 65 15 72 0 65 6 b 82 33 65 24 69 30 l 137 42 b 167 70 156 45 167 55 l 167 902 b 137 931 167 917 156 927 l 82 940 b 65 957 69 942 65 948 b 86 972 65 966 72 972 l 401 972 b 422 957 415 972 422 966 b 404 940 422 948 417 942 l 350 931 b 320 902 330 927 320 917 l 320 70 "},"Ì":{"ha":486,"x_min":0,"x_max":0,"o":"m 304 1042 b 308 1023 309 1035 313 1028 b 288 1021 303 1018 294 1018 l 149 1090 b 77 1160 111 1106 82 1126 b 120 1218 72 1185 89 1213 b 209 1162 153 1224 180 1201 m 320 70 b 350 42 320 55 330 45 l 404 33 b 422 15 417 30 422 24 b 401 0 422 6 415 0 l 86 0 b 65 15 72 0 65 6 b 82 33 65 24 69 30 l 137 42 b 167 70 156 45 167 55 l 167 902 b 137 931 167 917 156 927 l 82 940 b 65 957 69 942 65 948 b 86 972 65 966 72 972 l 401 972 b 422 957 415 972 422 966 b 404 940 422 948 417 942 l 350 931 b 320 902 330 927 320 917 l 320 70 "},"Ȉ":{"ha":486,"x_min":0,"x_max":0,"o":"m 376 1040 b 376 1022 380 1033 381 1026 b 357 1023 372 1017 363 1019 l 244 1103 b 185 1176 212 1123 189 1144 b 233 1228 183 1203 203 1226 b 312 1162 267 1231 290 1205 m 187 1040 b 188 1022 191 1033 193 1026 b 168 1023 183 1017 175 1019 l 55 1101 b -5 1173 23 1122 -1 1142 b 42 1227 -8 1201 13 1224 b 122 1162 75 1231 99 1205 m 320 70 b 350 42 320 55 330 45 l 404 33 b 422 15 417 30 422 24 b 401 0 422 6 415 0 l 86 0 b 65 15 72 0 65 6 b 82 33 65 24 69 30 l 137 42 b 167 70 156 45 167 55 l 167 902 b 137 931 167 917 156 927 l 82 940 b 65 957 69 942 65 948 b 86 972 65 966 72 972 l 401 972 b 422 957 415 972 422 966 b 404 940 422 948 417 942 l 350 931 b 320 902 330 927 320 917 l 320 70 "},"Î":{"ha":486,"x_min":0,"x_max":0,"o":"m 419 1024 b 395 1027 414 1019 405 1021 l 243 1114 l 92 1027 b 67 1024 81 1021 73 1019 b 69 1045 62 1028 60 1037 l 206 1194 b 244 1217 219 1209 228 1217 b 281 1194 258 1217 267 1209 l 418 1045 b 419 1024 426 1037 425 1028 m 320 70 b 350 42 320 55 330 45 l 404 33 b 422 15 417 30 422 24 b 401 0 422 6 415 0 l 86 0 b 65 15 72 0 65 6 b 82 33 65 24 69 30 l 137 42 b 167 70 156 45 167 55 l 167 902 b 137 931 167 917 156 927 l 82 940 b 65 957 69 942 65 948 b 86 972 65 966 72 972 l 401 972 b 422 957 415 972 422 966 b 404 940 422 948 417 942 l 350 931 b 320 902 330 927 320 917 l 320 70 "},"Ĭ":{"ha":486,"x_min":0,"x_max":0,"o":"m 243 1104 b 374 1197 307 1104 350 1131 b 390 1210 378 1206 383 1210 b 403 1190 398 1210 404 1203 b 243 1021 395 1085 335 1021 b 83 1190 151 1021 91 1085 b 97 1210 83 1203 88 1210 b 112 1197 103 1210 108 1206 b 243 1104 137 1130 182 1104 m 320 70 b 350 42 320 55 330 45 l 404 33 b 422 15 417 30 422 24 b 401 0 422 6 415 0 l 86 0 b 65 15 72 0 65 6 b 82 33 65 24 69 30 l 137 42 b 167 70 156 45 167 55 l 167 902 b 137 931 167 917 156 927 l 82 940 b 65 957 69 942 65 948 b 86 972 65 966 72 972 l 401 972 b 422 957 415 972 422 966 b 404 940 422 948 417 942 l 350 931 b 320 902 330 927 320 917 l 320 70 "},"Ȋ":{"ha":486,"x_min":0,"x_max":0,"o":"m 243 1135 b 112 1036 179 1135 138 1104 b 97 1024 108 1027 103 1024 b 83 1044 88 1024 83 1031 b 243 1218 91 1153 151 1218 b 403 1044 335 1218 395 1153 b 390 1024 404 1031 398 1024 b 374 1036 383 1024 378 1027 b 243 1135 348 1106 304 1135 m 320 70 b 350 42 320 55 330 45 l 404 33 b 422 15 417 30 422 24 b 401 0 422 6 415 0 l 86 0 b 65 15 72 0 65 6 b 82 33 65 24 69 30 l 137 42 b 167 70 156 45 167 55 l 167 902 b 137 931 167 917 156 927 l 82 940 b 65 957 69 942 65 948 b 86 972 65 966 72 972 l 401 972 b 422 957 415 972 422 966 b 404 940 422 948 417 942 l 350 931 b 320 902 330 927 320 917 l 320 70 "},"Ĩ":{"ha":486,"x_min":0,"x_max":0,"o":"m 318 1030 b 149 1099 246 1030 201 1099 b 103 1039 119 1099 105 1079 b 88 1024 101 1029 96 1024 b 72 1044 78 1024 72 1030 b 168 1180 72 1134 106 1180 b 338 1110 241 1180 285 1110 b 384 1170 367 1110 382 1131 b 399 1185 385 1181 390 1185 b 414 1165 409 1185 414 1180 b 318 1030 414 1076 381 1030 m 320 70 b 350 42 320 55 330 45 l 404 33 b 422 15 417 30 422 24 b 401 0 422 6 415 0 l 86 0 b 65 15 72 0 65 6 b 82 33 65 24 69 30 l 137 42 b 167 70 156 45 167 55 l 167 902 b 137 931 167 917 156 927 l 82 940 b 65 957 69 942 65 948 b 86 972 65 966 72 972 l 401 972 b 422 957 415 972 422 966 b 404 940 422 948 417 942 l 350 931 b 320 902 330 927 320 917 l 320 70 "},"Ī":{"ha":486,"x_min":0,"x_max":0,"o":"m 67 1099 b 93 1129 67 1120 76 1129 l 394 1129 b 419 1099 411 1129 419 1121 b 394 1069 419 1078 411 1069 l 93 1069 b 67 1099 76 1069 67 1078 m 320 70 b 350 42 320 55 330 45 l 404 33 b 422 15 417 30 422 24 b 401 0 422 6 415 0 l 86 0 b 65 15 72 0 65 6 b 82 33 65 24 69 30 l 137 42 b 167 70 156 45 167 55 l 167 902 b 137 931 167 917 156 927 l 82 940 b 65 957 69 942 65 948 b 86 972 65 966 72 972 l 401 972 b 422 957 415 972 422 966 b 404 940 422 948 417 942 l 350 931 b 320 902 330 927 320 917 l 320 70 "},"Ï":{"ha":486,"x_min":0,"x_max":0,"o":"m 123 1034 b 49 1108 78 1034 49 1065 b 123 1181 49 1151 78 1181 b 197 1108 168 1181 197 1151 b 123 1034 197 1065 168 1034 m 363 1034 b 289 1108 318 1034 289 1065 b 363 1181 289 1151 318 1181 b 438 1108 408 1181 438 1151 b 363 1034 438 1065 408 1034 m 320 70 b 350 42 320 55 330 45 l 404 33 b 422 15 417 30 422 24 b 401 0 422 6 415 0 l 86 0 b 65 15 72 0 65 6 b 82 33 65 24 69 30 l 137 42 b 167 70 156 45 167 55 l 167 902 b 137 931 167 917 156 927 l 82 940 b 65 957 69 942 65 948 b 86 972 65 966 72 972 l 401 972 b 422 957 415 972 422 966 b 404 940 422 948 417 942 l 350 931 b 320 902 330 927 320 917 l 320 70 "},"Ḯ":{"ha":486,"x_min":0,"x_max":0,"o":"m 313 1370 b 402 1426 342 1409 369 1432 b 445 1368 433 1422 450 1392 b 373 1297 440 1333 411 1315 l 235 1229 b 215 1231 228 1226 219 1226 b 218 1249 210 1236 213 1243 l 313 1370 m 123 1034 b 49 1108 78 1034 49 1065 b 123 1181 49 1151 78 1181 b 197 1108 168 1181 197 1151 b 123 1034 197 1065 168 1034 m 363 1034 b 289 1108 318 1034 289 1065 b 363 1181 289 1151 318 1181 b 438 1108 408 1181 438 1151 b 363 1034 438 1065 408 1034 m 320 70 b 350 42 320 55 330 45 l 404 33 b 422 15 417 30 422 24 b 401 0 422 6 415 0 l 86 0 b 65 15 72 0 65 6 b 82 33 65 24 69 30 l 137 42 b 167 70 156 45 167 55 l 167 902 b 137 931 167 917 156 927 l 82 940 b 65 957 69 942 65 948 b 86 972 65 966 72 972 l 401 972 b 422 957 415 972 422 966 b 404 940 422 948 417 942 l 350 931 b 320 902 330 927 320 917 l 320 70 "},"İ":{"ha":486,"x_min":0,"x_max":0,"o":"m 243 1034 b 165 1110 196 1034 165 1065 b 243 1185 165 1154 196 1185 b 322 1110 292 1185 322 1154 b 243 1034 322 1066 292 1034 m 320 70 b 350 42 320 55 330 45 l 404 33 b 422 15 417 30 422 24 b 401 0 422 6 415 0 l 86 0 b 65 15 72 0 65 6 b 82 33 65 24 69 30 l 137 42 b 167 70 156 45 167 55 l 167 902 b 137 931 167 917 156 927 l 82 940 b 65 957 69 942 65 948 b 86 972 65 966 72 972 l 401 972 b 422 957 415 972 422 966 b 404 940 422 948 417 942 l 350 931 b 320 902 330 927 320 917 l 320 70 "},"Ỉ":{"ha":486,"x_min":0,"x_max":0,"o":"m 197 1035 b 210 1047 197 1040 200 1045 b 299 1147 274 1055 299 1090 b 242 1222 299 1201 277 1222 b 188 1171 205 1222 188 1202 l 188 1148 b 144 1103 188 1119 171 1103 b 102 1147 119 1103 102 1121 b 244 1244 102 1200 164 1244 b 384 1145 333 1244 384 1206 b 218 1024 384 1079 329 1032 b 197 1035 202 1023 197 1028 m 320 70 b 350 42 320 55 330 45 l 404 33 b 422 15 417 30 422 24 b 401 0 422 6 415 0 l 86 0 b 65 15 72 0 65 6 b 82 33 65 24 69 30 l 137 42 b 167 70 156 45 167 55 l 167 902 b 137 931 167 917 156 927 l 82 940 b 65 957 69 942 65 948 b 86 972 65 966 72 972 l 401 972 b 422 957 415 972 422 966 b 404 940 422 948 417 942 l 350 931 b 320 902 330 927 320 917 l 320 70 "},"Ị":{"ha":486,"x_min":0,"x_max":0,"o":"m 320 70 b 350 42 320 55 330 45 l 404 33 b 422 15 417 30 422 24 b 401 0 422 6 415 0 l 86 0 b 65 15 72 0 65 6 b 82 33 65 24 69 30 l 137 42 b 167 70 156 45 167 55 l 167 902 b 137 931 167 917 156 927 l 82 940 b 65 957 69 942 65 948 b 86 972 65 966 72 972 l 401 972 b 422 957 415 972 422 966 b 404 940 422 948 417 942 l 350 931 b 320 902 330 927 320 917 l 320 70 m 243 -233 b 166 -156 197 -233 166 -201 b 243 -78 166 -110 197 -78 b 321 -156 291 -78 321 -110 b 243 -233 321 -201 291 -233 "},"Į":{"ha":486,"x_min":0,"x_max":0,"o":"m 320 70 b 350 42 320 55 330 45 l 404 33 b 422 15 417 30 422 24 b 401 0 422 6 415 0 l 327 0 b 214 -160 249 -40 214 -91 b 286 -250 214 -220 243 -250 b 358 -208 316 -250 344 -233 b 374 -201 364 -202 368 -199 b 381 -220 381 -203 385 -209 b 255 -289 367 -256 322 -289 b 114 -174 166 -289 114 -246 b 273 0 114 -107 160 -48 l 86 0 b 65 15 72 0 65 6 b 82 33 65 24 69 30 l 137 42 b 167 70 156 45 167 55 l 167 902 b 137 931 167 917 156 927 l 82 940 b 65 957 69 942 65 948 b 86 972 65 966 72 972 l 401 972 b 422 957 415 972 422 966 b 404 940 422 948 417 942 l 350 931 b 320 902 330 927 320 917 l 320 70 "},"Ĵ":{"ha":583,"x_min":0,"x_max":0,"o":"m 517 1024 b 492 1027 510 1019 502 1021 l 340 1114 l 189 1027 b 164 1024 178 1021 170 1019 b 166 1045 158 1028 157 1037 l 303 1194 b 340 1217 316 1209 325 1217 b 377 1194 356 1217 364 1209 l 515 1045 b 517 1024 523 1037 522 1028 m 481 151 b 250 -18 481 49 390 -18 b 47 128 120 -18 47 42 b 123 211 47 178 75 211 b 187 133 160 211 187 181 l 187 89 b 261 13 187 42 207 13 b 360 112 318 13 360 48 b 265 406 360 200 265 258 l 265 899 b 238 930 265 917 256 927 l 177 939 b 158 956 163 942 158 947 b 179 972 158 966 165 972 l 497 972 b 519 957 512 972 519 967 b 499 940 519 948 513 943 l 446 931 b 417 901 427 926 417 917 l 417 412 b 481 151 417 294 481 246 "},"Ķ":{"ha":997,"x_min":0,"x_max":0,"o":"m 320 70 b 349 42 320 55 330 46 l 401 33 b 419 15 415 28 419 24 b 398 0 419 6 413 0 l 86 0 b 65 15 72 0 65 6 b 83 33 65 24 70 30 l 138 42 b 167 70 157 45 167 55 l 167 902 b 138 931 167 917 157 927 l 83 940 b 65 957 70 942 65 948 b 86 972 65 966 72 972 l 401 972 b 422 957 415 972 422 966 b 405 940 422 948 417 942 l 350 931 b 320 902 331 927 320 917 l 320 401 l 717 833 b 710 932 761 878 756 919 l 665 940 b 649 957 653 944 649 949 b 669 972 649 967 656 972 l 927 972 b 949 957 942 972 949 966 b 925 939 949 949 943 944 b 764 824 883 929 851 911 l 574 620 l 895 87 b 972 35 915 54 935 40 b 997 15 992 31 997 24 b 974 0 997 6 989 0 l 666 0 b 644 16 651 0 644 6 b 661 33 644 25 650 31 l 715 40 b 722 83 734 44 738 56 l 467 506 l 320 349 l 320 70 m 522 -208 b 453 -147 475 -208 453 -181 b 524 -78 453 -106 483 -78 b 602 -176 571 -78 602 -111 b 471 -333 602 -260 554 -314 b 451 -325 460 -335 453 -333 b 463 -309 449 -318 452 -311 b 563 -222 527 -294 563 -254 b 548 -208 563 -212 558 -208 l 522 -208 "},"Ĺ":{"ha":804,"x_min":0,"x_max":0,"o":"m 356 1162 b 444 1218 385 1201 412 1224 b 488 1160 476 1213 493 1185 b 416 1090 483 1126 454 1106 l 277 1021 b 258 1023 271 1018 262 1018 b 261 1042 253 1028 256 1035 l 356 1162 m 350 931 b 320 902 330 927 320 917 l 320 75 b 372 36 320 47 337 36 l 531 36 b 694 167 605 36 647 63 l 742 274 b 765 289 747 287 755 291 b 778 264 777 287 781 278 l 717 4 b 692 -24 711 -17 704 -24 b 609 0 672 -24 654 0 l 86 0 b 65 15 72 0 65 6 b 82 33 65 24 69 30 l 137 42 b 167 70 156 45 167 55 l 167 902 b 137 931 167 917 156 927 l 82 940 b 65 957 69 942 65 948 b 86 972 65 966 72 972 l 401 972 b 422 957 415 972 422 966 b 404 940 422 948 417 942 "},"Ľ":{"ha":804,"x_min":0,"x_max":0,"o":"m 499 925 b 553 1019 503 979 516 1013 b 613 978 585 1024 609 1004 b 584 893 618 949 605 922 l 510 768 b 492 762 506 763 499 760 b 486 779 486 765 486 772 l 499 925 m 350 931 b 320 902 330 927 320 917 l 320 75 b 372 36 320 47 337 36 l 531 36 b 694 167 605 36 647 63 l 742 274 b 765 289 747 287 755 291 b 778 264 777 287 781 278 l 717 4 b 692 -24 711 -17 704 -24 b 609 0 672 -24 654 0 l 86 0 b 65 15 72 0 65 6 b 82 33 65 24 69 30 l 137 42 b 167 70 156 45 167 55 l 167 902 b 137 931 167 917 156 927 l 82 940 b 65 957 69 942 65 948 b 86 972 65 966 72 972 l 401 972 b 422 957 415 972 422 966 b 404 940 422 948 417 942 "},"Ļ":{"ha":804,"x_min":0,"x_max":0,"o":"m 350 931 b 320 902 330 927 320 917 l 320 75 b 372 36 320 47 337 36 l 531 36 b 694 167 605 36 647 63 l 742 274 b 765 289 747 287 755 291 b 778 264 777 287 781 278 l 717 4 b 692 -24 711 -17 704 -24 b 609 0 672 -24 654 0 l 86 0 b 65 15 72 0 65 6 b 82 33 65 24 69 30 l 137 42 b 167 70 156 45 167 55 l 167 902 b 137 931 167 917 156 927 l 82 940 b 65 957 69 942 65 948 b 86 972 65 966 72 972 l 401 972 b 422 957 415 972 422 966 b 404 940 422 948 417 942 m 414 -208 b 344 -147 367 -208 344 -181 b 417 -78 344 -106 375 -78 b 494 -176 463 -78 494 -111 b 363 -333 494 -260 446 -314 b 342 -325 351 -335 344 -333 b 354 -309 340 -318 344 -311 b 454 -222 419 -294 454 -254 b 440 -208 454 -212 451 -208 l 414 -208 "},"Ŀ":{"ha":804,"x_min":0,"x_max":0,"o":"m 350 931 b 320 902 330 927 320 917 l 320 75 b 372 36 320 47 337 36 l 531 36 b 694 167 605 36 647 63 l 742 274 b 765 289 747 287 755 291 b 778 264 777 287 781 278 l 717 4 b 692 -24 711 -17 704 -24 b 609 0 672 -24 654 0 l 86 0 b 65 15 72 0 65 6 b 82 33 65 24 69 30 l 137 42 b 167 70 156 45 167 55 l 167 902 b 137 931 167 917 156 927 l 82 940 b 65 957 69 942 65 948 b 86 972 65 966 72 972 l 401 972 b 422 957 415 972 422 966 b 404 940 422 948 417 942 m 707 474 b 628 549 659 474 628 505 b 707 625 628 594 659 625 b 785 549 755 625 785 594 b 707 474 785 506 755 474 "},"Ḷ":{"ha":804,"x_min":0,"x_max":0,"o":"m 350 931 b 320 902 330 927 320 917 l 320 75 b 372 36 320 47 337 36 l 531 36 b 694 167 605 36 647 63 l 742 274 b 765 289 747 287 755 291 b 778 264 777 287 781 278 l 717 4 b 692 -24 711 -17 704 -24 b 609 0 672 -24 654 0 l 86 0 b 65 15 72 0 65 6 b 82 33 65 24 69 30 l 137 42 b 167 70 156 45 167 55 l 167 902 b 137 931 167 917 156 927 l 82 940 b 65 957 69 942 65 948 b 86 972 65 966 72 972 l 401 972 b 422 957 415 972 422 966 b 404 940 422 948 417 942 m 417 -233 b 340 -156 370 -233 340 -201 b 417 -78 340 -110 370 -78 b 494 -156 465 -78 494 -110 b 417 -233 494 -201 465 -233 "},"Ḻ":{"ha":804,"x_min":0,"x_max":0,"o":"m 350 931 b 320 902 330 927 320 917 l 320 75 b 372 36 320 47 337 36 l 531 36 b 694 167 605 36 647 63 l 742 274 b 765 289 747 287 755 291 b 778 264 777 287 781 278 l 717 4 b 692 -24 711 -17 704 -24 b 609 0 672 -24 654 0 l 86 0 b 65 15 72 0 65 6 b 82 33 65 24 69 30 l 137 42 b 167 70 156 45 167 55 l 167 902 b 137 931 167 917 156 927 l 82 940 b 65 957 69 942 65 948 b 86 972 65 966 72 972 l 401 972 b 422 957 415 972 422 966 b 404 940 422 948 417 942 m 238 -148 b 265 -117 238 -126 247 -117 l 567 -117 b 593 -148 585 -117 593 -126 b 567 -178 593 -169 585 -178 l 265 -178 b 238 -148 247 -178 238 -169 "},"Ṃ":{"ha":1179,"x_min":0,"x_max":0,"o":"m 307 16 b 285 0 307 6 299 0 l 41 0 b 19 15 26 0 19 6 b 38 33 19 25 27 29 l 83 44 b 139 110 117 54 136 74 l 197 863 b 163 929 201 903 191 924 l 117 938 b 94 956 101 941 94 946 b 119 972 94 966 102 972 l 295 972 b 339 940 317 972 328 965 l 602 299 l 851 937 b 896 972 862 964 873 972 l 1073 972 b 1095 957 1088 972 1095 966 b 1077 940 1095 949 1090 943 l 1024 930 b 993 883 999 924 991 912 l 1052 80 b 1085 42 1054 55 1061 47 l 1135 33 b 1153 16 1148 29 1153 24 b 1131 0 1153 7 1145 0 l 819 0 b 797 15 803 0 797 6 b 815 33 797 24 801 29 l 865 42 b 899 80 892 48 901 57 l 844 803 l 576 104 b 548 76 567 81 559 76 b 517 106 535 76 527 81 l 233 800 l 180 109 b 233 44 177 74 197 56 l 291 31 b 307 16 301 28 307 24 m 553 -233 b 475 -156 506 -233 475 -201 b 553 -78 475 -110 506 -78 b 631 -156 601 -78 631 -110 b 553 -233 631 -201 601 -233 "},"Ṉ":{"ha":1013,"x_min":0,"x_max":0,"o":"m 344 15 b 323 0 344 6 338 0 l 72 0 b 51 15 58 0 51 6 b 68 33 51 24 56 28 l 116 46 b 169 111 153 58 169 73 l 169 797 b 147 852 169 818 167 827 l 85 938 b 73 960 76 949 73 954 b 90 972 73 968 80 972 l 226 972 b 263 948 242 972 250 966 l 807 183 l 807 861 b 752 926 807 899 791 915 l 690 940 b 672 957 676 944 672 949 b 694 972 672 966 679 972 l 944 972 b 966 957 959 972 966 966 b 949 940 966 949 962 944 l 901 926 b 847 861 863 915 847 900 l 847 150 b 860 106 847 131 851 118 l 906 43 b 919 14 917 27 919 20 b 900 0 919 6 913 0 l 756 0 b 737 16 743 0 737 6 b 719 53 737 26 735 33 l 210 770 l 210 111 b 264 46 210 74 226 58 l 327 33 b 344 15 340 28 344 24 m 340 -148 b 366 -117 340 -126 349 -117 l 669 -117 b 694 -148 686 -117 694 -126 b 669 -178 694 -169 686 -178 l 366 -178 b 340 -148 349 -178 340 -169 "},"Ń":{"ha":1010,"x_min":0,"x_max":0,"o":"m 590 1162 b 679 1218 619 1201 646 1224 b 723 1160 710 1213 727 1185 b 650 1090 717 1126 688 1106 l 512 1021 b 492 1023 506 1018 497 1018 b 495 1042 488 1028 490 1035 l 590 1162 m 344 15 b 323 0 344 6 338 0 l 72 0 b 51 15 58 0 51 6 b 68 33 51 24 56 28 l 116 46 b 169 111 153 58 169 73 l 169 797 b 147 852 169 818 167 827 l 85 938 b 73 960 76 949 73 954 b 90 972 73 968 80 972 l 226 972 b 263 948 242 972 250 966 l 807 183 l 807 861 b 752 926 807 899 791 915 l 690 940 b 672 957 676 944 672 949 b 694 972 672 966 679 972 l 944 972 b 966 957 959 972 966 966 b 949 940 966 949 962 944 l 901 926 b 847 861 863 915 847 900 l 847 150 b 860 106 847 131 851 118 l 906 43 b 919 14 917 27 919 20 b 900 0 919 6 913 0 l 756 0 b 737 16 743 0 737 6 b 719 53 737 26 735 33 l 210 770 l 210 111 b 264 46 210 74 226 58 l 327 33 b 344 15 340 28 344 24 "},"Ň":{"ha":1010,"x_min":0,"x_max":0,"o":"m 558 1042 b 521 1019 544 1028 536 1019 b 483 1042 506 1019 497 1028 l 346 1192 b 344 1213 338 1200 339 1209 b 369 1210 350 1217 359 1216 l 520 1123 l 672 1210 b 697 1213 682 1216 690 1217 b 695 1192 702 1209 703 1200 l 558 1042 m 344 15 b 323 0 344 6 338 0 l 72 0 b 51 15 58 0 51 6 b 68 33 51 24 56 28 l 116 46 b 169 111 153 58 169 73 l 169 797 b 147 852 169 818 167 827 l 85 938 b 73 960 76 949 73 954 b 90 972 73 968 80 972 l 226 972 b 263 948 242 972 250 966 l 807 183 l 807 861 b 752 926 807 899 791 915 l 690 940 b 672 957 676 944 672 949 b 694 972 672 966 679 972 l 944 972 b 966 957 959 972 966 966 b 949 940 966 949 962 944 l 901 926 b 847 861 863 915 847 900 l 847 150 b 860 106 847 131 851 118 l 906 43 b 919 14 917 27 919 20 b 900 0 919 6 913 0 l 756 0 b 737 16 743 0 737 6 b 719 53 737 26 735 33 l 210 770 l 210 111 b 264 46 210 74 226 58 l 327 33 b 344 15 340 28 344 24 "},"Ñ":{"ha":1010,"x_min":0,"x_max":0,"o":"m 595 1030 b 426 1099 523 1030 478 1099 b 380 1039 396 1099 382 1079 b 365 1024 378 1029 373 1024 b 349 1044 355 1024 349 1030 b 445 1180 349 1134 383 1180 b 615 1110 518 1180 562 1110 b 661 1170 644 1110 660 1131 b 676 1185 663 1181 667 1185 b 692 1165 686 1185 692 1180 b 595 1030 692 1076 658 1030 m 344 15 b 323 0 344 6 338 0 l 72 0 b 51 15 58 0 51 6 b 68 33 51 24 56 28 l 116 46 b 169 111 153 58 169 73 l 169 797 b 147 852 169 818 167 827 l 85 938 b 73 960 76 949 73 954 b 90 972 73 968 80 972 l 226 972 b 263 948 242 972 250 966 l 807 183 l 807 861 b 752 926 807 899 791 915 l 690 940 b 672 957 676 944 672 949 b 694 972 672 966 679 972 l 944 972 b 966 957 959 972 966 966 b 949 940 966 949 962 944 l 901 926 b 847 861 863 915 847 900 l 847 150 b 860 106 847 131 851 118 l 906 43 b 919 14 917 27 919 20 b 900 0 919 6 913 0 l 756 0 b 737 16 743 0 737 6 b 719 53 737 26 735 33 l 210 770 l 210 111 b 264 46 210 74 226 58 l 327 33 b 344 15 340 28 344 24 "},"Ṇ":{"ha":1010,"x_min":0,"x_max":0,"o":"m 344 15 b 323 0 344 6 338 0 l 72 0 b 51 15 58 0 51 6 b 68 33 51 24 56 28 l 116 46 b 169 111 153 58 169 73 l 169 797 b 147 852 169 818 167 827 l 85 938 b 73 960 76 949 73 954 b 90 972 73 968 80 972 l 226 972 b 263 948 242 972 250 966 l 807 183 l 807 861 b 752 926 807 899 791 915 l 690 940 b 672 957 676 944 672 949 b 694 972 672 966 679 972 l 944 972 b 966 957 959 972 966 966 b 949 940 966 949 962 944 l 901 926 b 847 861 863 915 847 900 l 847 150 b 860 106 847 131 851 118 l 906 43 b 919 14 917 27 919 20 b 900 0 919 6 913 0 l 756 0 b 737 16 743 0 737 6 b 719 53 737 26 735 33 l 210 770 l 210 111 b 264 46 210 74 226 58 l 327 33 b 344 15 340 28 344 24 m 515 -233 b 438 -156 468 -233 438 -201 b 515 -78 438 -110 469 -78 b 593 -156 563 -78 593 -110 b 515 -233 593 -201 563 -233 "},"Ņ":{"ha":1010,"x_min":0,"x_max":0,"o":"m 344 15 b 323 0 344 6 338 0 l 72 0 b 51 15 58 0 51 6 b 68 33 51 24 56 28 l 116 46 b 169 111 153 58 169 73 l 169 797 b 147 852 169 818 167 827 l 85 938 b 73 960 76 949 73 954 b 90 972 73 968 80 972 l 226 972 b 263 948 242 972 250 966 l 807 183 l 807 861 b 752 926 807 899 791 915 l 690 940 b 672 957 676 944 672 949 b 694 972 672 966 679 972 l 944 972 b 966 957 959 972 966 966 b 949 940 966 949 962 944 l 901 926 b 847 861 863 915 847 900 l 847 150 b 860 106 847 131 851 118 l 906 43 b 919 14 917 27 919 20 b 900 0 919 6 913 0 l 756 0 b 737 16 743 0 737 6 b 719 53 737 26 735 33 l 210 770 l 210 111 b 264 46 210 74 226 58 l 327 33 b 344 15 340 28 344 24 m 517 -208 b 448 -147 470 -208 448 -181 b 519 -78 448 -106 478 -78 b 597 -176 566 -78 597 -111 b 466 -333 597 -260 549 -314 b 446 -325 455 -335 448 -333 b 457 -309 444 -318 447 -311 b 558 -222 522 -294 558 -254 b 543 -208 558 -212 553 -208 l 517 -208 "},"Ó":{"ha":1061,"x_min":0,"x_max":0,"o":"m 600 1165 b 689 1221 630 1203 656 1226 b 733 1163 721 1216 738 1188 b 660 1092 728 1128 699 1109 l 522 1024 b 502 1026 515 1021 506 1020 b 506 1044 497 1031 501 1038 l 600 1165 m 530 991 b 1007 483 813 991 1007 778 b 529 -20 1007 185 813 -20 b 54 490 248 -20 54 192 b 530 991 54 785 249 991 m 849 386 b 492 950 849 701 691 950 b 213 588 326 950 213 817 b 569 20 213 269 370 20 b 849 386 737 20 849 151 "},"Ő":{"ha":1061,"x_min":0,"x_max":0,"o":"m 479 1165 b 558 1231 501 1208 524 1234 b 606 1178 588 1228 608 1206 b 547 1106 603 1147 579 1126 l 434 1026 b 415 1024 428 1022 420 1020 b 415 1043 409 1029 411 1035 l 479 1165 m 669 1165 b 749 1230 692 1207 716 1233 b 796 1176 779 1226 799 1203 b 735 1104 792 1144 768 1124 l 623 1026 b 603 1025 615 1022 608 1020 b 604 1043 598 1029 600 1036 l 669 1165 m 530 991 b 1007 483 813 991 1007 778 b 529 -20 1007 185 813 -20 b 54 490 248 -20 54 192 b 530 991 54 785 249 991 m 849 386 b 492 950 849 701 691 950 b 213 588 326 950 213 817 b 569 20 213 269 370 20 b 849 386 737 20 849 151 "}}}
